LibreCaslonText-Regular.ufo
<glyph name="quotedbl" format="1">
  <advance width="370"/>
  <unicode hex="0022"/>
  <outline>
    <contour>
      <point x="124" y="505" type="line"/>
      <point x="128" y="626"/>
      <point x="162" y="723"/>
      <point x="162" y="774" type="curve" smooth="yes"/>
      <point x="162" y="806"/>
      <point x="143" y="830"/>
      <point x="109" y="830" type="curve" smooth="yes"/>
      <point x="76" y="830"/>
      <point x="56" y="807"/>
      <point x="56" y="770" type="curve" smooth="yes"/>
      <point x="56" y="722"/>
      <point x="91" y="625"/>
      <point x="94" y="505" type="curve"/>
    </contour>
    <contour>
      <point x="276" y="505" type="line"/>
      <point x="280" y="626"/>
      <point x="314" y="723"/>
      <point x="314" y="774" type="curve" smooth="yes"/>
      <point x="314" y="806"/>
      <point x="295" y="830"/>
      <point x="261" y="830" type="curve" smooth="yes"/>
      <point x="228" y="830"/>
      <point x="208" y="807"/>
      <point x="208" y="770" type="curve" smooth="yes"/>
      <point x="208" y="722"/>
      <point x="243" y="625"/>
      <point x="246" y="505" type="curve"/>
    </contour>
  </outline>
</glyph>
<glyph name="numbersign" format="1">
  <advance width="674"/>
  <unicode hex="0023"/>
  <outline>
    <contour>
      <point x="77" y="469" type="line" name="hr00"/>
      <point x="621" y="469" type="line"/>
      <point x="633" y="525" type="line"/>
      <point x="89" y="525" type="line"/>
    </contour>
    <contour>
      <point x="39" y="262" type="line"/>
      <point x="583" y="262" type="line"/>
      <point x="597" y="318" type="line"/>
      <point x="53" y="318" type="line"/>
    </contour>
    <contour>
      <point x="253" y="696" type="line"/>
      <point x="158" y="92" type="line"/>
      <point x="216" y="92" type="line"/>
      <point x="311" y="696" type="line"/>
    </contour>
    <contour>
      <point x="460" y="696" type="line"/>
      <point x="365" y="92" type="line"/>
      <point x="422" y="92" type="line"/>
      <point x="517" y="696" type="line"/>
    </contour>
  </outline>
</glyph>
<glyph name="quotesingle" format="1">
  <advance width="218"/>
  <unicode hex="0027"/>
  <outline>
    <contour>
      <point x="124" y="505" type="line"/>
      <point x="128" y="626"/>
      <point x="162" y="723"/>
      <point x="162" y="774" type="curve" smooth="yes"/>
      <point x="162" y="806"/>
      <point x="143" y="830"/>
      <point x="109" y="830" type="curve" smooth="yes"/>
      <point x="76" y="830"/>
      <point x="56" y="807"/>
      <point x="56" y="770" type="curve" smooth="yes"/>
      <point x="56" y="722"/>
      <point x="91" y="625"/>
      <point x="94" y="505" type="curve"/>
    </contour>
  </outline>
</glyph>
<glyph name="parenright" format="1">
  <advance width="305"/>
  <unicode hex="0029"/>
  <outline>
    <contour>
      <point x="38" y="-187" type="line"/>
      <point x="85" y="-110"/>
      <point x="166" y="49"/>
      <point x="166" y="304" type="curve" smooth="yes"/>
      <point x="166" y="519"/>
      <point x="77" y="742"/>
      <point x="26" y="820" type="curve"/>
      <point x="37" y="830" type="line"/>
      <point x="134" y="749"/>
      <point x="258" y="535"/>
      <point x="258" y="305" type="curve" smooth="yes"/>
      <point x="258" y="50"/>
      <point x="142" y="-110"/>
      <point x="54" y="-200" type="curve"/>
    </contour>
  </outline>
</glyph>
<glyph name="asterisk" format="1">
  <advance width="481"/>
  <unicode hex="002A"/>
  <outline>
    <contour>
      <point x="252" y="612" type="line"/>
      <point x="257" y="578" type="line" smooth="yes"/>
      <point x="263" y="533"/>
      <point x="279" y="498"/>
      <point x="279" y="472" type="curve" smooth="yes"/>
      <point x="279" y="449"/>
      <point x="266" y="432"/>
      <point x="242" y="432" type="curve" smooth="yes"/>
      <point x="218" y="432"/>
      <point x="204" y="449"/>
      <point x="204" y="476" type="curve" smooth="yes"/>
      <point x="204" y="505"/>
      <point x="222" y="540"/>
      <point x="227" y="579" type="curve" smooth="yes"/>
      <point x="231" y="612" type="line"/>
      <point x="203" y="591" type="line" smooth="yes"/>
      <point x="162" y="560"/>
      <point x="144" y="514"/>
      <point x="104" y="514" type="curve" smooth="yes"/>
      <point x="79" y="514"/>
      <point x="63" y="530"/>
      <point x="63" y="553" type="curve" smooth="yes"/>
      <point x="63" y="599"/>
      <point x="131" y="591"/>
      <point x="190" y="618" type="curve" smooth="yes"/>
      <point x="219" y="631" type="line"/>
      <point x="188" y="644" type="line" smooth="yes"/>
      <point x="130" y="668"/>
      <point x="63" y="660"/>
      <point x="63" y="707" type="curve" smooth="yes"/>
      <point x="63" y="729"/>
      <point x="77" y="747"/>
      <point x="104" y="747" type="curve" smooth="yes"/>
      <point x="144" y="747"/>
      <point x="159" y="702"/>
      <point x="204" y="669" type="curve" smooth="yes"/>
      <point x="230" y="650" type="line"/>
      <point x="226" y="684" type="line" smooth="yes"/>
      <point x="221" y="728"/>
      <point x="203" y="752"/>
      <point x="203" y="784" type="curve" smooth="yes"/>
      <point x="203" y="816"/>
      <point x="220" y="830"/>
      <point x="241" y="830" type="curve" smooth="yes"/>
      <point x="261" y="830"/>
      <point x="278" y="816"/>
      <point x="278" y="784" type="curve" smooth="yes"/>
      <point x="277" y="751"/>
      <point x="259" y="730"/>
      <point x="255" y="682" type="curve" smooth="yes"/>
      <point x="252" y="650" type="line"/>
      <point x="277" y="670" type="line" smooth="yes"/>
      <point x="327" y="710"/>
      <point x="339" y="748"/>
      <point x="377" y="748" type="curve" smooth="yes"/>
      <point x="405" y="748"/>
      <point x="418" y="729"/>
      <point x="418" y="708" type="curve" smooth="yes"/>
      <point x="418" y="661"/>
      <point x="351" y="669"/>
      <point x="293" y="645" type="curve" smooth="yes"/>
      <point x="262" y="632" type="line"/>
      <point x="291" y="619" type="line" smooth="yes"/>
      <point x="354" y="591"/>
      <point x="418" y="600"/>
      <point x="418" y="554" type="curve" smooth="yes"/>
      <point x="418" y="530"/>
      <point x="401" y="515"/>
      <point x="377" y="515" type="curve" smooth="yes"/>
      <point x="337" y="515"/>
      <point x="319" y="561"/>
      <point x="278" y="592" type="curve" smooth="yes"/>
    </contour>
  </outline>
</glyph>
<glyph name="plus" format="1">
  <advance width="502"/>
  <unicode hex="002B"/>
  <outline>
    <contour>
      <point x="456" y="315" type="line"/>
      <point x="456" y="364" type="line"/>
      <point x="46" y="364" type="line"/>
      <point x="46" y="315" type="line"/>
    </contour>
    <contour>
      <point x="226" y="134" type="line"/>
      <point x="277" y="134" type="line"/>
      <point x="277" y="544" type="line"/>
      <point x="226" y="544" type="line"/>
    </contour>
  </outline>
</glyph>
<glyph name="hyphen" format="1">
  <advance width="465"/>
  <unicode hex="002D"/>
  <outline>
    <contour>
      <point x="392" y="210" type="line"/>
      <point x="392" y="294" type="line"/>
      <point x="73" y="294" type="line"/>
      <point x="73" y="210" type="line"/>
    </contour>
  </outline>
</glyph>
<glyph name="period" format="1">
  <advance width="262"/>
  <unicode hex="002E"/>
  <outline>
    <contour>
      <point x="62" y="58" type="curve" smooth="yes"/>
      <point x="62" y="21"/>
      <point x="89" y="-10"/>
      <point x="130" y="-10" type="curve" smooth="yes"/>
      <point x="173" y="-10"/>
      <point x="200" y="21"/>
      <point x="200" y="58" type="curve" smooth="yes"/>
      <point x="200" y="98"/>
      <point x="173" y="128"/>
      <point x="130" y="128" type="curve" smooth="yes"/>
      <point x="89" y="128"/>
      <point x="62" y="98"/>
    </contour>
  </outline>
</glyph>
<glyph name="two" format="1">
  <advance width="579"/>
  <unicode hex="0032"/>
  <outline>
    <contour>
      <point x="426" y="0" type="line" name="hr00"/>
      <point x="439" y="-20" type="line"/>
      <point x="461" y="-20" type="line"/>
      <point x="537" y="199" type="line"/>
      <point x="515" y="207" type="line"/>
      <point x="492" y="165"/>
      <point x="455" y="112"/>
      <point x="435" y="90" type="curve"/>
      <point x="148" y="90" type="line"/>
      <point x="399" y="299"/>
      <point x="499" y="435"/>
      <point x="499" y="566" type="curve" smooth="yes"/>
      <point x="499" y="688"/>
      <point x="413" y="780"/>
      <point x="299" y="780" type="curve" smooth="yes"/>
      <point x="198" y="780"/>
      <point x="104" y="707"/>
      <point x="64" y="599" type="curve"/>
      <point x="85" y="588" type="line"/>
      <point x="122" y="657"/>
      <point x="190" y="704"/>
      <point x="255" y="704" type="curve" smooth="yes"/>
      <point x="331" y="704"/>
      <point x="384" y="639"/>
      <point x="384" y="545" type="curve" smooth="yes"/>
      <point x="384" y="418"/>
      <point x="287" y="278"/>
      <point x="23" y="23" type="curve"/>
      <point x="32" y="0" type="line"/>
    </contour>
  </outline>
</glyph>
<glyph name="five" format="1">
  <advance width="547"/>
  <unicode hex="0035"/>
  <outline>
    <contour>
      <point x="182" y="667" type="line" name="hr00"/>
      <point x="439" y="667" type="line"/>
      <point x="476" y="790" type="line"/>
      <point x="455" y="797" type="line"/>
      <point x="446" y="780"/>
      <point x="438" y="767"/>
      <point x="429" y="757" type="curve"/>
      <point x="148" y="757" type="line"/>
      <point x="96" y="380" type="line"/>
      <point x="111" y="378" type="line"/>
      <point x="143" y="405"/>
      <point x="176" y="417"/>
      <point x="219" y="417" type="curve" smooth="yes"/>
      <point x="326" y="417"/>
      <point x="400" y="338"/>
      <point x="400" y="226" type="curve" smooth="yes"/>
      <point x="400" y="119"/>
      <point x="331" y="35"/>
      <point x="243" y="35" type="curve" smooth="yes"/>
      <point x="131" y="35"/>
      <point x="174" y="174"/>
      <point x="88" y="174" type="curve" smooth="yes"/>
      <point x="55" y="174"/>
      <point x="35" y="153"/>
      <point x="35" y="116" type="curve" smooth="yes"/>
      <point x="35" y="44"/>
      <point x="113" y="-10"/>
      <point x="217" y="-10" type="curve" smooth="yes"/>
      <point x="372" y="-10"/>
      <point x="494" y="111"/>
      <point x="494" y="267" type="curve" smooth="yes"/>
      <point x="494" y="410"/>
      <point x="392" y="510"/>
      <point x="244" y="510" type="curve" smooth="yes"/>
      <point x="212" y="510"/>
      <point x="187" y="505"/>
      <point x="157" y="494" type="curve"/>
    </contour>
  </outline>
</glyph>
<glyph name="eight" format="1">
  <advance width="595"/>
  <unicode hex="0038"/>
  <outline>
    <contour>
      <point x="375" y="440" type="curve" name="hr00"/>
      <point x="460" y="482"/>
      <point x="505" y="541"/>
      <point x="505" y="612" type="curve" smooth="yes"/>
      <point x="505" y="709"/>
      <point x="419" y="780"/>
      <point x="300" y="780" type="curve" smooth="yes"/>
      <point x="174" y="780"/>
      <point x="82" y="700"/>
      <point x="82" y="589" type="curve" smooth="yes"/>
      <point x="82" y="516"/>
      <point x="123" y="457"/>
      <point x="213" y="398" type="curve"/>
      <point x="108" y="344"/>
      <point x="58" y="279"/>
      <point x="58" y="195" type="curve" smooth="yes"/>
      <point x="58" y="77"/>
      <point x="157" y="-10"/>
      <point x="291" y="-10" type="curve" smooth="yes"/>
      <point x="432" y="-10"/>
      <point x="540" y="88"/>
      <point x="540" y="215" type="curve" smooth="yes"/>
      <point x="540" y="302"/>
      <point x="489" y="371"/>
    </contour>
    <contour>
      <point x="328" y="460" type="curve"/>
      <point x="222" y="508"/>
      <point x="176" y="557"/>
      <point x="176" y="623" type="curve" smooth="yes"/>
      <point x="176" y="691"/>
      <point x="223" y="735"/>
      <point x="294" y="735" type="curve" smooth="yes"/>
      <point x="368" y="735"/>
      <point x="417" y="686"/>
      <point x="417" y="612" type="curve" smooth="yes"/>
      <point x="417" y="554"/>
      <point x="388" y="504"/>
    </contour>
    <contour>
      <point x="255" y="376" type="curve"/>
      <point x="392" y="315"/>
      <point x="449" y="255"/>
      <point x="449" y="171" type="curve" smooth="yes"/>
      <point x="449" y="88"/>
      <point x="393" y="35"/>
      <point x="306" y="35" type="curve" smooth="yes"/>
      <point x="214" y="35"/>
      <point x="158" y="96"/>
      <point x="158" y="196" type="curve" smooth="yes"/>
      <point x="158" y="273"/>
      <point x="192" y="337"/>
    </contour>
  </outline>
</glyph>
<glyph name="colon" format="1">
  <advance width="284"/>
  <unicode hex="003A"/>
  <outline>
    <contour>
      <point x="73" y="401" type="curve" smooth="yes"/>
      <point x="73" y="364"/>
      <point x="100" y="333"/>
      <point x="141" y="333" type="curve" smooth="yes"/>
      <point x="184" y="333"/>
      <point x="211" y="364"/>
      <point x="211" y="401" type="curve" smooth="yes"/>
      <point x="211" y="441"/>
      <point x="184" y="471"/>
      <point x="141" y="471" type="curve" smooth="yes"/>
      <point x="100" y="471"/>
      <point x="73" y="441"/>
    </contour>
    <contour>
      <point x="73" y="58" type="curve" smooth="yes"/>
      <point x="73" y="21"/>
      <point x="100" y="-10"/>
      <point x="141" y="-10" type="curve" smooth="yes"/>
      <point x="184" y="-10"/>
      <point x="211" y="21"/>
      <point x="211" y="58" type="curve" smooth="yes"/>
      <point x="211" y="98"/>
      <point x="184" y="128"/>
      <point x="141" y="128" type="curve" smooth="yes"/>
      <point x="100" y="128"/>
      <point x="73" y="98"/>
    </contour>
  </outline>
</glyph>
<glyph name="semicolon" format="1">
  <advance width="286"/>
  <unicode hex="003B"/>
  <outline>
    <contour>
      <point x="74" y="401" type="curve" smooth="yes"/>
      <point x="74" y="364"/>
      <point x="101" y="333"/>
      <point x="142" y="333" type="curve" smooth="yes"/>
      <point x="185" y="333"/>
      <point x="212" y="364"/>
      <point x="212" y="401" type="curve" smooth="yes"/>
      <point x="212" y="441"/>
      <point x="185" y="471"/>
      <point x="142" y="471" type="curve" smooth="yes"/>
      <point x="101" y="471"/>
      <point x="74" y="441"/>
    </contour>
    <contour>
      <point x="107" y="-151" type="line"/>
      <point x="176" y="-101"/>
      <point x="213" y="-38"/>
      <point x="213" y="30" type="curve" smooth="yes"/>
      <point x="213" y="89"/>
      <point x="184" y="128"/>
      <point x="141" y="128" type="curve" smooth="yes"/>
      <point x="103" y="128"/>
      <point x="73" y="99"/>
      <point x="73" y="61" type="curve" smooth="yes"/>
      <point x="73" y="0"/>
      <point x="149" y="4"/>
      <point x="149" y="-36" type="curve" smooth="yes"/>
      <point x="149" y="-59"/>
      <point x="124" y="-94"/>
      <point x="87" y="-122" type="curve"/>
    </contour>
  </outline>
</glyph>
<glyph name="greater" format="1">
  <advance width="520"/>
  <unicode hex="003E"/>
  <outline>
    <contour>
      <point x="481" y="315" type="line"/>
      <point x="481" y="366" type="line"/>
      <point x="72" y="561" type="line"/>
      <point x="72" y="495" type="line"/>
      <point x="409" y="341" type="line"/>
      <point x="409" y="337" type="line"/>
      <point x="72" y="181" type="line"/>
      <point x="72" y="121" type="line"/>
    </contour>
  </outline>
</glyph>
<glyph name="question" format="1">
  <advance width="411"/>
  <unicode hex="003F"/>
  <outline>
    <contour>
      <point x="98" y="230" type="line"/>
      <point x="98" y="442" type="line"/>
      <point x="137" y="442" type="line" smooth="yes"/>
      <point x="266" y="442"/>
      <point x="332" y="474"/>
      <point x="332" y="538" type="curve" smooth="yes"/>
      <point x="332" y="589"/>
      <point x="289" y="631"/>
      <point x="199" y="666" type="curve" smooth="yes"/>
      <point x="96" y="705"/>
      <point x="79" y="716"/>
      <point x="79" y="745" type="curve" smooth="yes"/>
      <point x="79" y="770"/>
      <point x="95" y="780"/>
      <point x="132" y="780" type="curve" smooth="yes"/>
      <point x="258" y="780"/>
      <point x="366" y="665"/>
      <point x="366" y="529" type="curve" smooth="yes"/>
      <point x="366" y="419"/>
      <point x="294" y="357"/>
      <point x="164" y="353" type="curve" smooth="yes"/>
      <point x="134" y="352" type="line"/>
      <point x="134" y="230" type="line"/>
    </contour>
    <contour>
      <point x="50" y="55" type="curve" smooth="yes"/>
      <point x="50" y="16"/>
      <point x="76" y="-10"/>
      <point x="114" y="-10" type="curve" smooth="yes"/>
      <point x="153" y="-10"/>
      <point x="180" y="17"/>
      <point x="180" y="55" type="curve" smooth="yes"/>
      <point x="180" y="93"/>
      <point x="153" y="120"/>
      <point x="115" y="120" type="curve" smooth="yes"/>
      <point x="76" y="120"/>
      <point x="50" y="93"/>
    </contour>
  </outline>
</glyph>
<glyph name="B" format="1">
  <advance width="699"/>
  <unicode hex="0042"/>
  <outline>
    <contour>
      <point x="49" y="770" type="line"/>
      <point x="49" y="747" type="line"/>
      <point x="134" y="728" type="line"/>
      <point x="134" y="42" type="line"/>
      <point x="49" y="23" type="line"/>
      <point x="49" y="0" type="line"/>
      <point x="362" y="0" type="line" smooth="yes"/>
      <point x="471" y="0"/>
      <point x="532" y="15"/>
      <point x="578" y="52" type="curve" smooth="yes"/>
      <point x="620" y="87"/>
      <point x="645" y="143"/>
      <point x="645" y="204" type="curve" smooth="yes"/>
      <point x="645" y="313"/>
      <point x="566" y="395"/>
      <point x="446" y="408" type="curve"/>
      <point x="446" y="412" type="line"/>
      <point x="552" y="434"/>
      <point x="611" y="496"/>
      <point x="611" y="583" type="curve" smooth="yes"/>
      <point x="611" y="642"/>
      <point x="583" y="696"/>
      <point x="536" y="729" type="curve" smooth="yes"/>
      <point x="495" y="757"/>
      <point x="437" y="770"/>
      <point x="345" y="770" type="curve" smooth="yes"/>
    </contour>
    <contour>
      <point x="239" y="730" type="line"/>
      <point x="325" y="730" type="line" smooth="yes"/>
      <point x="398" y="730"/>
      <point x="433" y="720"/>
      <point x="462" y="690" type="curve" smooth="yes"/>
      <point x="488" y="663"/>
      <point x="499" y="633"/>
      <point x="499" y="586" type="curve" smooth="yes"/>
      <point x="499" y="495"/>
      <point x="458" y="440"/>
      <point x="385" y="432" type="curve" smooth="yes"/>
      <point x="363" y="430"/>
      <point x="340" y="429"/>
      <point x="301" y="429" type="curve" smooth="yes"/>
      <point x="239" y="429" type="line"/>
    </contour>
    <contour>
      <point x="324" y="389" type="line"/>
      <point x="464" y="389"/>
      <point x="529" y="333"/>
      <point x="529" y="213" type="curve" smooth="yes"/>
      <point x="529" y="93"/>
      <point x="465" y="38"/>
      <point x="327" y="38" type="curve" smooth="yes"/>
      <point x="259" y="38"/>
      <point x="239" y="51"/>
      <point x="239" y="98" type="curve" smooth="yes"/>
      <point x="239" y="389" type="line"/>
    </contour>
  </outline>
</glyph>
<glyph name="C" format="1">
  <advance width="774"/>
  <unicode hex="0043"/>
  <outline>
    <contour>
      <point x="56" y="380" type="curve" smooth="yes"/>
      <point x="56" y="149"/>
      <point x="203" y="-10"/>
      <point x="418" y="-10" type="curve" smooth="yes"/>
      <point x="500" y="-10"/>
      <point x="567" y="13"/>
      <point x="638" y="66" type="curve"/>
      <point x="684" y="0" type="line"/>
      <point x="708" y="0" type="line"/>
      <point x="708" y="262" type="line"/>
      <point x="681" y="262" type="line"/>
      <point x="671" y="209"/>
      <point x="653" y="164"/>
      <point x="628" y="129" type="curve" smooth="yes"/>
      <point x="585" y="67"/>
      <point x="520" y="35"/>
      <point x="440" y="35" type="curve" smooth="yes"/>
      <point x="276" y="35"/>
      <point x="182" y="164"/>
      <point x="182" y="387" type="curve" smooth="yes"/>
      <point x="182" y="610"/>
      <point x="274" y="736"/>
      <point x="439" y="736" type="curve" smooth="yes"/>
      <point x="528" y="736"/>
      <point x="590" y="706"/>
      <point x="637" y="630" type="curve" smooth="yes"/>
      <point x="652" y="605"/>
      <point x="666" y="576"/>
      <point x="678" y="540" type="curve"/>
      <point x="708" y="540" type="line"/>
      <point x="708" y="770" type="line"/>
      <point x="690" y="770" type="line"/>
      <point x="641" y="719" type="line"/>
      <point x="637" y="719" type="line"/>
      <point x="577" y="758"/>
      <point x="500" y="780"/>
      <point x="422" y="780" type="curve" smooth="yes"/>
      <point x="208" y="780"/>
      <point x="56" y="614"/>
    </contour>
    <contour>
      <point x="433" y="830" type="move" name="topcap"/>
    </contour>
    <contour>
      <point x="433" y="0" type="move" name="bottom"/>
    </contour>
  </outline>
</glyph>
<glyph name="D" format="1">
  <advance width="810"/>
  <unicode hex="0044"/>
  <outline>
    <contour>
      <point x="384" y="0" type="line"/>
      <point x="484" y="0"/>
      <point x="547" y="17"/>
      <point x="605" y="59" type="curve" smooth="yes"/>
      <point x="698" y="127"/>
      <point x="753" y="247"/>
      <point x="753" y="383" type="curve" smooth="yes"/>
      <point x="753" y="514"/>
      <point x="702" y="628"/>
      <point x="612" y="697" type="curve" smooth="yes"/>
      <point x="542" y="750"/>
      <point x="457" y="770"/>
      <point x="298" y="770" type="curve" smooth="yes"/>
      <point x="49" y="770" type="line"/>
      <point x="49" y="747" type="line"/>
      <point x="134" y="728" type="line"/>
      <point x="134" y="42" type="line"/>
      <point x="49" y="23" type="line"/>
      <point x="49" y="0" type="line"/>
    </contour>
    <contour>
      <point x="343" y="38" type="curve" smooth="yes"/>
      <point x="264" y="38"/>
      <point x="239" y="52"/>
      <point x="239" y="98" type="curve" smooth="yes"/>
      <point x="239" y="730" type="line"/>
      <point x="318" y="730" type="line" smooth="yes"/>
      <point x="430" y="730"/>
      <point x="492" y="710"/>
      <point x="543" y="657" type="curve" smooth="yes"/>
      <point x="599" y="598"/>
      <point x="628" y="508"/>
      <point x="628" y="395" type="curve" smooth="yes"/>
      <point x="628" y="283"/>
      <point x="599" y="185"/>
      <point x="546" y="119" type="curve" smooth="yes"/>
      <point x="498" y="61"/>
      <point x="441" y="38"/>
    </contour>
    <contour>
      <point x="410" y="830" type="move" name="topcap"/>
    </contour>
    <contour>
      <point x="410" y="0" type="move" name="bottom"/>
    </contour>
  </outline>
</glyph>
<glyph name="M" format="1">
  <advance width="1012"/>
  <unicode hex="004D"/>
  <outline>
    <contour>
      <point x="135" y="42" type="line"/>
      <point x="45" y="23" type="line"/>
      <point x="45" y="0" type="line"/>
      <point x="264" y="0" type="line"/>
      <point x="264" y="23" type="line"/>
      <point x="175" y="42" type="line"/>
      <point x="175" y="660" type="line"/>
      <point x="179" y="660" type="line"/>
      <point x="458" y="-10" type="line"/>
      <point x="485" y="-10" type="line"/>
      <point x="769" y="656" type="line"/>
      <point x="773" y="656" type="line"/>
      <point x="773" y="42" type="line"/>
      <point x="683" y="23" type="line"/>
      <point x="683" y="0" type="line"/>
      <point x="967" y="0" type="line"/>
      <point x="967" y="23" type="line"/>
      <point x="878" y="42" type="line"/>
      <point x="878" y="728" type="line"/>
      <point x="967" y="747" type="line"/>
      <point x="967" y="770" type="line"/>
      <point x="758" y="770" type="line"/>
      <point x="509" y="177" type="line"/>
      <point x="504" y="177" type="line"/>
      <point x="255" y="770" type="line"/>
      <point x="45" y="770" type="line"/>
      <point x="45" y="747" type="line"/>
      <point x="135" y="728" type="line"/>
    </contour>
  </outline>
</glyph>
<glyph name="P" format="1">
  <advance width="663"/>
  <unicode hex="0050"/>
  <outline>
    <contour>
      <point x="49" y="747" type="line"/>
      <point x="134" y="728" type="line"/>
      <point x="134" y="42" type="line"/>
      <point x="49" y="23" type="line"/>
      <point x="49" y="0" type="line"/>
      <point x="353" y="0" type="line"/>
      <point x="353" y="23" type="line"/>
      <point x="239" y="42" type="line"/>
      <point x="239" y="330" type="line"/>
      <point x="345" y="330" type="line" smooth="yes"/>
      <point x="519" y="330"/>
      <point x="627" y="404"/>
      <point x="627" y="541" type="curve" smooth="yes"/>
      <point x="627" y="689"/>
      <point x="517" y="770"/>
      <point x="360" y="770" type="curve" smooth="yes"/>
      <point x="49" y="770" type="line"/>
    </contour>
    <contour>
      <point x="239" y="730" type="line"/>
      <point x="331" y="730" type="line" smooth="yes"/>
      <point x="372" y="730"/>
      <point x="398" y="727"/>
      <point x="420" y="718" type="curve" smooth="yes"/>
      <point x="478" y="695"/>
      <point x="512" y="637"/>
      <point x="512" y="551" type="curve" smooth="yes"/>
      <point x="512" y="504"/>
      <point x="502" y="458"/>
      <point x="472" y="423" type="curve" smooth="yes"/>
      <point x="443" y="389"/>
      <point x="398" y="369"/>
      <point x="314" y="369" type="curve" smooth="yes"/>
      <point x="239" y="369" type="line"/>
    </contour>
  </outline>
</glyph>
<glyph name="S" format="1">
  <advance width="599"/>
  <unicode hex="0053"/>
  <outline>
    <contour>
      <point x="302" y="780" type="curve" smooth="yes"/>
      <point x="175" y="780"/>
      <point x="79" y="690"/>
      <point x="79" y="569" type="curve" smooth="yes"/>
      <point x="79" y="333"/>
      <point x="447" y="355"/>
      <point x="447" y="158" type="curve" smooth="yes"/>
      <point x="447" y="81"/>
      <point x="390" y="34"/>
      <point x="298" y="34" type="curve" smooth="yes"/>
      <point x="189" y="34"/>
      <point x="128" y="101"/>
      <point x="88" y="262" type="curve"/>
      <point x="63" y="256" type="line"/>
      <point x="81" y="0" type="line"/>
      <point x="101" y="0" type="line"/>
      <point x="141" y="41" type="line"/>
      <point x="198" y="6"/>
      <point x="247" y="-9"/>
      <point x="301" y="-9" type="curve" smooth="yes"/>
      <point x="435" y="-9"/>
      <point x="539" y="89"/>
      <point x="539" y="217" type="curve" smooth="yes"/>
      <point x="539" y="455"/>
      <point x="184" y="428"/>
      <point x="184" y="623" type="curve" smooth="yes"/>
      <point x="184" y="694"/>
      <point x="231" y="737"/>
      <point x="307" y="737" type="curve" smooth="yes"/>
      <point x="398" y="737"/>
      <point x="456" y="677"/>
      <point x="488" y="550" type="curve"/>
      <point x="514" y="550" type="line"/>
      <point x="505" y="770" type="line"/>
      <point x="485" y="770" type="line"/>
      <point x="453" y="718" type="line"/>
      <point x="409" y="760"/>
      <point x="362" y="780"/>
    </contour>
    <contour>
      <point x="308" y="830" type="move" name="topcap"/>
    </contour>
    <contour>
      <point x="303" y="0" type="move" name="bottom"/>
    </contour>
  </outline>
</glyph>
<glyph name="T" format="1">
  <advance width="754"/>
  <unicode hex="0054"/>
  <outline>
    <contour>
      <point x="216" y="0" type="line"/>
      <point x="540" y="0" type="line"/>
      <point x="540" y="23" type="line"/>
      <point x="431" y="42" type="line"/>
      <point x="431" y="730" type="line"/>
      <point x="629" y="730" type="line"/>
      <point x="672" y="673"/>
      <point x="701" y="607"/>
      <point x="721" y="550" type="curve"/>
      <point x="745" y="550" type="line"/>
      <point x="708" y="770" type="line"/>
      <point x="46" y="770" type="line"/>
      <point x="9" y="550" type="line"/>
      <point x="33" y="550" type="line"/>
      <point x="53" y="607"/>
      <point x="82" y="673"/>
      <point x="125" y="730" type="curve"/>
      <point x="326" y="730" type="line"/>
      <point x="326" y="42" type="line"/>
      <point x="216" y="23" type="line"/>
    </contour>
    <contour>
      <point x="379" y="830" type="move" name="topcap"/>
    </contour>
    <contour>
      <point x="379" y="-2" type="move" name="bottom"/>
    </contour>
  </outline>
</glyph>
<glyph name="Z" format="1">
  <advance width="676"/>
  <unicode hex="005A"/>
  <outline>
    <contour>
      <point x="103" y="770" type="line"/>
      <point x="61" y="552" type="line"/>
      <point x="87" y="551" type="line"/>
      <point x="97" y="581"/>
      <point x="120" y="637"/>
      <point x="159" y="708" type="curve" smooth="yes"/>
      <point x="171" y="730" type="line"/>
      <point x="489" y="730" type="line"/>
      <point x="31" y="28" type="line"/>
      <point x="31" y="0" type="line"/>
      <point x="580" y="0" type="line"/>
      <point x="632" y="244" type="line"/>
      <point x="606" y="247" type="line"/>
      <point x="588" y="202"/>
      <point x="556" y="129"/>
      <point x="509" y="58" type="curve" smooth="yes"/>
      <point x="497" y="40" type="line"/>
      <point x="163" y="40" type="line"/>
      <point x="623" y="743" type="line"/>
      <point x="623" y="770" type="line"/>
    </contour>
    <contour>
      <point x="368" y="830" type="move" name="topcap"/>
    </contour>
    <contour>
      <point x="318" y="0" type="move" name="bottom"/>
    </contour>
  </outline>
</glyph>
<glyph name="bracketleft" format="1">
  <advance width="324"/>
  <unicode hex="005B"/>
  <outline>
    <contour>
      <point x="101" y="-187" type="line"/>
      <point x="101" y="820" type="line"/>
      <point x="300" y="820" type="line"/>
      <point x="300" y="788" type="line"/>
      <point x="182" y="788" type="line"/>
      <point x="182" y="-156" type="line"/>
      <point x="300" y="-156" type="line"/>
      <point x="300" y="-187" type="line"/>
    </contour>
  </outline>
</glyph>
<glyph name="bracketright" format="1">
  <advance width="324"/>
  <unicode hex="005D"/>
  <outline>
    <contour>
      <point x="24" y="-187" type="line"/>
      <point x="24" y="-156" type="line"/>
      <point x="142" y="-156" type="line"/>
      <point x="142" y="788" type="line"/>
      <point x="24" y="788" type="line"/>
      <point x="24" y="820" type="line"/>
      <point x="223" y="820" type="line"/>
      <point x="223" y="-187" type="line"/>
    </contour>
  </outline>
</glyph>
<glyph name="c" format="1">
  <advance width="535"/>
  <unicode hex="0063"/>
  <outline>
    <contour>
      <point x="290" y="-10" type="curve" smooth="yes"/>
      <point x="387" y="-10"/>
      <point x="462" y="40"/>
      <point x="496" y="128" type="curve" smooth="yes"/>
      <point x="501" y="141" type="line"/>
      <point x="482" y="151" type="line"/>
      <point x="471" y="136" type="line" smooth="yes"/>
      <point x="435" y="87"/>
      <point x="380" y="63"/>
      <point x="320" y="63" type="curve" smooth="yes"/>
      <point x="211" y="63"/>
      <point x="148" y="142"/>
      <point x="148" y="278" type="curve" smooth="yes"/>
      <point x="148" y="418"/>
      <point x="209" y="508"/>
      <point x="315" y="508" type="curve" smooth="yes"/>
      <point x="360" y="508"/>
      <point x="379" y="494"/>
      <point x="387" y="428" type="curve" smooth="yes"/>
      <point x="392" y="385"/>
      <point x="411" y="365"/>
      <point x="446" y="365" type="curve" smooth="yes"/>
      <point x="475" y="365"/>
      <point x="492" y="388"/>
      <point x="492" y="422" type="curve" smooth="yes"/>
      <point x="492" y="486"/>
      <point x="414" y="540"/>
      <point x="312" y="540" type="curve" smooth="yes"/>
      <point x="156" y="540"/>
      <point x="46" y="423"/>
      <point x="46" y="258" type="curve" smooth="yes"/>
      <point x="46" y="100"/>
      <point x="147" y="-10"/>
    </contour>
    <contour>
      <point x="308" y="651" type="move" name="top"/>
    </contour>
    <contour>
      <point x="291" y="0" type="move" name="bottom"/>
    </contour>
  </outline>
</glyph>
<glyph name="d" format="1">
  <advance width="607"/>
  <unicode hex="0064"/>
  <outline>
    <contour>
      <point x="254" y="-10" type="curve" smooth="yes"/>
      <point x="320" y="-10"/>
      <point x="379" y="19"/>
      <point x="421" y="78" type="curve"/>
      <point x="425" y="76" type="line"/>
      <point x="425" y="-10" type="line"/>
      <point x="432" y="-10" type="line"/>
      <point x="580" y="52" type="line"/>
      <point x="580" y="63" type="line"/>
      <point x="512" y="78" type="line"/>
      <point x="512" y="830" type="line"/>
      <point x="502" y="830" type="line"/>
      <point x="345" y="781" type="line"/>
      <point x="345" y="768" type="line"/>
      <point x="418" y="740" type="line"/>
      <point x="418" y="525" type="line"/>
      <point x="383" y="535"/>
      <point x="345" y="540"/>
      <point x="310" y="540" type="curve" smooth="yes"/>
      <point x="154" y="540"/>
      <point x="47" y="424"/>
      <point x="47" y="256" type="curve" smooth="yes"/>
      <point x="47" y="103"/>
      <point x="136" y="-10"/>
    </contour>
    <contour>
      <point x="296" y="55" type="curve" smooth="yes"/>
      <point x="206" y="55"/>
      <point x="152" y="138"/>
      <point x="152" y="272" type="curve" smooth="yes"/>
      <point x="152" y="416"/>
      <point x="215" y="510"/>
      <point x="308" y="510" type="curve" smooth="yes"/>
      <point x="380" y="510"/>
      <point x="418" y="472"/>
      <point x="418" y="400" type="curve" smooth="yes"/>
      <point x="418" y="114" type="line"/>
      <point x="395" y="78"/>
      <point x="348" y="55"/>
    </contour>
    <contour>
      <point x="254" y="0" type="move" name="bottom"/>
    </contour>
  </outline>
</glyph>
<glyph name="e" format="1">
  <advance width="560"/>
  <unicode hex="0065"/>
  <outline>
    <contour>
      <point x="519" y="314" type="line"/>
      <point x="516" y="462"/>
      <point x="445" y="540"/>
      <point x="314" y="540" type="curve" smooth="yes"/>
      <point x="155" y="540"/>
      <point x="47" y="425"/>
      <point x="47" y="257" type="curve" smooth="yes"/>
      <point x="47" y="98"/>
      <point x="144" y="-10"/>
      <point x="287" y="-10" type="curve" smooth="yes"/>
      <point x="385" y="-10"/>
      <point x="467" y="40"/>
      <point x="502" y="121" type="curve" smooth="yes"/>
      <point x="508" y="135" type="line"/>
      <point x="491" y="145" type="line"/>
      <point x="479" y="130" type="line" smooth="yes"/>
      <point x="444" y="88"/>
      <point x="385" y="63"/>
      <point x="320" y="63" type="curve" smooth="yes"/>
      <point x="206" y="63"/>
      <point x="147" y="139"/>
      <point x="147" y="285" type="curve" smooth="yes"/>
      <point x="147" y="428"/>
      <point x="204" y="509"/>
      <point x="305" y="509" type="curve" smooth="yes"/>
      <point x="377" y="509"/>
      <point x="414" y="468"/>
      <point x="414" y="386" type="curve" smooth="yes"/>
      <point x="414" y="370"/>
      <point x="413" y="353"/>
      <point x="411" y="345" type="curve"/>
      <point x="127" y="335" type="line"/>
      <point x="127" y="308" type="line"/>
      <point x="512" y="308" type="line"/>
    </contour>
    <contour>
      <point x="311" y="651" type="move" name="top"/>
    </contour>
    <contour>
      <point x="288" y="0" type="move" name="bottom"/>
    </contour>
  </outline>
</glyph>
<glyph name="g" format="1">
  <advance width="514"/>
  <unicode hex="0067"/>
  <outline>
    <contour>
      <point x="220" y="-260" type="curve" smooth="yes"/>
      <point x="291" y="-260"/>
      <point x="378" y="-241"/>
      <point x="434" y="-196" type="curve" smooth="yes"/>
      <point x="467" y="-169"/>
      <point x="489" y="-133"/>
      <point x="489" y="-82" type="curve" smooth="yes"/>
      <point x="489" y="-37"/>
      <point x="472" y="21"/>
      <point x="362" y="46" type="curve" smooth="yes"/>
      <point x="293" y="62"/>
      <point x="147" y="74"/>
      <point x="147" y="129" type="curve" smooth="yes"/>
      <point x="147" y="163"/>
      <point x="204" y="188"/>
      <point x="255" y="192" type="curve" smooth="yes"/>
      <point x="373" y="201"/>
      <point x="454" y="281"/>
      <point x="454" y="369" type="curve" smooth="yes"/>
      <point x="454" y="416"/>
      <point x="431" y="462"/>
      <point x="392" y="494" type="curve"/>
      <point x="399" y="521"/>
      <point x="414" y="545"/>
      <point x="430" y="545" type="curve" smooth="yes"/>
      <point x="455" y="545"/>
      <point x="452" y="519"/>
      <point x="481" y="519" type="curve" smooth="yes"/>
      <point x="507" y="519"/>
      <point x="528" y="539"/>
      <point x="528" y="566" type="curve" smooth="yes"/>
      <point x="528" y="597"/>
      <point x="500" y="616"/>
      <point x="470" y="616" type="curve" smooth="yes"/>
      <point x="418" y="616"/>
      <point x="387" y="556"/>
      <point x="371" y="508" type="curve"/>
      <point x="339" y="528"/>
      <point x="299" y="540"/>
      <point x="254" y="540" type="curve" smooth="yes"/>
      <point x="144" y="540"/>
      <point x="60" y="468"/>
      <point x="60" y="369" type="curve" smooth="yes"/>
      <point x="60" y="286"/>
      <point x="118" y="226"/>
      <point x="195" y="205" type="curve"/>
      <point x="85" y="170"/>
      <point x="63" y="118"/>
      <point x="63" y="86" type="curve" smooth="yes"/>
      <point x="63" y="53"/>
      <point x="86" y="24"/>
      <point x="131" y="4" type="curve"/>
      <point x="40" y="-35"/>
      <point x="7" y="-76"/>
      <point x="7" y="-129" type="curve" smooth="yes"/>
      <point x="7" y="-173"/>
      <point x="30" y="-204"/>
      <point x="65" y="-225" type="curve" smooth="yes"/>
      <point x="109" y="-251"/>
      <point x="172" y="-260"/>
    </contour>
    <contour>
      <point x="261" y="-29" type="curve" smooth="yes"/>
      <point x="378" y="-52"/>
      <point x="412" y="-73"/>
      <point x="412" y="-120" type="curve" smooth="yes"/>
      <point x="412" y="-159"/>
      <point x="389" y="-187"/>
      <point x="354" y="-204" type="curve" smooth="yes"/>
      <point x="322" y="-220"/>
      <point x="279" y="-228"/>
      <point x="239" y="-228" type="curve" smooth="yes"/>
      <point x="197" y="-228"/>
      <point x="161" y="-219"/>
      <point x="134" y="-201" type="curve" smooth="yes"/>
      <point x="105" y="-182"/>
      <point x="88" y="-153"/>
      <point x="88" y="-117" type="curve" smooth="yes"/>
      <point x="88" y="-71"/>
      <point x="117" y="-27"/>
      <point x="164" y="-6" type="curve"/>
      <point x="191" y="-14"/>
      <point x="226" y="-22"/>
    </contour>
    <contour>
      <point x="255" y="224" type="curve" smooth="yes"/>
      <point x="179" y="224"/>
      <point x="163" y="307"/>
      <point x="163" y="361" type="curve" smooth="yes"/>
      <point x="163" y="417"/>
      <point x="180" y="512"/>
      <point x="260" y="512" type="curve" smooth="yes"/>
      <point x="337" y="512"/>
      <point x="352" y="425"/>
      <point x="352" y="371" type="curve" smooth="yes"/>
      <point x="352" y="306"/>
      <point x="331" y="224"/>
    </contour>
    <contour>
      <point x="259" y="651" type="move" name="top"/>
    </contour>
  </outline>
</glyph>
<glyph name="h" format="1">
  <advance width="619"/>
  <unicode hex="0068"/>
  <outline>
    <contour>
      <point x="194" y="35" type="line"/>
      <point x="194" y="830" type="line"/>
      <point x="184" y="830" type="line"/>
      <point x="25" y="782" type="line"/>
      <point x="25" y="768" type="line"/>
      <point x="99" y="741" type="line"/>
      <point x="99" y="35" type="line"/>
      <point x="23" y="20" type="line"/>
      <point x="23" y="0" type="line"/>
      <point x="269" y="0" type="line"/>
      <point x="269" y="20" type="line"/>
    </contour>
    <contour>
      <point x="185" y="410" type="line"/>
      <point x="225" y="458"/>
      <point x="279" y="485"/>
      <point x="338" y="485" type="curve" smooth="yes"/>
      <point x="378" y="485"/>
      <point x="403" y="470"/>
      <point x="416" y="439" type="curve" smooth="yes"/>
      <point x="425" y="417"/>
      <point x="428" y="385"/>
      <point x="428" y="328" type="curve" smooth="yes"/>
      <point x="428" y="34" type="line"/>
      <point x="353" y="20" type="line"/>
      <point x="353" y="0" type="line"/>
      <point x="598" y="0" type="line"/>
      <point x="598" y="20" type="line"/>
      <point x="523" y="34" type="line"/>
      <point x="523" y="338" type="line" smooth="yes"/>
      <point x="523" y="434"/>
      <point x="521" y="459"/>
      <point x="510" y="480" type="curve" smooth="yes"/>
      <point x="491" y="517"/>
      <point x="447" y="540"/>
      <point x="394" y="540" type="curve" smooth="yes"/>
      <point x="324" y="540"/>
      <point x="248" y="507"/>
      <point x="185" y="449" type="curve"/>
    </contour>
    <contour>
      <point x="389" y="651" type="move" name="top"/>
    </contour>
    <contour>
      <point x="313" y="0" type="move" name="bottom"/>
    </contour>
  </outline>
</glyph>
<glyph name="i" format="1">
  <advance width="300"/>
  <unicode hex="0069"/>
  <outline>
    <contour>
      <point x="90" y="715" type="curve" smooth="yes"/>
      <point x="90" y="680"/>
      <point x="115" y="651"/>
      <point x="154" y="651" type="curve" smooth="yes"/>
      <point x="194" y="651"/>
      <point x="219" y="680"/>
      <point x="219" y="715" type="curve" smooth="yes"/>
      <point x="219" y="752"/>
      <point x="194" y="780"/>
      <point x="154" y="780" type="curve" smooth="yes"/>
      <point x="115" y="780"/>
      <point x="90" y="752"/>
    </contour>
    <contour>
      <point x="202" y="35" type="line"/>
      <point x="202" y="540" type="line"/>
      <point x="193" y="540" type="line"/>
      <point x="33" y="492" type="line"/>
      <point x="33" y="478" type="line"/>
      <point x="107" y="451" type="line"/>
      <point x="107" y="35" type="line"/>
      <point x="31" y="20" type="line"/>
      <point x="31" y="0" type="line"/>
      <point x="277" y="0" type="line"/>
      <point x="277" y="20" type="line"/>
    </contour>
    <contour>
      <point x="154" y="0" type="move" name="bottom"/>
    </contour>
  </outline>
</glyph>
<glyph name="k" format="1">
  <advance width="591"/>
  <unicode hex="006B"/>
  <outline>
    <contour>
      <point x="221" y="263" type="line"/>
      <point x="437" y="0" type="line"/>
      <point x="612" y="0" type="line"/>
      <point x="612" y="20" type="line"/>
      <point x="528" y="35" type="line"/>
      <point x="281" y="332" type="line"/>
    </contour>
    <contour>
      <point x="191" y="35" type="line"/>
      <point x="191" y="830" type="line"/>
      <point x="181" y="830" type="line"/>
      <point x="26" y="781" type="line"/>
      <point x="26" y="768" type="line"/>
      <point x="99" y="741" type="line"/>
      <point x="99" y="35" type="line"/>
      <point x="23" y="20" type="line"/>
      <point x="23" y="0" type="line"/>
      <point x="266" y="0" type="line"/>
      <point x="266" y="20" type="line"/>
    </contour>
    <contour>
      <point x="305" y="510" type="line"/>
      <point x="364" y="503"/>
      <point x="379" y="498"/>
      <point x="379" y="486" type="curve" smooth="yes"/>
      <point x="379" y="478"/>
      <point x="372" y="466"/>
      <point x="358" y="450" type="curve" smooth="yes"/>
      <point x="163" y="229" type="line"/>
      <point x="169" y="181" type="line"/>
      <point x="403" y="453" type="line" smooth="yes"/>
      <point x="433" y="488"/>
      <point x="448" y="495"/>
      <point x="529" y="510" type="curve"/>
      <point x="529" y="530" type="line"/>
      <point x="305" y="530" type="line"/>
    </contour>
    <contour>
      <point x="326" y="0" type="move" name="bottom"/>
    </contour>
  </outline>
</glyph>
<glyph name="l" format="1">
  <advance width="289"/>
  <unicode hex="006C"/>
  <outline>
    <contour>
      <point x="191" y="34" type="line"/>
      <point x="191" y="830" type="line"/>
      <point x="182" y="830" type="line"/>
      <point x="29" y="781" type="line"/>
      <point x="29" y="768" type="line"/>
      <point x="99" y="742" type="line"/>
      <point x="99" y="34" type="line"/>
      <point x="29" y="19" type="line"/>
      <point x="29" y="0" type="line"/>
      <point x="260" y="0" type="line"/>
      <point x="260" y="19" type="line"/>
    </contour>
    <contour>
      <point x="144" y="857" type="move" name="topcap"/>
    </contour>
    <contour>
      <point x="144" y="0" type="move" name="bottom"/>
    </contour>
  </outline>
</glyph>
<glyph name="m" format="1">
  <advance width="907"/>
  <unicode hex="006D"/>
  <outline>
    <contour>
      <point x="202" y="35" type="line"/>
      <point x="202" y="445" type="line"/>
      <point x="198" y="450" type="line"/>
      <point x="198" y="540" type="line"/>
      <point x="188" y="540" type="line"/>
      <point x="33" y="491" type="line"/>
      <point x="33" y="478" type="line"/>
      <point x="107" y="450" type="line"/>
      <point x="107" y="35" type="line"/>
      <point x="31" y="20" type="line"/>
      <point x="31" y="0" type="line"/>
      <point x="277" y="0" type="line"/>
      <point x="277" y="20" type="line"/>
    </contour>
    <contour>
      <point x="192" y="410" type="line"/>
      <point x="227" y="458"/>
      <point x="277" y="485"/>
      <point x="330" y="485" type="curve" smooth="yes"/>
      <point x="365" y="485"/>
      <point x="387" y="470"/>
      <point x="398" y="439" type="curve" smooth="yes"/>
      <point x="404" y="417"/>
      <point x="410" y="385"/>
      <point x="410" y="328" type="curve" smooth="yes"/>
      <point x="410" y="34" type="line"/>
      <point x="335" y="20" type="line"/>
      <point x="335" y="0" type="line"/>
      <point x="580" y="0" type="line"/>
      <point x="580" y="20" type="line"/>
      <point x="505" y="34" type="line"/>
      <point x="505" y="338" type="line" smooth="yes"/>
      <point x="505" y="442"/>
      <point x="500" y="464"/>
      <point x="492" y="480" type="curve" smooth="yes"/>
      <point x="475" y="517"/>
      <point x="434" y="540"/>
      <point x="386" y="540" type="curve" smooth="yes"/>
      <point x="320" y="540"/>
      <point x="250" y="507"/>
      <point x="192" y="449" type="curve"/>
    </contour>
    <contour>
      <point x="495" y="410" type="line"/>
      <point x="530" y="458"/>
      <point x="580" y="485"/>
      <point x="633" y="485" type="curve" smooth="yes"/>
      <point x="668" y="485"/>
      <point x="691" y="470"/>
      <point x="701" y="439" type="curve" smooth="yes"/>
      <point x="708" y="417"/>
      <point x="713" y="385"/>
      <point x="713" y="328" type="curve" smooth="yes"/>
      <point x="713" y="34" type="line"/>
      <point x="638" y="20" type="line"/>
      <point x="638" y="0" type="line"/>
      <point x="883" y="0" type="line"/>
      <point x="883" y="20" type="line"/>
      <point x="808" y="34" type="line"/>
      <point x="808" y="338" type="line" smooth="yes"/>
      <point x="808" y="434"/>
      <point x="805" y="459"/>
      <point x="795" y="480" type="curve" smooth="yes"/>
      <point x="777" y="517"/>
      <point x="737" y="540"/>
      <point x="689" y="540" type="curve" smooth="yes"/>
      <point x="623" y="540"/>
      <point x="553" y="507"/>
      <point x="495" y="449" type="curve"/>
    </contour>
  </outline>
</glyph>
<glyph name="n" format="1">
  <advance width="611"/>
  <unicode hex="006E"/>
  <outline>
    <contour>
      <point x="202" y="35" type="line"/>
      <point x="202" y="445" type="line"/>
      <point x="198" y="450" type="line"/>
      <point x="198" y="540" type="line"/>
      <point x="188" y="540" type="line"/>
      <point x="33" y="491" type="line"/>
      <point x="33" y="478" type="line"/>
      <point x="107" y="450" type="line"/>
      <point x="107" y="35" type="line"/>
      <point x="31" y="20" type="line"/>
      <point x="31" y="0" type="line"/>
      <point x="277" y="0" type="line"/>
      <point x="277" y="20" type="line"/>
    </contour>
    <contour>
      <point x="192" y="410" type="line"/>
      <point x="227" y="458"/>
      <point x="277" y="485"/>
      <point x="330" y="485" type="curve" smooth="yes"/>
      <point x="370" y="485"/>
      <point x="395" y="470"/>
      <point x="408" y="439" type="curve" smooth="yes"/>
      <point x="417" y="417"/>
      <point x="420" y="385"/>
      <point x="420" y="328" type="curve" smooth="yes"/>
      <point x="420" y="34" type="line"/>
      <point x="345" y="20" type="line"/>
      <point x="345" y="0" type="line"/>
      <point x="590" y="0" type="line"/>
      <point x="590" y="20" type="line"/>
      <point x="515" y="34" type="line"/>
      <point x="515" y="338" type="line" smooth="yes"/>
      <point x="515" y="434"/>
      <point x="513" y="459"/>
      <point x="502" y="480" type="curve" smooth="yes"/>
      <point x="483" y="517"/>
      <point x="439" y="540"/>
      <point x="386" y="540" type="curve" smooth="yes"/>
      <point x="320" y="540"/>
      <point x="250" y="507"/>
      <point x="192" y="449" type="curve"/>
    </contour>
    <contour>
      <point x="313" y="651" type="move" name="top"/>
    </contour>
    <contour>
      <point x="311" y="0" type="move" name="bottom"/>
    </contour>
  </outline>
</glyph>
<glyph name="o" format="1">
  <advance width="616"/>
  <unicode hex="006F"/>
  <outline>
    <contour>
      <point x="308" y="540" type="curve" smooth="yes"/>
      <point x="157" y="540"/>
      <point x="45" y="423"/>
      <point x="45" y="265" type="curve" smooth="yes"/>
      <point x="45" y="107"/>
      <point x="157" y="-10"/>
      <point x="308" y="-10" type="curve" smooth="yes"/>
      <point x="459" y="-10"/>
      <point x="571" y="107"/>
      <point x="571" y="265" type="curve" smooth="yes"/>
      <point x="571" y="423"/>
      <point x="459" y="540"/>
    </contour>
    <contour>
      <point x="151" y="265" type="curve" smooth="yes"/>
      <point x="151" y="409"/>
      <point x="210" y="495"/>
      <point x="308" y="495" type="curve" smooth="yes"/>
      <point x="406" y="495"/>
      <point x="465" y="409"/>
      <point x="465" y="266" type="curve" smooth="yes"/>
      <point x="465" y="122"/>
      <point x="405" y="35"/>
      <point x="307" y="35" type="curve" smooth="yes"/>
      <point x="210" y="35"/>
      <point x="151" y="121"/>
    </contour>
    <contour>
      <point x="309" y="651" type="move" name="top"/>
    </contour>
    <contour>
      <point x="309" y="-2" type="move" name="bottom"/>
    </contour>
  </outline>
</glyph>
<glyph name="p" format="1">
  <advance width="615"/>
  <unicode hex="0070"/>
  <outline>
    <contour>
      <point x="193" y="5" type="line"/>
      <point x="226" y="-6"/>
      <point x="258" y="-10"/>
      <point x="290" y="-10" type="curve" smooth="yes"/>
      <point x="455" y="-10"/>
      <point x="568" y="106"/>
      <point x="568" y="273" type="curve" smooth="yes"/>
      <point x="568" y="427"/>
      <point x="482" y="540"/>
      <point x="357" y="540" type="curve" smooth="yes"/>
      <point x="298" y="540"/>
      <point x="234" y="513"/>
      <point x="194" y="452" type="curve"/>
      <point x="190" y="452" type="line"/>
      <point x="190" y="540" type="line"/>
      <point x="179" y="540" type="line"/>
      <point x="25" y="492" type="line"/>
      <point x="25" y="478" type="line"/>
      <point x="98" y="451" type="line"/>
      <point x="98" y="-216" type="line"/>
      <point x="23" y="-231" type="line"/>
      <point x="23" y="-250" type="line"/>
      <point x="292" y="-250" type="line"/>
      <point x="292" y="-231" type="line"/>
      <point x="193" y="-216" type="line"/>
    </contour>
    <contour>
      <point x="294" y="20" type="curve" smooth="yes"/>
      <point x="240" y="20"/>
      <point x="198" y="60"/>
      <point x="198" y="118" type="curve" smooth="yes"/>
      <point x="198" y="417" type="line"/>
      <point x="215" y="450"/>
      <point x="266" y="475"/>
      <point x="307" y="475" type="curve" smooth="yes"/>
      <point x="404" y="475"/>
      <point x="464" y="392"/>
      <point x="464" y="257" type="curve" smooth="yes"/>
      <point x="464" y="117"/>
      <point x="396" y="20"/>
    </contour>
  </outline>
</glyph>
<glyph name="q" format="1">
  <advance width="602"/>
  <unicode hex="0071"/>
  <outline>
    <contour>
      <point x="321" y="-231" type="line"/>
      <point x="321" y="-250" type="line"/>
      <point x="590" y="-250" type="line"/>
      <point x="590" y="-231" type="line"/>
      <point x="515" y="-216" type="line"/>
      <point x="515" y="528" type="line"/>
      <point x="499" y="528" type="line"/>
      <point x="454" y="494" type="line"/>
      <point x="449" y="494" type="line"/>
      <point x="409" y="524"/>
      <point x="361" y="540"/>
      <point x="311" y="540" type="curve" smooth="yes"/>
      <point x="153" y="540"/>
      <point x="47" y="426"/>
      <point x="47" y="243" type="curve" smooth="yes"/>
      <point x="47" y="93"/>
      <point x="137" y="-10"/>
      <point x="268" y="-10" type="curve" smooth="yes"/>
      <point x="327" y="-10"/>
      <point x="378" y="13"/>
      <point x="420" y="58" type="curve"/>
      <point x="420" y="-216" type="line"/>
    </contour>
    <contour>
      <point x="311" y="508" type="curve" smooth="yes"/>
      <point x="377" y="508"/>
      <point x="420" y="458"/>
      <point x="420" y="382" type="curve" smooth="yes"/>
      <point x="420" y="96" type="line"/>
      <point x="394" y="64"/>
      <point x="355" y="44"/>
      <point x="310" y="44" type="curve" smooth="yes"/>
      <point x="213" y="44"/>
      <point x="154" y="130"/>
      <point x="154" y="271" type="curve" smooth="yes"/>
      <point x="154" y="429"/>
      <point x="218" y="508"/>
    </contour>
  </outline>
</glyph>
<glyph name="s" format="1">
  <advance width="435"/>
  <unicode hex="0073"/>
  <outline>
    <contour>
      <point x="244" y="540" type="curve" smooth="yes"/>
      <point x="125" y="540"/>
      <point x="58" y="487"/>
      <point x="58" y="394" type="curve" smooth="yes"/>
      <point x="58" y="215"/>
      <point x="309" y="252"/>
      <point x="309" y="112" type="curve" smooth="yes"/>
      <point x="309" y="56"/>
      <point x="270" y="20"/>
      <point x="210" y="20" type="curve" smooth="yes"/>
      <point x="134" y="20"/>
      <point x="91" y="73"/>
      <point x="82" y="174" type="curve"/>
      <point x="58" y="174" type="line"/>
      <point x="64" y="12" type="line"/>
      <point x="103" y="-1"/>
      <point x="160" y="-10"/>
      <point x="202" y="-10" type="curve" smooth="yes"/>
      <point x="315" y="-10"/>
      <point x="386" y="53"/>
      <point x="386" y="152" type="curve" smooth="yes"/>
      <point x="386" y="339"/>
      <point x="137" y="297"/>
      <point x="137" y="429" type="curve" smooth="yes"/>
      <point x="137" y="479"/>
      <point x="171" y="510"/>
      <point x="224" y="510" type="curve" smooth="yes"/>
      <point x="292" y="510"/>
      <point x="331" y="467"/>
      <point x="341" y="384" type="curve"/>
      <point x="362" y="384" type="line"/>
      <point x="362" y="523" type="line"/>
      <point x="337" y="533"/>
      <point x="289" y="540"/>
    </contour>
    <contour>
      <point x="229" y="651" type="move" name="top"/>
    </contour>
    <contour>
      <point x="204" y="0" type="move" name="bottom"/>
    </contour>
  </outline>
</glyph>
<glyph name="u" format="1">
  <advance width="598"/>
  <unicode hex="0075"/>
  <outline>
    <contour>
      <point x="404" y="117" type="line"/>
      <point x="368" y="70"/>
      <point x="321" y="44"/>
      <point x="274" y="44" type="curve" smooth="yes"/>
      <point x="240" y="44"/>
      <point x="214" y="58"/>
      <point x="204" y="81" type="curve" smooth="yes"/>
      <point x="195" y="101"/>
      <point x="192" y="131"/>
      <point x="192" y="193" type="curve" smooth="yes"/>
      <point x="192" y="530" type="line"/>
      <point x="22" y="530" type="line"/>
      <point x="22" y="510" type="line"/>
      <point x="97" y="495" type="line"/>
      <point x="97" y="193" type="line" smooth="yes"/>
      <point x="97" y="101"/>
      <point x="100" y="75"/>
      <point x="111" y="51" type="curve" smooth="yes"/>
      <point x="130" y="12"/>
      <point x="171" y="-10"/>
      <point x="225" y="-10" type="curve" smooth="yes"/>
      <point x="292" y="-10"/>
      <point x="356" y="23"/>
      <point x="404" y="82" type="curve"/>
    </contour>
    <contour>
      <point x="402" y="495" type="line"/>
      <point x="402" y="90" type="line"/>
      <point x="404" y="82" type="line"/>
      <point x="408" y="81" type="line"/>
      <point x="408" y="-10" type="line"/>
      <point x="415" y="-10" type="line"/>
      <point x="565" y="39" type="line"/>
      <point x="565" y="51" type="line"/>
      <point x="497" y="75" type="line"/>
      <point x="497" y="530" type="line"/>
      <point x="327" y="530" type="line"/>
      <point x="327" y="510" type="line"/>
    </contour>
    <contour>
      <point x="295" y="651" type="move" name="top"/>
    </contour>
    <contour>
      <point x="424" y="0" type="move" name="bottom"/>
    </contour>
  </outline>
</glyph>
<glyph name="asciitilde" format="1">
  <advance width="588"/>
  <unicode hex="007E"/>
  <outline>
    <contour>
      <point x="80" y="223" type="line"/>
      <point x="80" y="275"/>
      <point x="106" y="359"/>
      <point x="198" y="359" type="curve" smooth="yes"/>
      <point x="270" y="359"/>
      <point x="338" y="307"/>
      <point x="412" y="307" type="curve" smooth="yes"/>
      <point x="457" y="307"/>
      <point x="471" y="328"/>
      <point x="480" y="359" type="curve"/>
      <point x="510" y="359" type="line"/>
      <point x="510" y="307"/>
      <point x="484" y="223"/>
      <point x="392" y="223" type="curve" smooth="yes"/>
      <point x="321" y="223"/>
      <point x="251" y="276"/>
      <point x="178" y="276" type="curve" smooth="yes"/>
      <point x="133" y="276"/>
      <point x="119" y="254"/>
      <point x="110" y="223" type="curve"/>
    </contour>
  </outline>
</glyph>
<glyph name="exclamdown" format="1">
  <advance width="273"/>
  <unicode hex="00A1"/>
  <outline>
    <contour>
      <point x="121" y="300" type="line"/>
      <point x="115" y="193"/>
      <point x="105" y="92"/>
      <point x="96" y="10" type="curve" smooth="yes"/>
      <point x="85" y="-86"/>
      <point x="76" y="-158"/>
      <point x="76" y="-184" type="curve" smooth="yes"/>
      <point x="76" y="-220"/>
      <point x="93" y="-250"/>
      <point x="136" y="-250" type="curve" smooth="yes"/>
      <point x="175" y="-250"/>
      <point x="197" y="-220"/>
      <point x="197" y="-181" type="curve" smooth="yes"/>
      <point x="197" y="-156"/>
      <point x="188" y="-84"/>
      <point x="177" y="14" type="curve" smooth="yes"/>
      <point x="168" y="95"/>
      <point x="159" y="194"/>
      <point x="152" y="300" type="curve"/>
    </contour>
    <contour>
      <point x="201" y="476" type="curve" smooth="yes"/>
      <point x="201" y="511"/>
      <point x="176" y="540"/>
      <point x="137" y="540" type="curve" smooth="yes"/>
      <point x="96" y="540"/>
      <point x="71" y="511"/>
      <point x="71" y="476" type="curve" smooth="yes"/>
      <point x="71" y="438"/>
      <point x="96" y="410"/>
      <point x="137" y="410" type="curve" smooth="yes"/>
      <point x="176" y="410"/>
      <point x="201" y="438"/>
    </contour>
  </outline>
</glyph>
<glyph name="sterling" format="1">
  <advance width="678"/>
  <unicode hex="00A3"/>
  <outline>
    <contour>
      <point x="130" y="322" type="line"/>
      <point x="130" y="366" type="line"/>
      <point x="249" y="366" type="line"/>
      <point x="273" y="483" type="line" smooth="yes"/>
      <point x="313" y="682"/>
      <point x="385" y="775"/>
      <point x="498" y="775" type="curve" smooth="yes"/>
      <point x="569" y="775"/>
      <point x="620" y="743"/>
      <point x="620" y="699" type="curve" smooth="yes"/>
      <point x="620" y="666"/>
      <point x="594" y="641"/>
      <point x="562" y="641" type="curve" smooth="yes"/>
      <point x="500" y="641"/>
      <point x="511" y="727"/>
      <point x="464" y="727" type="curve" smooth="yes"/>
      <point x="434" y="727"/>
      <point x="420" y="676"/>
      <point x="379" y="430" type="curve" smooth="yes"/>
      <point x="368" y="366" type="line"/>
      <point x="548" y="366" type="line"/>
      <point x="548" y="322" type="line"/>
      <point x="359" y="322" type="line"/>
      <point x="340" y="238"/>
      <point x="319" y="173"/>
      <point x="292" y="116" type="curve"/>
      <point x="333" y="97"/>
      <point x="379" y="87"/>
      <point x="430" y="87" type="curve" smooth="yes"/>
      <point x="510" y="87"/>
      <point x="556" y="112"/>
      <point x="571" y="163" type="curve"/>
      <point x="606" y="163" type="line"/>
      <point x="606" y="52"/>
      <point x="548" y="-10"/>
      <point x="445" y="-10" type="curve" smooth="yes"/>
      <point x="384" y="-10"/>
      <point x="338" y="9"/>
      <point x="263" y="67" type="curve"/>
      <point x="221" y="18"/>
      <point x="171" y="-9"/>
      <point x="120" y="-9" type="curve" smooth="yes"/>
      <point x="66" y="-9"/>
      <point x="32" y="18"/>
      <point x="32" y="61" type="curve" smooth="yes"/>
      <point x="32" y="112"/>
      <point x="77" y="148"/>
      <point x="141" y="148" type="curve" smooth="yes"/>
      <point x="159" y="148"/>
      <point x="180" y="145"/>
      <point x="203" y="139" type="curve"/>
      <point x="216" y="189"/>
      <point x="228" y="247"/>
      <point x="240" y="322" type="curve"/>
    </contour>
    <contour>
      <point x="191" y="94" type="curve"/>
      <point x="174" y="102"/>
      <point x="159" y="106"/>
      <point x="141" y="106" type="curve" smooth="yes"/>
      <point x="104" y="106"/>
      <point x="82" y="91"/>
      <point x="82" y="65" type="curve" smooth="yes"/>
      <point x="82" y="45"/>
      <point x="96" y="33"/>
      <point x="117" y="33" type="curve" smooth="yes"/>
      <point x="147" y="33"/>
      <point x="176" y="57"/>
    </contour>
  </outline>
</glyph>
<glyph name="yen" format="1">
  <advance width="650"/>
  <unicode hex="00A5"/>
  <outline>
    <contour>
      <point x="310" y="243" type="line"/>
      <point x="341" y="243" type="line"/>
      <point x="503" y="636" type="line" smooth="yes"/>
      <point x="539" y="722"/>
      <point x="554" y="735"/>
      <point x="618" y="747" type="curve"/>
      <point x="618" y="770" type="line"/>
      <point x="396" y="770" type="line"/>
      <point x="396" y="747" type="line"/>
      <point x="456" y="740"/>
      <point x="478" y="726"/>
      <point x="478" y="700" type="curve" smooth="yes"/>
      <point x="478" y="692"/>
      <point x="476" y="682"/>
      <point x="472" y="671" type="curve" smooth="yes"/>
      <point x="363" y="405" type="line"/>
      <point x="359" y="405" type="line"/>
      <point x="250" y="670" type="line" smooth="yes"/>
      <point x="244" y="684"/>
      <point x="241" y="695"/>
      <point x="241" y="705" type="curve" smooth="yes"/>
      <point x="241" y="728"/>
      <point x="261" y="738"/>
      <point x="312" y="747" type="curve"/>
      <point x="312" y="770" type="line"/>
      <point x="34" y="770" type="line"/>
      <point x="34" y="747" type="line"/>
      <point x="84" y="742"/>
      <point x="98" y="733"/>
      <point x="119" y="686" type="curve" smooth="yes"/>
    </contour>
    <contour>
      <point x="182" y="0" type="line"/>
      <point x="466" y="0" type="line"/>
      <point x="466" y="23" type="line"/>
      <point x="377" y="42" type="line"/>
      <point x="377" y="344" type="line"/>
      <point x="272" y="344" type="line"/>
      <point x="272" y="42" type="line"/>
      <point x="182" y="23" type="line"/>
    </contour>
    <contour>
      <point x="105" y="209" type="line"/>
      <point x="536" y="209" type="line"/>
      <point x="536" y="253" type="line"/>
      <point x="105" y="253" type="line"/>
    </contour>
    <contour>
      <point x="105" y="330" type="line"/>
      <point x="536" y="330" type="line"/>
      <point x="536" y="374" type="line"/>
      <point x="105" y="374" type="line"/>
    </contour>
  </outline>
</glyph>
<glyph name="section" format="1">
  <advance width="540"/>
  <unicode hex="00A7"/>
  <outline>
    <contour>
      <point x="286" y="830" type="curve" smooth="yes"/>
      <point x="151" y="830"/>
      <point x="69" y="764"/>
      <point x="69" y="656" type="curve" smooth="yes"/>
      <point x="69" y="567"/>
      <point x="124" y="521"/>
      <point x="189" y="487" type="curve"/>
      <point x="111" y="461"/>
      <point x="64" y="402"/>
      <point x="64" y="325" type="curve" smooth="yes"/>
      <point x="64" y="118"/>
      <point x="395" y="168"/>
      <point x="395" y="-15" type="curve" smooth="yes"/>
      <point x="395" y="-84"/>
      <point x="347" y="-126"/>
      <point x="268" y="-126" type="curve" smooth="yes"/>
      <point x="201" y="-126"/>
      <point x="185" y="-97"/>
      <point x="169" y="-56" type="curve" smooth="yes"/>
      <point x="153" y="-13"/>
      <point x="143" y="7"/>
      <point x="114" y="7" type="curve" smooth="yes"/>
      <point x="83" y="7"/>
      <point x="64" y="-15"/>
      <point x="64" y="-47" type="curve" smooth="yes"/>
      <point x="64" y="-112"/>
      <point x="142" y="-158"/>
      <point x="252" y="-158" type="curve" smooth="yes"/>
      <point x="389" y="-158"/>
      <point x="472" y="-87"/>
      <point x="472" y="28" type="curve" smooth="yes"/>
      <point x="472" y="109"/>
      <point x="430" y="155"/>
      <point x="377" y="188" type="curve"/>
      <point x="439" y="220"/>
      <point x="477" y="280"/>
      <point x="477" y="354" type="curve" smooth="yes"/>
      <point x="477" y="572"/>
      <point x="148" y="521"/>
      <point x="148" y="694" type="curve" smooth="yes"/>
      <point x="148" y="760"/>
      <point x="195" y="798"/>
      <point x="276" y="798" type="curve" smooth="yes"/>
      <point x="327" y="798"/>
      <point x="347" y="783"/>
      <point x="365" y="738" type="curve" smooth="yes"/>
      <point x="381" y="698"/>
      <point x="391" y="675"/>
      <point x="421" y="675" type="curve" smooth="yes"/>
      <point x="451" y="675"/>
      <point x="471" y="697"/>
      <point x="471" y="728" type="curve" smooth="yes"/>
      <point x="471" y="788"/>
      <point x="394" y="830"/>
    </contour>
    <contour>
      <point x="400" y="313" type="curve" smooth="yes"/>
      <point x="400" y="268"/>
      <point x="375" y="230"/>
      <point x="337" y="209" type="curve"/>
      <point x="246" y="251"/>
      <point x="143" y="273"/>
      <point x="143" y="361" type="curve" smooth="yes"/>
      <point x="143" y="411"/>
      <point x="178" y="453"/>
      <point x="230" y="467" type="curve"/>
      <point x="318" y="428"/>
      <point x="400" y="392"/>
    </contour>
  </outline>
</glyph>
<glyph name="copyright" format="1">
  <advance width="902"/>
  <unicode hex="00A9"/>
  <outline>
    <contour>
      <point x="54" y="385" type="curve" smooth="yes"/>
      <point x="54" y="168"/>
      <point x="232" y="-10"/>
      <point x="451" y="-10" type="curve" smooth="yes"/>
      <point x="670" y="-10"/>
      <point x="848" y="168"/>
      <point x="848" y="385" type="curve" smooth="yes"/>
      <point x="848" y="602"/>
      <point x="670" y="780"/>
      <point x="451" y="780" type="curve" smooth="yes"/>
      <point x="232" y="780"/>
      <point x="54" y="602"/>
    </contour>
    <contour>
      <point x="106" y="385" type="curve" smooth="yes"/>
      <point x="106" y="576"/>
      <point x="258" y="735"/>
      <point x="451" y="735" type="curve" smooth="yes"/>
      <point x="644" y="735"/>
      <point x="795" y="576"/>
      <point x="795" y="385" type="curve" smooth="yes"/>
      <point x="795" y="194"/>
      <point x="644" y="35"/>
      <point x="451" y="35" type="curve" smooth="yes"/>
      <point x="258" y="35"/>
      <point x="106" y="194"/>
    </contour>
    <contour>
      <point x="230" y="385" type="curve" smooth="yes"/>
      <point x="230" y="253"/>
      <point x="320" y="161"/>
      <point x="447" y="161" type="curve" smooth="yes"/>
      <point x="498" y="161"/>
      <point x="534" y="176"/>
      <point x="573" y="208" type="curve"/>
      <point x="599" y="162" type="line"/>
      <point x="613" y="162" type="line"/>
      <point x="613" y="323" type="line"/>
      <point x="593" y="323" type="line"/>
      <point x="587" y="292"/>
      <point x="576" y="267"/>
      <point x="563" y="248" type="curve" smooth="yes"/>
      <point x="538" y="212"/>
      <point x="504" y="195"/>
      <point x="462" y="195" type="curve" smooth="yes"/>
      <point x="375" y="195"/>
      <point x="325" y="266"/>
      <point x="325" y="391" type="curve" smooth="yes"/>
      <point x="325" y="513"/>
      <point x="372" y="582"/>
      <point x="464" y="582" type="curve" smooth="yes"/>
      <point x="511" y="582"/>
      <point x="544" y="564"/>
      <point x="569" y="522" type="curve" smooth="yes"/>
      <point x="578" y="507"/>
      <point x="584" y="494"/>
      <point x="591" y="472" type="curve"/>
      <point x="613" y="472" type="line"/>
      <point x="613" y="615" type="line"/>
      <point x="599" y="615" type="line"/>
      <point x="575" y="577" type="line"/>
      <point x="571" y="577" type="line"/>
      <point x="536" y="603"/>
      <point x="495" y="617"/>
      <point x="448" y="617" type="curve" smooth="yes"/>
      <point x="323" y="617"/>
      <point x="230" y="520"/>
    </contour>
  </outline>
</glyph>
<glyph name="logicalnot" format="1">
  <advance width="572"/>
  <unicode hex="00AC"/>
  <outline>
    <contour>
      <point x="494" y="264" type="line" name="hr00"/>
      <point x="494" y="308" type="line"/>
      <point x="84" y="308" type="line"/>
      <point x="84" y="264" type="line"/>
    </contour>
    <contour>
      <point x="443" y="147" type="line"/>
      <point x="494" y="147" type="line"/>
      <point x="494" y="292" type="line"/>
      <point x="443" y="292" type="line"/>
    </contour>
  </outline>
</glyph>
<glyph name="acute" format="1">
  <advance width="170"/>
  <unicode hex="00B4"/>
  <outline>
    <contour>
      <point x="10" y="642" type="line"/>
      <point x="66" y="812" type="line" smooth="yes"/>
      <point x="76" y="841"/>
      <point x="92" y="859"/>
      <point x="121" y="859" type="curve" smooth="yes"/>
      <point x="142" y="859"/>
      <point x="160" y="841"/>
      <point x="160" y="816" type="curve" smooth="yes"/>
      <point x="160" y="799"/>
      <point x="152" y="782"/>
      <point x="130" y="755" type="curve" smooth="yes"/>
      <point x="31" y="631" type="line"/>
    </contour>
    <contour>
      <point x="81" y="651" type="move" name="_top"/>
    </contour>
  </outline>
</glyph>
<glyph name="periodcentered" format="1">
  <advance width="282"/>
  <unicode hex="00B7"/>
  <outline>
    <contour>
      <point x="72" y="287" type="curve" smooth="yes"/>
      <point x="72" y="250"/>
      <point x="99" y="219"/>
      <point x="140" y="219" type="curve" smooth="yes"/>
      <point x="183" y="219"/>
      <point x="210" y="250"/>
      <point x="210" y="287" type="curve" smooth="yes"/>
      <point x="210" y="327"/>
      <point x="183" y="357"/>
      <point x="140" y="357" type="curve" smooth="yes"/>
      <point x="99" y="357"/>
      <point x="72" y="327"/>
    </contour>
  </outline>
</glyph>
<glyph name="ordmasculine" format="1">
  <advance width="442"/>
  <unicode hex="00BA"/>
  <outline>
    <contour>
      <point x="221" y="780" type="curve" smooth="yes"/>
      <point x="123" y="780"/>
      <point x="50" y="704"/>
      <point x="50" y="601" type="curve" smooth="yes"/>
      <point x="50" y="498"/>
      <point x="123" y="422"/>
      <point x="221" y="422" type="curve" smooth="yes"/>
      <point x="319" y="422"/>
      <point x="392" y="498"/>
      <point x="392" y="601" type="curve" smooth="yes"/>
      <point x="392" y="704"/>
      <point x="319" y="780"/>
    </contour>
    <contour>
      <point x="129" y="601" type="curve" smooth="yes"/>
      <point x="129" y="692"/>
      <point x="163" y="745"/>
      <point x="221" y="745" type="curve" smooth="yes"/>
      <point x="279" y="745"/>
      <point x="313" y="692"/>
      <point x="313" y="602" type="curve" smooth="yes"/>
      <point x="313" y="511"/>
      <point x="278" y="456"/>
      <point x="220" y="456" type="curve" smooth="yes"/>
      <point x="163" y="456"/>
      <point x="129" y="510"/>
    </contour>
  </outline>
</glyph>
<glyph name="guillemotright" format="1">
  <advance width="436"/>
  <unicode hex="00BB"/>
  <outline>
    <contour>
      <point x="227" y="61" type="line"/>
      <point x="295" y="246" type="line"/>
      <point x="229" y="431" type="line"/>
      <point x="241" y="436" type="line"/>
      <point x="378" y="255" type="line"/>
      <point x="378" y="236" type="line"/>
      <point x="239" y="53" type="line"/>
    </contour>
    <contour>
      <point x="71" y="61" type="line"/>
      <point x="139" y="246" type="line"/>
      <point x="73" y="431" type="line"/>
      <point x="85" y="436" type="line"/>
      <point x="222" y="255" type="line"/>
      <point x="222" y="236" type="line"/>
      <point x="83" y="53" type="line"/>
    </contour>
  </outline>
</glyph>
<glyph name="AE" format="1">
  <advance width="1029"/>
  <unicode hex="00C6"/>
  <outline>
    <contour>
      <point x="-22" y="0" type="line"/>
      <point x="258" y="0" type="line"/>
      <point x="258" y="23" type="line"/>
      <point x="196" y="33"/>
      <point x="169" y="44"/>
      <point x="169" y="72" type="curve" smooth="yes"/>
      <point x="169" y="87"/>
      <point x="176" y="106"/>
      <point x="190" y="132" type="curve" smooth="yes"/>
      <point x="273" y="292" type="line"/>
      <point x="471" y="292" type="line"/>
      <point x="471" y="42" type="line"/>
      <point x="386" y="23" type="line"/>
      <point x="386" y="0" type="line"/>
      <point x="938" y="0" type="line"/>
      <point x="975" y="234" type="line"/>
      <point x="942" y="234" type="line"/>
      <point x="920" y="169"/>
      <point x="898" y="105"/>
      <point x="858" y="40" type="curve"/>
      <point x="576" y="40" type="line"/>
      <point x="576" y="367" type="line"/>
      <point x="755" y="367" type="line"/>
      <point x="774" y="327"/>
      <point x="786" y="287"/>
      <point x="792" y="247" type="curve"/>
      <point x="816" y="247" type="line"/>
      <point x="816" y="527" type="line"/>
      <point x="792" y="527" type="line"/>
      <point x="785" y="487"/>
      <point x="774" y="447"/>
      <point x="755" y="407" type="curve"/>
      <point x="576" y="407" type="line"/>
      <point x="576" y="730" type="line"/>
      <point x="863" y="730" type="line"/>
      <point x="896" y="673"/>
      <point x="919" y="607"/>
      <point x="935" y="550" type="curve"/>
      <point x="959" y="550" type="line"/>
      <point x="942" y="770" type="line"/>
      <point x="376" y="770" type="line"/>
      <point x="376" y="747" type="line"/>
      <point x="461" y="730" type="line"/>
      <point x="147" y="134" type="line" smooth="yes"/>
      <point x="109" y="62"/>
      <point x="86" y="39"/>
      <point x="-22" y="23" type="curve"/>
    </contour>
    <contour>
      <point x="294" y="332" type="line"/>
      <point x="466" y="667" type="line"/>
      <point x="470" y="667" type="line"/>
      <point x="470" y="332" type="line"/>
    </contour>
  </outline>
</glyph>
<glyph name="Oslash" format="1">
  <advance width="837"/>
  <unicode hex="00D8"/>
  <outline>
    <contour>
      <point x="419" y="-10" type="curve" smooth="yes"/>
      <point x="626" y="-10"/>
      <point x="782" y="160"/>
      <point x="782" y="385" type="curve" smooth="yes"/>
      <point x="782" y="495"/>
      <point x="744" y="592"/>
      <point x="681" y="662" type="curve"/>
      <point x="774" y="770" type="line"/>
      <point x="718" y="770" type="line"/>
      <point x="651" y="692" type="line"/>
      <point x="589" y="747"/>
      <point x="509" y="780"/>
      <point x="419" y="780" type="curve" smooth="yes"/>
      <point x="212" y="780"/>
      <point x="56" y="610"/>
      <point x="56" y="385" type="curve" smooth="yes"/>
      <point x="56" y="277"/>
      <point x="92" y="181"/>
      <point x="152" y="111" type="curve"/>
      <point x="57" y="0" type="line"/>
      <point x="112" y="0" type="line"/>
      <point x="182" y="81" type="line"/>
      <point x="244" y="24"/>
      <point x="326" y="-10"/>
    </contour>
    <contour>
      <point x="215" y="185" type="line"/>
      <point x="193" y="239"/>
      <point x="182" y="307"/>
      <point x="182" y="386" type="curve" smooth="yes"/>
      <point x="182" y="605"/>
      <point x="271" y="735"/>
      <point x="420" y="735" type="curve" smooth="yes"/>
      <point x="498" y="735"/>
      <point x="559" y="699"/>
      <point x="600" y="633" type="curve"/>
    </contour>
    <contour>
      <point x="419" y="35" type="curve" smooth="yes"/>
      <point x="339" y="35"/>
      <point x="276" y="74"/>
      <point x="235" y="144" type="curve"/>
      <point x="621" y="592" type="line"/>
      <point x="644" y="537"/>
      <point x="656" y="469"/>
      <point x="656" y="388" type="curve" smooth="yes"/>
      <point x="656" y="167"/>
      <point x="567" y="35"/>
    </contour>
  </outline>
</glyph>
<glyph name="ae" format="1">
  <advance width="836"/>
  <unicode hex="00E6"/>
  <outline>
    <contour>
      <point x="170" y="-10" type="curve" smooth="yes"/>
      <point x="232" y="-10"/>
      <point x="306" y="34"/>
      <point x="354" y="108" type="curve"/>
      <point x="358" y="108" type="line"/>
      <point x="398" y="34"/>
      <point x="471" y="-10"/>
      <point x="563" y="-10" type="curve" smooth="yes"/>
      <point x="661" y="-10"/>
      <point x="743" y="40"/>
      <point x="778" y="121" type="curve" smooth="yes"/>
      <point x="784" y="135" type="line"/>
      <point x="767" y="145" type="line"/>
      <point x="755" y="130" type="line" smooth="yes"/>
      <point x="721" y="88"/>
      <point x="660" y="63"/>
      <point x="595" y="63" type="curve" smooth="yes"/>
      <point x="476" y="63"/>
      <point x="423" y="139"/>
      <point x="423" y="308" type="curve"/>
      <point x="788" y="308" type="line"/>
      <point x="795" y="314" type="line"/>
      <point x="792" y="462"/>
      <point x="721" y="540"/>
      <point x="590" y="540" type="curve" smooth="yes"/>
      <point x="517" y="540"/>
      <point x="456" y="516"/>
      <point x="410" y="474" type="curve"/>
      <point x="393" y="521"/>
      <point x="346" y="540"/>
      <point x="289" y="540" type="curve" smooth="yes"/>
      <point x="246" y="540"/>
      <point x="201" y="529"/>
      <point x="162" y="509" type="curve" smooth="yes"/>
      <point x="97" y="476"/>
      <point x="54" y="425"/>
      <point x="54" y="381" type="curve" smooth="yes"/>
      <point x="54" y="352"/>
      <point x="73" y="333"/>
      <point x="100" y="333" type="curve" smooth="yes"/>
      <point x="130" y="333"/>
      <point x="152" y="357"/>
      <point x="152" y="391" type="curve" smooth="yes"/>
      <point x="152" y="402"/>
      <point x="150" y="415"/>
      <point x="150" y="426" type="curve" smooth="yes"/>
      <point x="150" y="473"/>
      <point x="186" y="502"/>
      <point x="243" y="502" type="curve" smooth="yes"/>
      <point x="301" y="502"/>
      <point x="323" y="471"/>
      <point x="323" y="387" type="curve" smooth="yes"/>
      <point x="323" y="289" type="line"/>
      <point x="121" y="246"/>
      <point x="49" y="199"/>
      <point x="49" y="111" type="curve" smooth="yes"/>
      <point x="49" y="40"/>
      <point x="99" y="-10"/>
    </contour>
    <contour>
      <point x="581" y="509" type="curve" smooth="yes"/>
      <point x="653" y="509"/>
      <point x="690" y="467"/>
      <point x="690" y="385" type="curve" smooth="yes"/>
      <point x="690" y="369"/>
      <point x="689" y="352"/>
      <point x="687" y="345" type="curve"/>
      <point x="425" y="336" type="line"/>
      <point x="438" y="447"/>
      <point x="493" y="509"/>
    </contour>
    <contour>
      <point x="212" y="49" type="curve" smooth="yes"/>
      <point x="165" y="49"/>
      <point x="138" y="80"/>
      <point x="138" y="133" type="curve" smooth="yes"/>
      <point x="138" y="202"/>
      <point x="182" y="232"/>
      <point x="323" y="260" type="curve"/>
      <point x="323" y="213"/>
      <point x="330" y="173"/>
      <point x="344" y="138" type="curve"/>
      <point x="311" y="85"/>
      <point x="258" y="49"/>
    </contour>
  </outline>
</glyph>
<glyph name="eth" format="1">
  <advance width="590"/>
  <unicode hex="00F0"/>
  <outline>
    <contour>
      <point x="284" y="-10" type="curve" smooth="yes" name="hr00"/>
      <point x="436" y="-10"/>
      <point x="541" y="108"/>
      <point x="541" y="279" type="curve" smooth="yes"/>
      <point x="541" y="493"/>
      <point x="384" y="699"/>
      <point x="159" y="780" type="curve"/>
      <point x="141" y="745" type="line"/>
      <point x="268" y="684"/>
      <point x="397" y="528"/>
      <point x="415" y="412" type="curve"/>
      <point x="389" y="441"/>
      <point x="325" y="464"/>
      <point x="270" y="464" type="curve" smooth="yes"/>
      <point x="147" y="464"/>
      <point x="48" y="358"/>
      <point x="48" y="227" type="curve" smooth="yes"/>
      <point x="48" y="90"/>
      <point x="147" y="-10"/>
    </contour>
    <contour>
      <point x="285" y="35" type="curve" smooth="yes"/>
      <point x="213" y="35"/>
      <point x="167" y="103"/>
      <point x="167" y="211" type="curve" smooth="yes"/>
      <point x="167" y="328"/>
      <point x="224" y="407"/>
      <point x="307" y="407" type="curve" smooth="yes"/>
      <point x="349" y="407"/>
      <point x="393" y="386"/>
      <point x="417" y="353" type="curve"/>
      <point x="424" y="323"/>
      <point x="429" y="277"/>
      <point x="429" y="243" type="curve" smooth="yes"/>
      <point x="429" y="123"/>
      <point x="368" y="35"/>
    </contour>
    <contour>
      <point x="442" y="723" type="line"/>
      <point x="412" y="769" type="line"/>
      <point x="155" y="602" type="line"/>
      <point x="184" y="556" type="line"/>
    </contour>
  </outline>
</glyph>
<glyph name="gcommaaccent" format="1">
  <advance width="514"/>
  <unicode hex="0123"/>
  <outline>
    <contour>
      <point x="301" y="853" type="line"/>
      <point x="243" y="819"/>
      <point x="213" y="774"/>
      <point x="213" y="717" type="curve" smooth="yes"/>
      <point x="213" y="681"/>
      <point x="235" y="651"/>
      <point x="267" y="651" type="curve" smooth="yes"/>
      <point x="299" y="651"/>
      <point x="323" y="673"/>
      <point x="323" y="702" type="curve" smooth="yes"/>
      <point x="323" y="749"/>
      <point x="274" y="741"/>
      <point x="274" y="777" type="curve" smooth="yes"/>
      <point x="274" y="790"/>
      <point x="292" y="812"/>
      <point x="317" y="829" type="curve"/>
    </contour>
    <component base="g"/>
  </outline>
</glyph>
<glyph name="hbar" format="1">
  <advance width="619"/>
  <unicode hex="0127"/>
  <outline>
    <contour>
      <point x="332" y="609" type="line"/>
      <point x="332" y="674" type="line"/>
      <point x="25" y="674" type="line"/>
      <point x="25" y="609" type="line"/>
    </contour>
    <component base="h"/>
  </outline>
</glyph>
<glyph name="dotlessi" format="1">
  <advance width="300"/>
  <unicode hex="0131"/>
  <outline>
    <contour>
      <point x="202" y="35" type="line"/>
      <point x="202" y="540" type="line"/>
      <point x="193" y="540" type="line"/>
      <point x="33" y="492" type="line"/>
      <point x="33" y="478" type="line"/>
      <point x="107" y="451" type="line"/>
      <point x="107" y="35" type="line"/>
      <point x="31" y="20" type="line"/>
      <point x="31" y="0" type="line"/>
      <point x="277" y="0" type="line"/>
      <point x="277" y="20" type="line"/>
    </contour>
    <contour>
      <point x="154" y="651" type="move" name="top"/>
    </contour>
  </outline>
</glyph>
<glyph name="kgreenlandic" format="1">
  <advance width="599"/>
  <unicode hex="0138"/>
  <outline>
    <contour>
      <point x="229" y="263" type="line"/>
      <point x="445" y="0" type="line"/>
      <point x="620" y="0" type="line"/>
      <point x="620" y="20" type="line"/>
      <point x="536" y="35" type="line"/>
      <point x="289" y="332" type="line"/>
    </contour>
    <contour>
      <point x="199" y="35" type="line"/>
      <point x="199" y="540" type="line"/>
      <point x="189" y="540" type="line"/>
      <point x="34" y="491" type="line"/>
      <point x="34" y="478" type="line"/>
      <point x="107" y="451" type="line"/>
      <point x="107" y="35" type="line"/>
      <point x="31" y="20" type="line"/>
      <point x="31" y="0" type="line"/>
      <point x="274" y="0" type="line"/>
      <point x="274" y="20" type="line"/>
    </contour>
    <contour>
      <point x="313" y="510" type="line"/>
      <point x="372" y="503"/>
      <point x="387" y="498"/>
      <point x="387" y="486" type="curve" smooth="yes"/>
      <point x="387" y="478"/>
      <point x="380" y="466"/>
      <point x="366" y="450" type="curve" smooth="yes"/>
      <point x="171" y="229" type="line"/>
      <point x="177" y="181" type="line"/>
      <point x="411" y="453" type="line" smooth="yes"/>
      <point x="441" y="488"/>
      <point x="456" y="495"/>
      <point x="537" y="510" type="curve"/>
      <point x="537" y="530" type="line"/>
      <point x="313" y="530" type="line"/>
    </contour>
  </outline>
</glyph>
<glyph name="lacute" format="1">
  <advance width="289"/>
  <unicode hex="013A"/>
  <outline>
    <contour>
      <point x="27" y="837" type="line"/>
      <point x="171" y="944" type="line" smooth="yes"/>
      <point x="186" y="955"/>
      <point x="199" y="960"/>
      <point x="215" y="960" type="curve" smooth="yes"/>
      <point x="237" y="960"/>
      <point x="258" y="942"/>
      <point x="258" y="917" type="curve" smooth="yes"/>
      <point x="258" y="894"/>
      <point x="242" y="875"/>
      <point x="190" y="860" type="curve" smooth="yes"/>
      <point x="38" y="816" type="line"/>
    </contour>
    <contour>
      <point x="191" y="34" type="line"/>
      <point x="191" y="830" type="line"/>
      <point x="182" y="830" type="line"/>
      <point x="29" y="781" type="line"/>
      <point x="29" y="768" type="line"/>
      <point x="99" y="742" type="line"/>
      <point x="99" y="34" type="line"/>
      <point x="29" y="19" type="line"/>
      <point x="29" y="0" type="line"/>
      <point x="260" y="0" type="line"/>
      <point x="260" y="19" type="line"/>
    </contour>
  </outline>
</glyph>
<glyph name="lslash" format="1">
  <advance width="298"/>
  <unicode hex="0142"/>
  <outline>
    <contour>
      <point x="19" y="306" type="line"/>
      <point x="282" y="447" type="line"/>
      <point x="282" y="512" type="line"/>
      <point x="19" y="371" type="line"/>
    </contour>
    <component base="l" xOffset="3"/>
  </outline>
</glyph>
<glyph name="Eng" format="1">
  <advance width="827"/>
  <unicode hex="014A"/>
  <outline>
    <contour>
      <point x="594" y="155" type="line"/>
      <point x="594" y="-48" type="line" smooth="yes"/>
      <point x="594" y="-156"/>
      <point x="558" y="-208"/>
      <point x="512" y="-208" type="curve" smooth="yes"/>
      <point x="486" y="-208"/>
      <point x="465" y="-192"/>
      <point x="451" y="-154" type="curve" smooth="yes"/>
      <point x="440" y="-124"/>
      <point x="424" y="-108"/>
      <point x="396" y="-108" type="curve" smooth="yes"/>
      <point x="360" y="-108"/>
      <point x="337" y="-133"/>
      <point x="337" y="-173" type="curve" smooth="yes"/>
      <point x="337" y="-227"/>
      <point x="383" y="-260"/>
      <point x="457" y="-260" type="curve" smooth="yes"/>
      <point x="539" y="-260"/>
      <point x="618" y="-215"/>
      <point x="665" y="-131" type="curve" smooth="yes"/>
      <point x="694" y="-78"/>
      <point x="699" y="-41"/>
      <point x="699" y="155" type="curve"/>
    </contour>
    <contour>
      <point x="135" y="42" type="line"/>
      <point x="45" y="23" type="line"/>
      <point x="45" y="0" type="line"/>
      <point x="264" y="0" type="line"/>
      <point x="264" y="23" type="line"/>
      <point x="175" y="42" type="line"/>
      <point x="175" y="770" type="line"/>
      <point x="45" y="770" type="line"/>
      <point x="45" y="747" type="line"/>
      <point x="135" y="728" type="line"/>
    </contour>
    <contour>
      <point x="699" y="728" type="line"/>
      <point x="789" y="747" type="line"/>
      <point x="789" y="770" type="line"/>
      <point x="570" y="770" type="line"/>
      <point x="570" y="747" type="line"/>
      <point x="659" y="728" type="line"/>
      <point x="659" y="120" type="line"/>
      <point x="699" y="120" type="line"/>
    </contour>
    <contour>
      <point x="668" y="-20" type="line"/>
      <point x="680" y="175" type="line"/>
      <point x="247" y="770" type="line"/>
      <point x="152" y="770" type="line"/>
      <point x="147" y="706" type="line"/>
    </contour>
  </outline>
</glyph>
<glyph name="eng" format="1">
  <advance width="596"/>
  <unicode hex="014B"/>
  <outline>
    <contour>
      <point x="202" y="35" type="line"/>
      <point x="202" y="445" type="line"/>
      <point x="198" y="450" type="line"/>
      <point x="198" y="540" type="line"/>
      <point x="188" y="540" type="line"/>
      <point x="33" y="491" type="line"/>
      <point x="33" y="478" type="line"/>
      <point x="107" y="450" type="line"/>
      <point x="107" y="35" type="line"/>
      <point x="31" y="20" type="line"/>
      <point x="31" y="0" type="line"/>
      <point x="277" y="0" type="line"/>
      <point x="277" y="20" type="line"/>
    </contour>
    <contour>
      <point x="192" y="410" type="line"/>
      <point x="227" y="458"/>
      <point x="277" y="485"/>
      <point x="330" y="485" type="curve" smooth="yes"/>
      <point x="370" y="485"/>
      <point x="395" y="470"/>
      <point x="408" y="439" type="curve" smooth="yes"/>
      <point x="417" y="417"/>
      <point x="420" y="385"/>
      <point x="420" y="328" type="curve" smooth="yes"/>
      <point x="420" y="135" type="line"/>
      <point x="515" y="135" type="line"/>
      <point x="515" y="338" type="line" smooth="yes"/>
      <point x="515" y="434"/>
      <point x="513" y="459"/>
      <point x="502" y="480" type="curve" smooth="yes"/>
      <point x="483" y="517"/>
      <point x="439" y="540"/>
      <point x="386" y="540" type="curve" smooth="yes"/>
      <point x="320" y="540"/>
      <point x="250" y="507"/>
      <point x="192" y="449" type="curve"/>
    </contour>
    <contour>
      <point x="420" y="-48" type="line" smooth="yes"/>
      <point x="420" y="-159"/>
      <point x="393" y="-213"/>
      <point x="337" y="-213" type="curve" smooth="yes"/>
      <point x="312" y="-213"/>
      <point x="301" y="-202"/>
      <point x="287" y="-164" type="curve" smooth="yes"/>
      <point x="276" y="-134"/>
      <point x="260" y="-118"/>
      <point x="232" y="-118" type="curve" smooth="yes"/>
      <point x="199" y="-118"/>
      <point x="178" y="-141"/>
      <point x="178" y="-178" type="curve" smooth="yes"/>
      <point x="178" y="-229"/>
      <point x="220" y="-260"/>
      <point x="288" y="-260" type="curve" smooth="yes"/>
      <point x="368" y="-260"/>
      <point x="436" y="-215"/>
      <point x="482" y="-131" type="curve" smooth="yes"/>
      <point x="511" y="-78"/>
      <point x="515" y="-41"/>
      <point x="515" y="155" type="curve"/>
      <point x="420" y="189" type="line"/>
    </contour>
  </outline>
</glyph>
<glyph name="Tbar" format="1">
  <advance width="754"/>
  <unicode hex="0166"/>
  <outline>
    <contour>
      <point x="591" y="377" type="line"/>
      <point x="591" y="442" type="line"/>
      <point x="166" y="442" type="line"/>
      <point x="166" y="377" type="line"/>
    </contour>
    <component base="T"/>
  </outline>
</glyph>
<glyph name="florin" format="1">
  <advance width="675"/>
  <unicode hex="0192"/>
  <outline>
    <contour>
      <point x="193" y="448" type="line"/>
      <point x="273" y="448" type="line"/>
      <point x="204" y="21" type="line" smooth="yes"/>
      <point x="185" y="-93"/>
      <point x="150" y="-144"/>
      <point x="94" y="-144" type="curve" smooth="yes"/>
      <point x="75" y="-144"/>
      <point x="63" y="-133"/>
      <point x="54" y="-95" type="curve" smooth="yes"/>
      <point x="46" y="-62"/>
      <point x="32" y="-49"/>
      <point x="7" y="-49" type="curve" smooth="yes"/>
      <point x="-29" y="-49"/>
      <point x="-58" y="-77"/>
      <point x="-58" y="-115" type="curve" smooth="yes"/>
      <point x="-58" y="-166"/>
      <point x="-12" y="-191"/>
      <point x="43" y="-191" type="curve" smooth="yes"/>
      <point x="185" y="-191"/>
      <point x="284" y="-72"/>
      <point x="319" y="145" type="curve" smooth="yes"/>
      <point x="368" y="448" type="line"/>
      <point x="497" y="448" type="line"/>
      <point x="502" y="480" type="line"/>
      <point x="373" y="480" type="line"/>
      <point x="382" y="535" type="line" smooth="yes"/>
      <point x="406" y="682"/>
      <point x="445" y="749"/>
      <point x="512" y="749" type="curve" smooth="yes"/>
      <point x="537" y="749"/>
      <point x="548" y="734"/>
      <point x="552" y="697" type="curve" smooth="yes"/>
      <point x="556" y="660"/>
      <point x="567" y="646"/>
      <point x="593" y="646" type="curve" smooth="yes"/>
      <point x="627" y="646"/>
      <point x="651" y="671"/>
      <point x="651" y="705" type="curve" smooth="yes"/>
      <point x="651" y="751"/>
      <point x="609" y="780"/>
      <point x="540" y="780" type="curve" smooth="yes"/>
      <point x="449" y="780"/>
      <point x="362" y="730"/>
      <point x="320" y="653" type="curve" smooth="yes"/>
      <point x="303" y="622"/>
      <point x="295" y="588"/>
      <point x="278" y="480" type="curve"/>
      <point x="202" y="480" type="line"/>
    </contour>
  </outline>
</glyph>
<glyph name="dotlessj" format="1">
  <advance width="280"/>
  <unicode hex="0237"/>
  <outline>
    <contour>
      <point x="99" y="-48" type="line" smooth="yes"/>
      <point x="99" y="-159"/>
      <point x="72" y="-213"/>
      <point x="16" y="-213" type="curve" smooth="yes"/>
      <point x="-9" y="-213"/>
      <point x="-20" y="-202"/>
      <point x="-34" y="-164" type="curve" smooth="yes"/>
      <point x="-45" y="-134"/>
      <point x="-61" y="-118"/>
      <point x="-89" y="-118" type="curve" smooth="yes"/>
      <point x="-122" y="-118"/>
      <point x="-143" y="-141"/>
      <point x="-143" y="-178" type="curve" smooth="yes"/>
      <point x="-143" y="-229"/>
      <point x="-101" y="-260"/>
      <point x="-33" y="-260" type="curve" smooth="yes"/>
      <point x="47" y="-260"/>
      <point x="115" y="-215"/>
      <point x="161" y="-131" type="curve" smooth="yes"/>
      <point x="190" y="-78"/>
      <point x="194" y="-41"/>
      <point x="194" y="155" type="curve" smooth="yes"/>
      <point x="194" y="540" type="line"/>
      <point x="185" y="540" type="line"/>
      <point x="25" y="492" type="line"/>
      <point x="25" y="478" type="line"/>
      <point x="99" y="451" type="line"/>
    </contour>
    <contour>
      <point x="148" y="651" type="move" name="top"/>
    </contour>
  </outline>
</glyph>
<glyph name="schwa" format="1">
  <advance width="560"/>
  <unicode hex="0259"/>
  <outline>
    <contour>
      <point x="41" y="216" type="line"/>
      <point x="44" y="68"/>
      <point x="115" y="-10"/>
      <point x="246" y="-10" type="curve" smooth="yes"/>
      <point x="405" y="-10"/>
      <point x="513" y="105"/>
      <point x="513" y="273" type="curve" smooth="yes"/>
      <point x="513" y="432"/>
      <point x="416" y="540"/>
      <point x="273" y="540" type="curve" smooth="yes"/>
      <point x="175" y="540"/>
      <point x="93" y="490"/>
      <point x="58" y="409" type="curve" smooth="yes"/>
      <point x="52" y="395" type="line"/>
      <point x="69" y="385" type="line"/>
      <point x="81" y="400" type="line" smooth="yes"/>
      <point x="116" y="442"/>
      <point x="175" y="467"/>
      <point x="240" y="467" type="curve" smooth="yes"/>
      <point x="354" y="467"/>
      <point x="413" y="391"/>
      <point x="413" y="245" type="curve" smooth="yes"/>
      <point x="413" y="102"/>
      <point x="356" y="21"/>
      <point x="255" y="21" type="curve" smooth="yes"/>
      <point x="183" y="21"/>
      <point x="146" y="62"/>
      <point x="146" y="144" type="curve" smooth="yes"/>
      <point x="146" y="160"/>
      <point x="147" y="177"/>
      <point x="149" y="185" type="curve"/>
      <point x="433" y="195" type="line"/>
      <point x="433" y="222" type="line"/>
      <point x="48" y="222" type="line"/>
    </contour>
  </outline>
</glyph>
<glyph name="breve" format="1">
  <advance width="304"/>
  <unicode hex="02D8"/>
  <outline>
    <contour>
      <point x="45" y="790" type="line"/>
      <point x="61" y="744"/>
      <point x="104" y="725"/>
      <point x="151" y="725" type="curve" smooth="yes"/>
      <point x="195" y="725"/>
      <point x="237" y="744"/>
      <point x="260" y="790" type="curve"/>
      <point x="294" y="790" type="line"/>
      <point x="262" y="666"/>
      <point x="190" y="651"/>
      <point x="147" y="651" type="curve" smooth="yes"/>
      <point x="89" y="651"/>
      <point x="21" y="686"/>
      <point x="10" y="790" type="curve"/>
    </contour>
    <contour>
      <point x="147" y="651" type="move" name="_top"/>
    </contour>
  </outline>
</glyph>
<glyph name="ogonek" format="1">
  <advance width="232"/>
  <unicode hex="02DB"/>
  <outline>
    <contour>
      <point x="207" y="-180" type="line"/>
      <point x="185" y="-195"/>
      <point x="170" y="-201"/>
      <point x="151" y="-201" type="curve" smooth="yes"/>
      <point x="116" y="-201"/>
      <point x="98" y="-182"/>
      <point x="98" y="-144" type="curve" smooth="yes"/>
      <point x="98" y="-100"/>
      <point x="124" y="-49"/>
      <point x="177" y="11" type="curve"/>
      <point x="139" y="11" type="line"/>
      <point x="59" y="-45"/>
      <point x="10" y="-113"/>
      <point x="10" y="-168" type="curve" smooth="yes"/>
      <point x="10" y="-222"/>
      <point x="50" y="-256"/>
      <point x="112" y="-256" type="curve" smooth="yes"/>
      <point x="155" y="-256"/>
      <point x="190" y="-239"/>
      <point x="222" y="-202" type="curve"/>
    </contour>
    <contour>
      <point x="147" y="0" type="move" name="_bottom"/>
    </contour>
  </outline>
</glyph>
<glyph name="tilde" format="1">
  <advance width="327"/>
  <unicode hex="02DC"/>
  <outline>
    <contour>
      <point x="10" y="683" type="line"/>
      <point x="10" y="750"/>
      <point x="45" y="797"/>
      <point x="94" y="797" type="curve" smooth="yes"/>
      <point x="140" y="797"/>
      <point x="198" y="762"/>
      <point x="243" y="762" type="curve" smooth="yes"/>
      <point x="271" y="762"/>
      <point x="288" y="775"/>
      <point x="293" y="800" type="curve"/>
      <point x="317" y="800" type="line"/>
      <point x="317" y="731"/>
      <point x="282" y="682"/>
      <point x="233" y="682" type="curve" smooth="yes"/>
      <point x="186" y="682"/>
      <point x="132" y="721"/>
      <point x="85" y="721" type="curve" smooth="yes"/>
      <point x="56" y="721"/>
      <point x="37" y="707"/>
      <point x="34" y="683" type="curve"/>
    </contour>
    <contour>
      <point x="163" y="651" type="move" name="_top"/>
    </contour>
  </outline>
</glyph>
<glyph name="quoteright" format="1">
  <advance width="242"/>
  <unicode hex="2019"/>
  <outline>
    <contour>
      <point x="89" y="551" type="line"/>
      <point x="158" y="601"/>
      <point x="194" y="664"/>
      <point x="194" y="745" type="curve" smooth="yes"/>
      <point x="194" y="791"/>
      <point x="166" y="830"/>
      <point x="123" y="830" type="curve" smooth="yes"/>
      <point x="85" y="830"/>
      <point x="56" y="801"/>
      <point x="56" y="763" type="curve" smooth="yes"/>
      <point x="56" y="702"/>
      <point x="131" y="713"/>
      <point x="131" y="666" type="curve" smooth="yes"/>
      <point x="131" y="643"/>
      <point x="106" y="608"/>
      <point x="69" y="580" type="curve"/>
    </contour>
  </outline>
</glyph>
<glyph name="quotedblleft" format="1">
  <advance width="437"/>
  <unicode hex="201C"/>
  <outline>
    <contour>
      <point x="158" y="830" type="line"/>
      <point x="89" y="780"/>
      <point x="53" y="717"/>
      <point x="53" y="636" type="curve" smooth="yes"/>
      <point x="53" y="590"/>
      <point x="81" y="551"/>
      <point x="124" y="551" type="curve" smooth="yes"/>
      <point x="162" y="551"/>
      <point x="191" y="580"/>
      <point x="191" y="618" type="curve" smooth="yes"/>
      <point x="191" y="679"/>
      <point x="116" y="668"/>
      <point x="116" y="715" type="curve" smooth="yes"/>
      <point x="116" y="738"/>
      <point x="141" y="773"/>
      <point x="178" y="801" type="curve"/>
    </contour>
    <contour>
      <point x="350" y="830" type="line"/>
      <point x="281" y="780"/>
      <point x="245" y="717"/>
      <point x="245" y="636" type="curve" smooth="yes"/>
      <point x="245" y="590"/>
      <point x="273" y="551"/>
      <point x="316" y="551" type="curve" smooth="yes"/>
      <point x="354" y="551"/>
      <point x="383" y="580"/>
      <point x="383" y="618" type="curve" smooth="yes"/>
      <point x="383" y="679"/>
      <point x="308" y="668"/>
      <point x="308" y="715" type="curve" smooth="yes"/>
      <point x="308" y="738"/>
      <point x="333" y="773"/>
      <point x="370" y="801" type="curve"/>
    </contour>
  </outline>
</glyph>
<glyph name="quotedblbase" format="1">
  <advance width="455"/>
  <unicode hex="201E"/>
  <outline>
    <contour>
      <point x="287" y="-151" type="line"/>
      <point x="356" y="-101"/>
      <point x="392" y="-38"/>
      <point x="392" y="43" type="curve" smooth="yes"/>
      <point x="392" y="89"/>
      <point x="364" y="128"/>
      <point x="321" y="128" type="curve" smooth="yes"/>
      <point x="283" y="128"/>
      <point x="254" y="99"/>
      <point x="254" y="61" type="curve" smooth="yes"/>
      <point x="254" y="0"/>
      <point x="329" y="11"/>
      <point x="329" y="-36" type="curve" smooth="yes"/>
      <point x="329" y="-59"/>
      <point x="304" y="-94"/>
      <point x="267" y="-122" type="curve"/>
    </contour>
    <contour>
      <point x="95" y="-151" type="line"/>
      <point x="164" y="-101"/>
      <point x="200" y="-38"/>
      <point x="200" y="43" type="curve" smooth="yes"/>
      <point x="200" y="89"/>
      <point x="172" y="128"/>
      <point x="129" y="128" type="curve" smooth="yes"/>
      <point x="91" y="128"/>
      <point x="62" y="99"/>
      <point x="62" y="61" type="curve" smooth="yes"/>
      <point x="62" y="0"/>
      <point x="137" y="11"/>
      <point x="137" y="-36" type="curve" smooth="yes"/>
      <point x="137" y="-59"/>
      <point x="112" y="-94"/>
      <point x="75" y="-122" type="curve"/>
    </contour>
  </outline>
</glyph>
<glyph name="daggerdbl" format="1">
  <advance width="530"/>
  <unicode hex="2021"/>
  <outline>
    <contour>
      <point x="323" y="346" type="curve"/>
      <point x="301" y="283"/>
      <point x="288" y="212"/>
      <point x="280" y="118" type="curve"/>
      <point x="369" y="118"/>
      <point x="388" y="144"/>
      <point x="426" y="144" type="curve" smooth="yes"/>
      <point x="456" y="144"/>
      <point x="478" y="124"/>
      <point x="478" y="98" type="curve" smooth="yes"/>
      <point x="478" y="72"/>
      <point x="456" y="53"/>
      <point x="424" y="53" type="curve" smooth="yes"/>
      <point x="413" y="53"/>
      <point x="401" y="56"/>
      <point x="351" y="73" type="curve" smooth="yes"/>
      <point x="322" y="83"/>
      <point x="297" y="89"/>
      <point x="280" y="92" type="curve"/>
      <point x="280" y="80" type="line"/>
      <point x="280" y="14"/>
      <point x="310" y="-48"/>
      <point x="310" y="-87" type="curve" smooth="yes"/>
      <point x="310" y="-118"/>
      <point x="293" y="-137"/>
      <point x="264" y="-137" type="curve" smooth="yes"/>
      <point x="237" y="-137"/>
      <point x="220" y="-118"/>
      <point x="220" y="-87" type="curve" smooth="yes"/>
      <point x="220" y="-47"/>
      <point x="250" y="13"/>
      <point x="250" y="80" type="curve"/>
      <point x="250" y="92" type="line"/>
      <point x="230" y="89"/>
      <point x="196" y="81"/>
      <point x="175" y="73" type="curve" smooth="yes"/>
      <point x="127" y="55"/>
      <point x="120" y="53"/>
      <point x="106" y="53" type="curve" smooth="yes"/>
      <point x="75" y="53"/>
      <point x="52" y="71"/>
      <point x="52" y="97" type="curve" smooth="yes"/>
      <point x="52" y="124"/>
      <point x="75" y="144"/>
      <point x="105" y="144" type="curve" smooth="yes"/>
      <point x="142" y="144"/>
      <point x="161" y="118"/>
      <point x="250" y="118" type="curve"/>
      <point x="239" y="217"/>
      <point x="227" y="288"/>
      <point x="207" y="346" type="curve"/>
      <point x="227" y="404"/>
      <point x="239" y="475"/>
      <point x="250" y="574" type="curve"/>
      <point x="161" y="574"/>
      <point x="142" y="548"/>
      <point x="105" y="548" type="curve" smooth="yes"/>
      <point x="75" y="548"/>
      <point x="52" y="568"/>
      <point x="52" y="595" type="curve" smooth="yes"/>
      <point x="52" y="621"/>
      <point x="75" y="639"/>
      <point x="106" y="639" type="curve" smooth="yes"/>
      <point x="118" y="639"/>
      <point x="125" y="638"/>
      <point x="175" y="619" type="curve" smooth="yes"/>
      <point x="196" y="611"/>
      <point x="230" y="603"/>
      <point x="250" y="600" type="curve"/>
      <point x="250" y="612" type="line"/>
      <point x="250" y="679"/>
      <point x="220" y="739"/>
      <point x="220" y="779" type="curve" smooth="yes"/>
      <point x="220" y="810"/>
      <point x="237" y="829"/>
      <point x="264" y="829" type="curve" smooth="yes"/>
      <point x="293" y="829"/>
      <point x="310" y="810"/>
      <point x="310" y="779" type="curve" smooth="yes"/>
      <point x="310" y="740"/>
      <point x="280" y="678"/>
      <point x="280" y="612" type="curve"/>
      <point x="280" y="600" type="line"/>
      <point x="290" y="601"/>
      <point x="319" y="608"/>
      <point x="351" y="619" type="curve" smooth="yes"/>
      <point x="404" y="638"/>
      <point x="410" y="639"/>
      <point x="424" y="639" type="curve" smooth="yes"/>
      <point x="456" y="639"/>
      <point x="478" y="620"/>
      <point x="478" y="594" type="curve" smooth="yes"/>
      <point x="478" y="568"/>
      <point x="456" y="548"/>
      <point x="426" y="548" type="curve" smooth="yes"/>
      <point x="388" y="548"/>
      <point x="369" y="574"/>
      <point x="280" y="574" type="curve"/>
      <point x="288" y="480"/>
      <point x="301" y="409"/>
    </contour>
  </outline>
</glyph>
<glyph name="perthousand" format="1">
  <advance width="1051"/>
  <unicode hex="2030"/>
  <outline>
    <contour>
      <point x="195" y="779" type="curve" smooth="yes"/>
      <point x="113" y="779"/>
      <point x="48" y="693"/>
      <point x="48" y="584" type="curve" smooth="yes"/>
      <point x="48" y="478"/>
      <point x="112" y="394"/>
      <point x="195" y="394" type="curve" smooth="yes"/>
      <point x="278" y="394"/>
      <point x="343" y="479"/>
      <point x="343" y="584" type="curve" smooth="yes"/>
      <point x="343" y="692"/>
      <point x="277" y="779"/>
    </contour>
    <contour>
      <point x="195" y="744" type="curve" smooth="yes"/>
      <point x="233" y="744"/>
      <point x="248" y="711"/>
      <point x="248" y="585" type="curve" smooth="yes"/>
      <point x="248" y="459"/>
      <point x="234" y="430"/>
      <point x="195" y="430" type="curve" smooth="yes"/>
      <point x="157" y="430"/>
      <point x="143" y="458"/>
      <point x="143" y="585" type="curve" smooth="yes"/>
      <point x="143" y="711"/>
      <point x="157" y="744"/>
    </contour>
    <contour>
      <point x="519" y="375" type="curve" smooth="yes"/>
      <point x="437" y="375"/>
      <point x="372" y="289"/>
      <point x="372" y="180" type="curve" smooth="yes"/>
      <point x="372" y="74"/>
      <point x="436" y="-10"/>
      <point x="519" y="-10" type="curve" smooth="yes"/>
      <point x="602" y="-10"/>
      <point x="667" y="75"/>
      <point x="667" y="180" type="curve" smooth="yes"/>
      <point x="667" y="288"/>
      <point x="601" y="375"/>
    </contour>
    <contour>
      <point x="519" y="340" type="curve" smooth="yes"/>
      <point x="557" y="340"/>
      <point x="572" y="307"/>
      <point x="572" y="181" type="curve" smooth="yes"/>
      <point x="572" y="55"/>
      <point x="558" y="26"/>
      <point x="519" y="26" type="curve" smooth="yes"/>
      <point x="481" y="26"/>
      <point x="467" y="54"/>
      <point x="467" y="181" type="curve" smooth="yes"/>
      <point x="467" y="307"/>
      <point x="481" y="340"/>
    </contour>
    <contour>
      <point x="158" y="0" type="line"/>
      <point x="628" y="770" type="line"/>
      <point x="558" y="770" type="line"/>
      <point x="89" y="0" type="line"/>
    </contour>
    <contour>
      <point x="868" y="375" type="curve" smooth="yes"/>
      <point x="786" y="375"/>
      <point x="721" y="289"/>
      <point x="721" y="180" type="curve" smooth="yes"/>
      <point x="721" y="74"/>
      <point x="785" y="-10"/>
      <point x="868" y="-10" type="curve" smooth="yes"/>
      <point x="951" y="-10"/>
      <point x="1016" y="75"/>
      <point x="1016" y="180" type="curve" smooth="yes"/>
      <point x="1016" y="288"/>
      <point x="950" y="375"/>
    </contour>
    <contour>
      <point x="868" y="340" type="curve" smooth="yes"/>
      <point x="906" y="340"/>
      <point x="921" y="307"/>
      <point x="921" y="181" type="curve" smooth="yes"/>
      <point x="921" y="55"/>
      <point x="907" y="26"/>
      <point x="868" y="26" type="curve" smooth="yes"/>
      <point x="830" y="26"/>
      <point x="816" y="54"/>
      <point x="816" y="181" type="curve" smooth="yes"/>
      <point x="816" y="307"/>
      <point x="830" y="340"/>
    </contour>
  </outline>
</glyph>
<glyph name="guilsinglright" format="1">
  <advance width="280"/>
  <unicode hex="203A"/>
  <outline>
    <contour>
      <point x="71" y="61" type="line"/>
      <point x="139" y="246" type="line"/>
      <point x="73" y="431" type="line"/>
      <point x="85" y="436" type="line"/>
      <point x="222" y="255" type="line"/>
      <point x="222" y="236" type="line"/>
      <point x="83" y="53" type="line"/>
    </contour>
  </outline>
</glyph>
<glyph name="zerosuperior" format="1">
  <advance width="442"/>
  <unicode hex="2070"/>
  <outline>
    <contour>
      <point x="220" y="926" type="curve" smooth="yes"/>
      <point x="122" y="926"/>
      <point x="46" y="812"/>
      <point x="46" y="665" type="curve" smooth="yes"/>
      <point x="46" y="520"/>
      <point x="121" y="409"/>
      <point x="220" y="409" type="curve" smooth="yes"/>
      <point x="319" y="409"/>
      <point x="396" y="521"/>
      <point x="396" y="665" type="curve" smooth="yes"/>
      <point x="396" y="811"/>
      <point x="318" y="926"/>
    </contour>
    <contour>
      <point x="220" y="887" type="curve" smooth="yes"/>
      <point x="270" y="887"/>
      <point x="290" y="841"/>
      <point x="290" y="666" type="curve" smooth="yes"/>
      <point x="290" y="490"/>
      <point x="271" y="449"/>
      <point x="220" y="449" type="curve" smooth="yes"/>
      <point x="170" y="449"/>
      <point x="151" y="489"/>
      <point x="151" y="666" type="curve" smooth="yes"/>
      <point x="151" y="841"/>
      <point x="170" y="887"/>
    </contour>
  </outline>
</glyph>
<glyph name="foursuperior" format="1">
  <advance width="406"/>
  <unicode hex="2074"/>
  <outline>
    <contour>
      <point x="215" y="455" type="line"/>
      <point x="137" y="440" type="line"/>
      <point x="137" y="416" type="line"/>
      <point x="362" y="416" type="line"/>
      <point x="362" y="440" type="line"/>
      <point x="304" y="455" type="line"/>
      <point x="304" y="542" type="line"/>
      <point x="365" y="542" type="line"/>
      <point x="365" y="606" type="line"/>
      <point x="304" y="606" type="line"/>
      <point x="304" y="920" type="line"/>
      <point x="264" y="926" type="line"/>
      <point x="14" y="580" type="line"/>
      <point x="24" y="542" type="line"/>
      <point x="215" y="542" type="line"/>
    </contour>
    <contour>
      <point x="215" y="606" type="line"/>
      <point x="81" y="606" type="line"/>
      <point x="79" y="610" type="line"/>
      <point x="211" y="785" type="line"/>
      <point x="215" y="785" type="line"/>
    </contour>
  </outline>
</glyph>
<glyph name="fivesuperior" format="1">
  <advance width="382"/>
  <unicode hex="2075"/>
  <outline>
    <contour>
      <point x="134" y="821" type="line"/>
      <point x="298" y="821" type="line"/>
      <point x="325" y="933" type="line"/>
      <point x="305" y="944" type="line"/>
      <point x="290" y="911"/>
      <point x="290" y="914"/>
      <point x="286" y="911" type="curve"/>
      <point x="106" y="911" type="line"/>
      <point x="69" y="632" type="line"/>
      <point x="90" y="631" type="line"/>
      <point x="110" y="643"/>
      <point x="132" y="649"/>
      <point x="157" y="649" type="curve" smooth="yes"/>
      <point x="219" y="649"/>
      <point x="263" y="608"/>
      <point x="263" y="550" type="curve" smooth="yes"/>
      <point x="263" y="493"/>
      <point x="224" y="451"/>
      <point x="173" y="451" type="curve" smooth="yes"/>
      <point x="100" y="451"/>
      <point x="129" y="543"/>
      <point x="71" y="543" type="curve" smooth="yes"/>
      <point x="46" y="543"/>
      <point x="29" y="523"/>
      <point x="29" y="494" type="curve" smooth="yes"/>
      <point x="29" y="445"/>
      <point x="82" y="409"/>
      <point x="154" y="409" type="curve" smooth="yes"/>
      <point x="260" y="409"/>
      <point x="341" y="487"/>
      <point x="341" y="592" type="curve" smooth="yes"/>
      <point x="341" y="683"/>
      <point x="274" y="743"/>
      <point x="175" y="743" type="curve" smooth="yes"/>
      <point x="156" y="743"/>
      <point x="139" y="743"/>
      <point x="121" y="736" type="curve"/>
    </contour>
  </outline>
</glyph>
<glyph name="sixsuperior" format="1">
  <advance width="412"/>
  <unicode hex="2076"/>
  <outline>
    <contour>
      <point x="210" y="409" type="curve" smooth="yes"/>
      <point x="311" y="409"/>
      <point x="381" y="475"/>
      <point x="381" y="570" type="curve" smooth="yes"/>
      <point x="381" y="659"/>
      <point x="321" y="725"/>
      <point x="237" y="725" type="curve" smooth="yes"/>
      <point x="200" y="725"/>
      <point x="167" y="712"/>
      <point x="151" y="691" type="curve"/>
      <point x="160" y="761"/>
      <point x="235" y="859"/>
      <point x="309" y="898" type="curve"/>
      <point x="297" y="924" type="line"/>
      <point x="143" y="869"/>
      <point x="43" y="738"/>
      <point x="43" y="594" type="curve" smooth="yes"/>
      <point x="43" y="479"/>
      <point x="106" y="409"/>
    </contour>
    <contour>
      <point x="215" y="449" type="curve" smooth="yes"/>
      <point x="170" y="449"/>
      <point x="142" y="496"/>
      <point x="142" y="571" type="curve" smooth="yes"/>
      <point x="142" y="596"/>
      <point x="144" y="621"/>
      <point x="149" y="640" type="curve"/>
      <point x="162" y="663"/>
      <point x="185" y="676"/>
      <point x="210" y="676" type="curve" smooth="yes"/>
      <point x="255" y="676"/>
      <point x="284" y="631"/>
      <point x="284" y="559" type="curve" smooth="yes"/>
      <point x="284" y="491"/>
      <point x="257" y="449"/>
    </contour>
  </outline>
</glyph>
<glyph name="eightsuperior" format="1">
  <advance width="423"/>
  <unicode hex="2078"/>
  <outline>
    <contour>
      <point x="271" y="705" type="curve"/>
      <point x="327" y="729"/>
      <point x="356" y="767"/>
      <point x="356" y="813" type="curve" smooth="yes"/>
      <point x="356" y="880"/>
      <point x="298" y="926"/>
      <point x="213" y="926" type="curve" smooth="yes"/>
      <point x="124" y="926"/>
      <point x="63" y="874"/>
      <point x="63" y="793" type="curve" smooth="yes"/>
      <point x="63" y="740"/>
      <point x="88" y="699"/>
      <point x="143" y="663" type="curve"/>
      <point x="76" y="634"/>
      <point x="45" y="595"/>
      <point x="45" y="544" type="curve" smooth="yes"/>
      <point x="45" y="466"/>
      <point x="107" y="409"/>
      <point x="207" y="409" type="curve" smooth="yes"/>
      <point x="306" y="409"/>
      <point x="379" y="473"/>
      <point x="379" y="562" type="curve" smooth="yes"/>
      <point x="379" y="620"/>
      <point x="346" y="663"/>
    </contour>
    <contour>
      <point x="235" y="723" type="curve"/>
      <point x="167" y="755"/>
      <point x="139" y="784"/>
      <point x="139" y="823" type="curve" smooth="yes"/>
      <point x="139" y="863"/>
      <point x="166" y="887"/>
      <point x="209" y="887" type="curve" smooth="yes"/>
      <point x="254" y="887"/>
      <point x="283" y="859"/>
      <point x="283" y="813" type="curve" smooth="yes"/>
      <point x="283" y="779"/>
      <point x="267" y="749"/>
    </contour>
    <contour>
      <point x="175" y="644" type="curve"/>
      <point x="263" y="608"/>
      <point x="300" y="572"/>
      <point x="300" y="525" type="curve" smooth="yes"/>
      <point x="300" y="479"/>
      <point x="267" y="449"/>
      <point x="216" y="449" type="curve" smooth="yes"/>
      <point x="160" y="449"/>
      <point x="127" y="486"/>
      <point x="127" y="551" type="curve" smooth="yes"/>
      <point x="127" y="594"/>
      <point x="144" y="627"/>
    </contour>
  </outline>
</glyph>
<glyph name="threeinferior" format="1">
  <advance width="388"/>
  <unicode hex="2083"/>
  <outline>
    <contour>
      <point x="119" y="84" type="line"/>
      <point x="130" y="86"/>
      <point x="145" y="87"/>
      <point x="154" y="87" type="curve" smooth="yes"/>
      <point x="214" y="87"/>
      <point x="255" y="44"/>
      <point x="255" y="-26" type="curve" smooth="yes"/>
      <point x="255" y="-83"/>
      <point x="224" y="-119"/>
      <point x="179" y="-119" type="curve" smooth="yes"/>
      <point x="110" y="-119"/>
      <point x="135" y="-22"/>
      <point x="76" y="-22" type="curve" smooth="yes"/>
      <point x="50" y="-22"/>
      <point x="33" y="-42"/>
      <point x="33" y="-70" type="curve" smooth="yes"/>
      <point x="33" y="-121"/>
      <point x="91" y="-161"/>
      <point x="164" y="-161" type="curve" smooth="yes"/>
      <point x="265" y="-161"/>
      <point x="345" y="-83"/>
      <point x="345" y="13" type="curve" smooth="yes"/>
      <point x="345" y="87"/>
      <point x="298" y="139"/>
      <point x="226" y="146" type="curve"/>
      <point x="226" y="150" type="line"/>
      <point x="276" y="163"/>
      <point x="315" y="202"/>
      <point x="315" y="254" type="curve" smooth="yes"/>
      <point x="315" y="315"/>
      <point x="267" y="356"/>
      <point x="199" y="356" type="curve" smooth="yes"/>
      <point x="126" y="356"/>
      <point x="67" y="310"/>
      <point x="52" y="242" type="curve"/>
      <point x="73" y="233" type="line"/>
      <point x="92" y="270"/>
      <point x="129" y="295"/>
      <point x="167" y="295" type="curve" smooth="yes"/>
      <point x="200" y="295"/>
      <point x="223" y="273"/>
      <point x="223" y="238" type="curve" smooth="yes"/>
      <point x="223" y="189"/>
      <point x="180" y="140"/>
      <point x="110" y="113" type="curve"/>
    </contour>
  </outline>
</glyph>
<glyph name="fourinferior" format="1">
  <advance width="406"/>
  <unicode hex="2084"/>
  <outline>
    <contour>
      <point x="215" y="-115" type="line"/>
      <point x="137" y="-130" type="line"/>
      <point x="137" y="-154" type="line"/>
      <point x="362" y="-154" type="line"/>
      <point x="362" y="-130" type="line"/>
      <point x="304" y="-115" type="line"/>
      <point x="304" y="-28" type="line"/>
      <point x="365" y="-28" type="line"/>
      <point x="365" y="36" type="line"/>
      <point x="304" y="36" type="line"/>
      <point x="304" y="350" type="line"/>
      <point x="264" y="356" type="line"/>
      <point x="14" y="10" type="line"/>
      <point x="24" y="-28" type="line"/>
      <point x="215" y="-28" type="line"/>
    </contour>
    <contour>
      <point x="215" y="36" type="line"/>
      <point x="81" y="36" type="line"/>
      <point x="79" y="40" type="line"/>
      <point x="211" y="215" type="line"/>
      <point x="215" y="215" type="line"/>
    </contour>
  </outline>
</glyph>
<glyph name="sixinferior" format="1">
  <advance width="412"/>
  <unicode hex="2086"/>
  <outline>
    <contour>
      <point x="210" y="-161" type="curve" smooth="yes"/>
      <point x="311" y="-161"/>
      <point x="381" y="-95"/>
      <point x="381" y="0" type="curve" smooth="yes"/>
      <point x="381" y="89"/>
      <point x="321" y="155"/>
      <point x="237" y="155" type="curve" smooth="yes"/>
      <point x="200" y="155"/>
      <point x="167" y="142"/>
      <point x="151" y="121" type="curve"/>
      <point x="160" y="191"/>
      <point x="235" y="289"/>
      <point x="309" y="328" type="curve"/>
      <point x="297" y="354" type="line"/>
      <point x="143" y="299"/>
      <point x="43" y="168"/>
      <point x="43" y="24" type="curve" smooth="yes"/>
      <point x="43" y="-91"/>
      <point x="106" y="-161"/>
    </contour>
    <contour>
      <point x="215" y="-121" type="curve" smooth="yes"/>
      <point x="170" y="-121"/>
      <point x="142" y="-74"/>
      <point x="142" y="1" type="curve" smooth="yes"/>
      <point x="142" y="26"/>
      <point x="144" y="51"/>
      <point x="149" y="70" type="curve"/>
      <point x="162" y="93"/>
      <point x="185" y="106"/>
      <point x="210" y="106" type="curve" smooth="yes"/>
      <point x="255" y="106"/>
      <point x="284" y="61"/>
      <point x="284" y="-11" type="curve" smooth="yes"/>
      <point x="284" y="-79"/>
      <point x="257" y="-121"/>
    </contour>
  </outline>
</glyph>
<glyph name="nineinferior" format="1">
  <advance width="411"/>
  <unicode hex="2089"/>
  <outline>
    <contour>
      <point x="201" y="354" type="curve"/>
      <point x="100" y="354"/>
      <point x="31" y="289"/>
      <point x="31" y="193" type="curve" smooth="yes"/>
      <point x="31" y="108"/>
      <point x="91" y="45"/>
      <point x="174" y="45" type="curve" smooth="yes"/>
      <point x="211" y="45"/>
      <point x="244" y="58"/>
      <point x="261" y="79" type="curve"/>
      <point x="251" y="7"/>
      <point x="176" y="-94"/>
      <point x="102" y="-134" type="curve"/>
      <point x="114" y="-161" type="line"/>
      <point x="268" y="-106"/>
      <point x="368" y="25"/>
      <point x="368" y="170" type="curve" smooth="yes"/>
      <point x="368" y="284"/>
      <point x="305" y="354"/>
    </contour>
    <contour>
      <point x="197" y="315" type="curve"/>
      <point x="241" y="315"/>
      <point x="270" y="268"/>
      <point x="270" y="193" type="curve" smooth="yes"/>
      <point x="270" y="170"/>
      <point x="267" y="147"/>
      <point x="262" y="130" type="curve"/>
      <point x="249" y="108"/>
      <point x="226" y="95"/>
      <point x="202" y="95" type="curve" smooth="yes"/>
      <point x="156" y="95"/>
      <point x="128" y="137"/>
      <point x="128" y="204" type="curve" smooth="yes"/>
      <point x="128" y="272"/>
      <point x="154" y="315"/>
    </contour>
  </outline>
</glyph>
<glyph name="Euro" format="1">
  <advance width="639"/>
  <unicode hex="20AC"/>
  <outline>
    <contour>
      <point x="398" y="-10" type="curve" smooth="yes" name="hr00"/>
      <point x="500" y="-10"/>
      <point x="579" y="50"/>
      <point x="579" y="127" type="curve" smooth="yes"/>
      <point x="579" y="167"/>
      <point x="559" y="189"/>
      <point x="524" y="189" type="curve" smooth="yes"/>
      <point x="490" y="189"/>
      <point x="469" y="166"/>
      <point x="459" y="121" type="curve" smooth="yes"/>
      <point x="447" y="63"/>
      <point x="422" y="31"/>
      <point x="380" y="31" type="curve" smooth="yes"/>
      <point x="290" y="31"/>
      <point x="246" y="147"/>
      <point x="246" y="382" type="curve" smooth="yes"/>
      <point x="246" y="621"/>
      <point x="291" y="739"/>
      <point x="385" y="739" type="curve" smooth="yes"/>
      <point x="429" y="739"/>
      <point x="453" y="716"/>
      <point x="464" y="659" type="curve" smooth="yes"/>
      <point x="472" y="615"/>
      <point x="493" y="591"/>
      <point x="525" y="591" type="curve" smooth="yes"/>
      <point x="558" y="591"/>
      <point x="579" y="614"/>
      <point x="579" y="651" type="curve" smooth="yes"/>
      <point x="579" y="722"/>
      <point x="501" y="780"/>
      <point x="403" y="780" type="curve" smooth="yes"/>
      <point x="241" y="780"/>
      <point x="124" y="612"/>
      <point x="124" y="382" type="curve" smooth="yes"/>
      <point x="124" y="153"/>
      <point x="238" y="-10"/>
    </contour>
    <contour>
      <point x="486" y="421" type="line"/>
      <point x="496" y="465" type="line"/>
      <point x="65" y="465" type="line"/>
      <point x="55" y="421" type="line"/>
    </contour>
    <contour>
      <point x="466" y="300" type="line"/>
      <point x="476" y="344" type="line"/>
      <point x="45" y="344" type="line"/>
      <point x="35" y="300" type="line"/>
    </contour>
  </outline>
</glyph>
<glyph name="servicemark" format="1">
  <advance width="772"/>
  <unicode hex="2120"/>
  <outline>
    <contour>
      <point x="346" y="489" type="line"/>
      <point x="310" y="481" type="line"/>
      <point x="310" y="462" type="line"/>
      <point x="407" y="462" type="line"/>
      <point x="407" y="481" type="line"/>
      <point x="372" y="489" type="line"/>
      <point x="372" y="716" type="line"/>
      <point x="376" y="716" type="line"/>
      <point x="465" y="458" type="line"/>
      <point x="506" y="458" type="line"/>
      <point x="601" y="699" type="line"/>
      <point x="601" y="489" type="line"/>
      <point x="565" y="481" type="line"/>
      <point x="565" y="462" type="line"/>
      <point x="699" y="462" type="line"/>
      <point x="699" y="481" type="line"/>
      <point x="663" y="489" type="line"/>
      <point x="663" y="743" type="line"/>
      <point x="699" y="751" type="line"/>
      <point x="699" y="770" type="line"/>
      <point x="595" y="770" type="line"/>
      <point x="506" y="533" type="line"/>
      <point x="502" y="533" type="line"/>
      <point x="424" y="770" type="line"/>
      <point x="310" y="770" type="line"/>
      <point x="310" y="751" type="line"/>
      <point x="346" y="743" type="line"/>
    </contour>
    <contour>
      <point x="177" y="780" type="curve" smooth="yes"/>
      <point x="121" y="780"/>
      <point x="78" y="744"/>
      <point x="78" y="696" type="curve" smooth="yes"/>
      <point x="78" y="589"/>
      <point x="225" y="602"/>
      <point x="225" y="531" type="curve" smooth="yes"/>
      <point x="225" y="507"/>
      <point x="207" y="492"/>
      <point x="176" y="492" type="curve" smooth="yes"/>
      <point x="132" y="492"/>
      <point x="108" y="516"/>
      <point x="92" y="573" type="curve"/>
      <point x="77" y="571" type="line"/>
      <point x="84" y="468" type="line"/>
      <point x="97" y="468" type="line"/>
      <point x="113" y="485" type="line"/>
      <point x="136" y="471"/>
      <point x="155" y="465"/>
      <point x="177" y="465" type="curve" smooth="yes"/>
      <point x="237" y="465"/>
      <point x="282" y="504"/>
      <point x="282" y="555" type="curve" smooth="yes"/>
      <point x="282" y="660"/>
      <point x="140" y="645"/>
      <point x="140" y="717" type="curve" smooth="yes"/>
      <point x="140" y="740"/>
      <point x="155" y="753"/>
      <point x="179" y="753" type="curve" smooth="yes"/>
      <point x="216" y="753"/>
      <point x="239" y="732"/>
      <point x="252" y="688" type="curve"/>
      <point x="267" y="688" type="line"/>
      <point x="264" y="776" type="line"/>
      <point x="251" y="776" type="line"/>
      <point x="238" y="755" type="line"/>
      <point x="220" y="772"/>
      <point x="201" y="780"/>
    </contour>
  </outline>
</glyph>
<glyph name="trademark" format="1">
  <advance width="841"/>
  <unicode hex="2122"/>
  <outline>
    <contour>
      <point x="415" y="489" type="line"/>
      <point x="379" y="481" type="line"/>
      <point x="379" y="462" type="line"/>
      <point x="476" y="462" type="line"/>
      <point x="476" y="481" type="line"/>
      <point x="441" y="489" type="line"/>
      <point x="441" y="716" type="line"/>
      <point x="445" y="716" type="line"/>
      <point x="534" y="458" type="line"/>
      <point x="575" y="458" type="line"/>
      <point x="670" y="699" type="line"/>
      <point x="670" y="489" type="line"/>
      <point x="634" y="481" type="line"/>
      <point x="634" y="462" type="line"/>
      <point x="768" y="462" type="line"/>
      <point x="768" y="481" type="line"/>
      <point x="732" y="489" type="line"/>
      <point x="732" y="743" type="line"/>
      <point x="768" y="751" type="line"/>
      <point x="768" y="770" type="line"/>
      <point x="664" y="770" type="line"/>
      <point x="575" y="533" type="line"/>
      <point x="571" y="533" type="line"/>
      <point x="493" y="770" type="line"/>
      <point x="379" y="770" type="line"/>
      <point x="379" y="751" type="line"/>
      <point x="415" y="743" type="line"/>
    </contour>
    <contour>
      <point x="184" y="489" type="line"/>
      <point x="140" y="481" type="line"/>
      <point x="140" y="462" type="line"/>
      <point x="300" y="462" type="line"/>
      <point x="300" y="481" type="line"/>
      <point x="256" y="489" type="line"/>
      <point x="256" y="744" type="line"/>
      <point x="305" y="744" type="line"/>
      <point x="342" y="672" type="line"/>
      <point x="367" y="672" type="line"/>
      <point x="352" y="770" type="line"/>
      <point x="87" y="770" type="line"/>
      <point x="72" y="672" type="line"/>
      <point x="97" y="672" type="line"/>
      <point x="134" y="744" type="line"/>
      <point x="184" y="744" type="line"/>
    </contour>
  </outline>
</glyph>
<glyph name="minus" format="1">
  <advance width="566"/>
  <unicode hex="2212"/>
  <outline>
    <contour>
      <point x="488" y="315" type="line"/>
      <point x="488" y="364" type="line"/>
      <point x="78" y="364" type="line"/>
      <point x="78" y="315" type="line"/>
    </contour>
  </outline>
</glyph>
<glyph name="f_f_i" format="1">
  <advance width="948"/>
  <unicode hex="FB03"/>
  <outline>
    <contour>
      <point x="23" y="498" type="line"/>
      <point x="111" y="498" type="line"/>
      <point x="111" y="34" type="line"/>
      <point x="36" y="19" type="line"/>
      <point x="36" y="0" type="line"/>
      <point x="312" y="0" type="line"/>
      <point x="312" y="19" type="line"/>
      <point x="206" y="34" type="line"/>
      <point x="206" y="498" type="line"/>
      <point x="438" y="498" type="line"/>
      <point x="438" y="34" type="line"/>
      <point x="363" y="19" type="line"/>
      <point x="363" y="0" type="line"/>
      <point x="639" y="0" type="line"/>
      <point x="639" y="19" type="line"/>
      <point x="533" y="34" type="line"/>
      <point x="533" y="498" type="line"/>
      <point x="681" y="498" type="line"/>
      <point x="755" y="466" type="line"/>
      <point x="755" y="35" type="line"/>
      <point x="679" y="20" type="line"/>
      <point x="679" y="0" type="line"/>
      <point x="925" y="0" type="line"/>
      <point x="925" y="20" type="line"/>
      <point x="850" y="35" type="line"/>
      <point x="850" y="540" type="line"/>
      <point x="841" y="540" type="line"/>
      <point x="681" y="530" type="line"/>
      <point x="533" y="530" type="line"/>
      <point x="533" y="585" type="line" smooth="yes"/>
      <point x="533" y="672"/>
      <point x="538" y="706"/>
      <point x="551" y="729" type="curve" smooth="yes"/>
      <point x="576" y="773"/>
      <point x="609" y="794"/>
      <point x="664" y="794" type="curve" smooth="yes"/>
      <point x="706" y="794"/>
      <point x="720" y="784"/>
      <point x="733" y="742" type="curve" smooth="yes"/>
      <point x="747" y="700"/>
      <point x="767" y="681"/>
      <point x="796" y="681" type="curve" smooth="yes"/>
      <point x="829" y="681"/>
      <point x="851" y="705"/>
      <point x="851" y="739" type="curve" smooth="yes"/>
      <point x="851" y="794"/>
      <point x="785" y="830"/>
      <point x="673" y="830" type="curve" smooth="yes"/>
      <point x="595" y="830"/>
      <point x="522" y="799"/>
      <point x="479" y="747" type="curve"/>
      <point x="451" y="767"/>
      <point x="406" y="780"/>
      <point x="352" y="780" type="curve" smooth="yes"/>
      <point x="244" y="780"/>
      <point x="155" y="730"/>
      <point x="126" y="653" type="curve" smooth="yes"/>
      <point x="116" y="627"/>
      <point x="112" y="599"/>
      <point x="111" y="530" type="curve"/>
      <point x="35" y="530" type="line"/>
    </contour>
    <contour>
      <point x="206" y="530" type="line" smooth="yes"/>
      <point x="206" y="631"/>
      <point x="208" y="651"/>
      <point x="224" y="681" type="curve" smooth="yes"/>
      <point x="247" y="726"/>
      <point x="278" y="746"/>
      <point x="324" y="746" type="curve" smooth="yes"/>
      <point x="387" y="746"/>
      <point x="430" y="710"/>
      <point x="441" y="648" type="curve"/>
      <point x="439" y="620"/>
      <point x="438" y="582"/>
      <point x="438" y="530" type="curve"/>
    </contour>
  </outline>
</glyph>
<glyph name="s_t" format="1">
  <advance width="766"/>
  <unicode hex="FB06"/>
  <outline>
    <contour>
      <point x="213" y="-10" type="curve" smooth="yes"/>
      <point x="322" y="-10"/>
      <point x="391" y="53"/>
      <point x="391" y="152" type="curve" smooth="yes"/>
      <point x="391" y="340"/>
      <point x="142" y="295"/>
      <point x="142" y="429" type="curve" smooth="yes"/>
      <point x="142" y="479"/>
      <point x="177" y="510"/>
      <point x="228" y="510" type="curve" smooth="yes"/>
      <point x="265" y="510"/>
      <point x="280" y="494"/>
      <point x="294" y="450" type="curve" smooth="yes"/>
      <point x="303" y="421"/>
      <point x="314" y="387"/>
      <point x="351" y="387" type="curve" smooth="yes"/>
      <point x="379" y="387"/>
      <point x="399" y="406"/>
      <point x="399" y="437" type="curve" smooth="yes"/>
      <point x="399" y="482"/>
      <point x="358" y="518"/>
      <point x="298" y="534" type="curve"/>
      <point x="247" y="561"/>
      <point x="224" y="600"/>
      <point x="224" y="657" type="curve" smooth="yes"/>
      <point x="224" y="748"/>
      <point x="284" y="805"/>
      <point x="380" y="805" type="curve" smooth="yes"/>
      <point x="476" y="805"/>
      <point x="528" y="748"/>
      <point x="528" y="645" type="curve" smooth="yes"/>
      <point x="528" y="569"/>
      <point x="500" y="524"/>
      <point x="445" y="511" type="curve"/>
      <point x="447" y="495" type="line"/>
      <point x="512" y="495" type="line"/>
      <point x="512" y="132" type="line" smooth="yes"/>
      <point x="512" y="36"/>
      <point x="547" y="-10"/>
      <point x="620" y="-10" type="curve" smooth="yes"/>
      <point x="677" y="-10"/>
      <point x="727" y="17"/>
      <point x="759" y="65" type="curve"/>
      <point x="742" y="78" type="line"/>
      <point x="718" y="50"/>
      <point x="692" y="37"/>
      <point x="662" y="37" type="curve" smooth="yes"/>
      <point x="620" y="37"/>
      <point x="607" y="62"/>
      <point x="607" y="141" type="curve" smooth="yes"/>
      <point x="607" y="495" type="line"/>
      <point x="742" y="495" type="line"/>
      <point x="750" y="530" type="line"/>
      <point x="607" y="530" type="line"/>
      <point x="611" y="558"/>
      <point x="613" y="585"/>
      <point x="613" y="609" type="curve" smooth="yes"/>
      <point x="613" y="759"/>
      <point x="534" y="840"/>
      <point x="390" y="840" type="curve" smooth="yes"/>
      <point x="256" y="840"/>
      <point x="159" y="769"/>
      <point x="159" y="676" type="curve" smooth="yes"/>
      <point x="159" y="617"/>
      <point x="197" y="562"/>
      <point x="245" y="545" type="curve"/>
      <point x="245" y="541" type="line"/>
      <point x="237" y="542"/>
      <point x="234" y="542"/>
      <point x="232" y="542" type="curve" smooth="yes"/>
      <point x="127" y="542"/>
      <point x="63" y="486"/>
      <point x="63" y="395" type="curve" smooth="yes"/>
      <point x="63" y="214"/>
      <point x="314" y="251"/>
      <point x="314" y="112" type="curve" smooth="yes"/>
      <point x="314" y="59"/>
      <point x="277" y="22"/>
      <point x="223" y="22" type="curve" smooth="yes"/>
      <point x="175" y="22"/>
      <point x="163" y="51"/>
      <point x="150" y="90" type="curve" smooth="yes"/>
      <point x="135" y="135"/>
      <point x="126" y="153"/>
      <point x="95" y="153" type="curve" smooth="yes"/>
      <point x="64" y="153"/>
      <point x="45" y="134"/>
      <point x="45" y="101" type="curve" smooth="yes"/>
      <point x="45" y="38"/>
      <point x="117" y="-10"/>
    </contour>
  </outline>
</glyph>
<glyph name="Euro.tnum" format="1">
  <advance width="600"/>
  <outline>
    <contour>
      <point x="363" y="-10" type="curve" smooth="yes" name="hr00"/>
      <point x="465" y="-10"/>
      <point x="544" y="50"/>
      <point x="544" y="127" type="curve" smooth="yes"/>
      <point x="544" y="167"/>
      <point x="524" y="189"/>
      <point x="489" y="189" type="curve" smooth="yes"/>
      <point x="455" y="189"/>
      <point x="434" y="166"/>
      <point x="424" y="121" type="curve" smooth="yes"/>
      <point x="412" y="63"/>
      <point x="387" y="31"/>
      <point x="345" y="31" type="curve" smooth="yes"/>
      <point x="255" y="31"/>
      <point x="211" y="147"/>
      <point x="211" y="382" type="curve" smooth="yes"/>
      <point x="211" y="621"/>
      <point x="256" y="739"/>
      <point x="350" y="739" type="curve" smooth="yes"/>
      <point x="394" y="739"/>
      <point x="418" y="716"/>
      <point x="429" y="659" type="curve" smooth="yes"/>
      <point x="437" y="615"/>
      <point x="458" y="591"/>
      <point x="490" y="591" type="curve" smooth="yes"/>
      <point x="523" y="591"/>
      <point x="544" y="614"/>
      <point x="544" y="651" type="curve" smooth="yes"/>
      <point x="544" y="722"/>
      <point x="466" y="780"/>
      <point x="368" y="780" type="curve" smooth="yes"/>
      <point x="206" y="780"/>
      <point x="89" y="612"/>
      <point x="89" y="382" type="curve" smooth="yes"/>
      <point x="89" y="153"/>
      <point x="203" y="-10"/>
    </contour>
    <contour>
      <point x="451" y="421" type="line"/>
      <point x="461" y="465" type="line"/>
      <point x="30" y="465" type="line"/>
      <point x="20" y="421" type="line"/>
    </contour>
    <contour>
      <point x="431" y="300" type="line"/>
      <point x="441" y="344" type="line"/>
      <point x="10" y="344" type="line"/>
      <point x="0" y="300" type="line"/>
    </contour>
  </outline>
</glyph>
<glyph name="bar.tnum" format="1">
  <advance width="300"/>
  <outline>
    <contour>
      <point x="185" y="-170" type="line"/>
      <point x="185" y="819" type="line"/>
      <point x="115" y="819" type="line"/>
      <point x="115" y="-170" type="line"/>
    </contour>
  </outline>
</glyph>
<glyph name="breve.cap" format="1">
  <advance width="304"/>
  <outline>
    <contour>
      <point x="45" y="959" type="line"/>
      <point x="61" y="920"/>
      <point x="104" y="904"/>
      <point x="151" y="904" type="curve" smooth="yes"/>
      <point x="195" y="904"/>
      <point x="237" y="920"/>
      <point x="260" y="959" type="curve"/>
      <point x="294" y="959" type="line"/>
      <point x="262" y="844"/>
      <point x="190" y="830"/>
      <point x="147" y="830" type="curve" smooth="yes"/>
      <point x="89" y="830"/>
      <point x="21" y="862"/>
      <point x="10" y="959" type="curve"/>
    </contour>
    <contour>
      <point x="147" y="830" type="move" name="_topcap"/>
    </contour>
  </outline>
</glyph>
<glyph name="c_t" format="1">
  <advance width="895"/>
  <outline>
    <contour>
      <point x="290" y="-10" type="curve" smooth="yes"/>
      <point x="387" y="-10"/>
      <point x="462" y="40"/>
      <point x="496" y="128" type="curve" smooth="yes"/>
      <point x="501" y="141" type="line"/>
      <point x="482" y="151" type="line"/>
      <point x="471" y="136" type="line" smooth="yes"/>
      <point x="436" y="89"/>
      <point x="382" y="63"/>
      <point x="319" y="63" type="curve" smooth="yes"/>
      <point x="209" y="63"/>
      <point x="148" y="142"/>
      <point x="148" y="283" type="curve" smooth="yes"/>
      <point x="148" y="423"/>
      <point x="209" y="508"/>
      <point x="310" y="508" type="curve" smooth="yes"/>
      <point x="347" y="508"/>
      <point x="360" y="496"/>
      <point x="377" y="448" type="curve" smooth="yes"/>
      <point x="395" y="395"/>
      <point x="403" y="385"/>
      <point x="430" y="385" type="curve" smooth="yes"/>
      <point x="462" y="385"/>
      <point x="482" y="404"/>
      <point x="482" y="436" type="curve" smooth="yes"/>
      <point x="482" y="472"/>
      <point x="454" y="499"/>
      <point x="414" y="521" type="curve" smooth="yes"/>
      <point x="369" y="546"/>
      <point x="353" y="586"/>
      <point x="353" y="641" type="curve" smooth="yes"/>
      <point x="353" y="742"/>
      <point x="415" y="805"/>
      <point x="512" y="805" type="curve" smooth="yes"/>
      <point x="605" y="805"/>
      <point x="657" y="747"/>
      <point x="657" y="645" type="curve" smooth="yes"/>
      <point x="657" y="569"/>
      <point x="629" y="524"/>
      <point x="574" y="511" type="curve"/>
      <point x="576" y="495" type="line"/>
      <point x="641" y="495" type="line"/>
      <point x="641" y="132" type="line" smooth="yes"/>
      <point x="641" y="36"/>
      <point x="676" y="-10"/>
      <point x="749" y="-10" type="curve" smooth="yes"/>
      <point x="806" y="-10"/>
      <point x="856" y="17"/>
      <point x="888" y="65" type="curve"/>
      <point x="871" y="78" type="line"/>
      <point x="847" y="50"/>
      <point x="821" y="37"/>
      <point x="791" y="37" type="curve" smooth="yes"/>
      <point x="749" y="37"/>
      <point x="736" y="62"/>
      <point x="736" y="141" type="curve" smooth="yes"/>
      <point x="736" y="495" type="line"/>
      <point x="871" y="495" type="line"/>
      <point x="879" y="530" type="line"/>
      <point x="736" y="530" type="line"/>
      <point x="740" y="558"/>
      <point x="742" y="585"/>
      <point x="742" y="609" type="curve" smooth="yes"/>
      <point x="742" y="757"/>
      <point x="663" y="840"/>
      <point x="522" y="840" type="curve" smooth="yes"/>
      <point x="386" y="840"/>
      <point x="288" y="763"/>
      <point x="288" y="656" type="curve" smooth="yes"/>
      <point x="288" y="610"/>
      <point x="307" y="567"/>
      <point x="345" y="542" type="curve"/>
      <point x="345" y="538" type="line"/>
      <point x="339" y="539"/>
      <point x="324" y="540"/>
      <point x="313" y="540" type="curve" smooth="yes"/>
      <point x="156" y="540"/>
      <point x="46" y="424"/>
      <point x="46" y="258" type="curve" smooth="yes"/>
      <point x="46" y="100"/>
      <point x="147" y="-10"/>
    </contour>
  </outline>
</glyph>
<glyph name="caron.alt" format="1">
  <advance width="107"/>
  <outline>
    <contour>
      <point x="10" y="642" type="line"/>
      <point x="17" y="805" type="line" smooth="yes"/>
      <point x="19" y="838"/>
      <point x="32" y="857"/>
      <point x="68" y="857" type="curve" smooth="yes"/>
      <point x="86" y="857"/>
      <point x="97" y="844"/>
      <point x="97" y="822" type="curve" smooth="yes"/>
      <point x="97" y="810"/>
      <point x="92" y="795"/>
      <point x="85" y="775" type="curve" smooth="yes"/>
      <point x="36" y="642" type="line"/>
    </contour>
    <contour>
      <point x="53" y="651" type="move" name="_top"/>
    </contour>
  </outline>
</glyph>
<glyph name="caron.cap" format="1">
  <advance width="315"/>
  <outline>
    <contour>
      <point x="157" y="820" type="curve" smooth="yes"/>
      <point x="180" y="820"/>
      <point x="193" y="828"/>
      <point x="212" y="847" type="curve" smooth="yes"/>
      <point x="305" y="943" type="line"/>
      <point x="286" y="960" type="line"/>
      <point x="157" y="902" type="line"/>
      <point x="30" y="960" type="line"/>
      <point x="10" y="943" type="line"/>
      <point x="104" y="847" type="line" smooth="yes"/>
      <point x="121" y="830"/>
      <point x="132" y="820"/>
    </contour>
    <contour>
      <point x="157" y="820" type="move" name="_topcap"/>
    </contour>
  </outline>
</glyph>
<glyph name="cent.tnum" format="1">
  <advance width="600"/>
  <outline>
    <contour>
      <point x="338" y="540" type="curve" smooth="yes"/>
      <point x="182" y="540"/>
      <point x="72" y="423"/>
      <point x="72" y="258" type="curve" smooth="yes"/>
      <point x="72" y="100"/>
      <point x="173" y="-10"/>
      <point x="316" y="-10" type="curve" smooth="yes"/>
      <point x="413" y="-10"/>
      <point x="488" y="40"/>
      <point x="522" y="128" type="curve" smooth="yes"/>
      <point x="527" y="141" type="line"/>
      <point x="508" y="151" type="line"/>
      <point x="497" y="136" type="line" smooth="yes"/>
      <point x="461" y="87"/>
      <point x="406" y="63"/>
      <point x="346" y="63" type="curve" smooth="yes"/>
      <point x="237" y="63"/>
      <point x="174" y="142"/>
      <point x="174" y="278" type="curve" smooth="yes"/>
      <point x="174" y="418"/>
      <point x="246" y="508"/>
      <point x="322" y="508" type="curve" smooth="yes"/>
      <point x="381" y="508"/>
      <point x="414" y="487"/>
      <point x="423" y="428" type="curve" smooth="yes"/>
      <point x="430" y="385"/>
      <point x="447" y="365"/>
      <point x="482" y="365" type="curve" smooth="yes"/>
      <point x="511" y="365"/>
      <point x="528" y="388"/>
      <point x="528" y="422" type="curve" smooth="yes"/>
      <point x="528" y="486"/>
      <point x="446" y="540"/>
    </contour>
    <contour>
      <point x="344" y="670" type="line"/>
      <point x="302" y="670" type="line"/>
      <point x="302" y="-130" type="line"/>
      <point x="344" y="-130" type="line"/>
    </contour>
  </outline>
</glyph>
<glyph name="dieresis.cap" format="1">
  <advance width="317"/>
  <outline>
    <contour>
      <point x="10" y="912" type="curve" smooth="yes"/>
      <point x="10" y="882"/>
      <point x="32" y="857"/>
      <point x="65" y="857" type="curve" smooth="yes"/>
      <point x="99" y="857"/>
      <point x="120" y="882"/>
      <point x="120" y="912" type="curve" smooth="yes"/>
      <point x="120" y="944"/>
      <point x="99" y="967"/>
      <point x="65" y="967" type="curve" smooth="yes"/>
      <point x="32" y="967"/>
      <point x="10" y="944"/>
    </contour>
    <contour>
      <point x="197" y="912" type="curve" smooth="yes"/>
      <point x="197" y="882"/>
      <point x="219" y="857"/>
      <point x="252" y="857" type="curve" smooth="yes"/>
      <point x="286" y="857"/>
      <point x="307" y="882"/>
      <point x="307" y="912" type="curve" smooth="yes"/>
      <point x="307" y="944"/>
      <point x="286" y="967"/>
      <point x="252" y="967" type="curve" smooth="yes"/>
      <point x="219" y="967"/>
      <point x="197" y="944"/>
    </contour>
    <contour>
      <point x="158" y="857" type="move" name="_topcap"/>
    </contour>
  </outline>
</glyph>
<glyph name="dollar.tnum" format="1">
  <advance width="600"/>
  <outline>
    <contour>
      <point x="321" y="780" type="curve" smooth="yes" name="hr00"/>
      <point x="189" y="780"/>
      <point x="92" y="690"/>
      <point x="92" y="568" type="curve" smooth="yes"/>
      <point x="92" y="334"/>
      <point x="425" y="354"/>
      <point x="425" y="159" type="curve" smooth="yes"/>
      <point x="425" y="83"/>
      <point x="374" y="32"/>
      <point x="297" y="32" type="curve" smooth="yes"/>
      <point x="242" y="32"/>
      <point x="210" y="58"/>
      <point x="198" y="112" type="curve" smooth="yes"/>
      <point x="188" y="158"/>
      <point x="168" y="180"/>
      <point x="137" y="180" type="curve" smooth="yes"/>
      <point x="104" y="180"/>
      <point x="83" y="157"/>
      <point x="83" y="121" type="curve" smooth="yes"/>
      <point x="83" y="49"/>
      <point x="170" y="-9"/>
      <point x="277" y="-9" type="curve" smooth="yes"/>
      <point x="414" y="-9"/>
      <point x="517" y="88"/>
      <point x="517" y="218" type="curve" smooth="yes"/>
      <point x="517" y="453"/>
      <point x="197" y="428"/>
      <point x="197" y="623" type="curve" smooth="yes"/>
      <point x="197" y="692"/>
      <point x="241" y="739"/>
      <point x="306" y="739" type="curve" smooth="yes"/>
      <point x="350" y="739"/>
      <point x="379" y="712"/>
      <point x="391" y="659" type="curve" smooth="yes"/>
      <point x="401" y="612"/>
      <point x="420" y="591"/>
      <point x="452" y="591" type="curve" smooth="yes"/>
      <point x="485" y="591"/>
      <point x="506" y="614"/>
      <point x="506" y="650" type="curve" smooth="yes"/>
      <point x="506" y="722"/>
      <point x="424" y="780"/>
    </contour>
    <contour>
      <point x="330" y="888" type="line"/>
      <point x="288" y="888" type="line"/>
      <point x="288" y="-102" type="line"/>
      <point x="330" y="-102" type="line"/>
    </contour>
  </outline>
</glyph>
<glyph name="eight.denominator" format="1">
  <advance width="394"/>
  <outline>
    <contour>
      <point x="250" y="256" type="curve"/>
      <point x="300" y="278"/>
      <point x="327" y="312"/>
      <point x="327" y="353" type="curve" smooth="yes"/>
      <point x="327" y="414"/>
      <point x="274" y="455"/>
      <point x="198" y="455" type="curve" smooth="yes"/>
      <point x="118" y="455"/>
      <point x="63" y="408"/>
      <point x="63" y="335" type="curve" smooth="yes"/>
      <point x="63" y="288"/>
      <point x="85" y="251"/>
      <point x="135" y="218" type="curve"/>
      <point x="75" y="192"/>
      <point x="47" y="157"/>
      <point x="47" y="111" type="curve" smooth="yes"/>
      <point x="47" y="41"/>
      <point x="102" y="-10"/>
      <point x="192" y="-10" type="curve" smooth="yes"/>
      <point x="282" y="-10"/>
      <point x="347" y="47"/>
      <point x="347" y="128" type="curve" smooth="yes"/>
      <point x="347" y="180"/>
      <point x="318" y="218"/>
    </contour>
    <contour>
      <point x="218" y="272" type="curve"/>
      <point x="156" y="301"/>
      <point x="131" y="327"/>
      <point x="131" y="362" type="curve" smooth="yes"/>
      <point x="131" y="398"/>
      <point x="156" y="420"/>
      <point x="194" y="420" type="curve" smooth="yes"/>
      <point x="235" y="420"/>
      <point x="261" y="395"/>
      <point x="261" y="353" type="curve" smooth="yes"/>
      <point x="261" y="323"/>
      <point x="246" y="296"/>
    </contour>
    <contour>
      <point x="164" y="201" type="curve"/>
      <point x="243" y="169"/>
      <point x="276" y="137"/>
      <point x="276" y="94" type="curve" smooth="yes"/>
      <point x="276" y="53"/>
      <point x="246" y="26"/>
      <point x="201" y="26" type="curve" smooth="yes"/>
      <point x="150" y="26"/>
      <point x="120" y="59"/>
      <point x="120" y="118" type="curve" smooth="yes"/>
      <point x="120" y="156"/>
      <point x="136" y="186"/>
    </contour>
  </outline>
</glyph>
<glyph name="eight.tnum" format="1">
  <advance width="600"/>
  <outline>
    <contour>
      <point x="373" y="440" type="curve" name="hr00"/>
      <point x="458" y="482"/>
      <point x="503" y="541"/>
      <point x="503" y="612" type="curve" smooth="yes"/>
      <point x="503" y="709"/>
      <point x="417" y="780"/>
      <point x="298" y="780" type="curve" smooth="yes"/>
      <point x="172" y="780"/>
      <point x="80" y="700"/>
      <point x="80" y="589" type="curve" smooth="yes"/>
      <point x="80" y="516"/>
      <point x="121" y="457"/>
      <point x="211" y="398" type="curve"/>
      <point x="106" y="344"/>
      <point x="56" y="279"/>
      <point x="56" y="195" type="curve" smooth="yes"/>
      <point x="56" y="77"/>
      <point x="155" y="-10"/>
      <point x="289" y="-10" type="curve" smooth="yes"/>
      <point x="430" y="-10"/>
      <point x="538" y="88"/>
      <point x="538" y="215" type="curve" smooth="yes"/>
      <point x="538" y="302"/>
      <point x="487" y="371"/>
    </contour>
    <contour>
      <point x="326" y="460" type="curve"/>
      <point x="220" y="508"/>
      <point x="174" y="557"/>
      <point x="174" y="623" type="curve" smooth="yes"/>
      <point x="174" y="691"/>
      <point x="221" y="735"/>
      <point x="292" y="735" type="curve" smooth="yes"/>
      <point x="366" y="735"/>
      <point x="415" y="686"/>
      <point x="415" y="612" type="curve" smooth="yes"/>
      <point x="415" y="554"/>
      <point x="386" y="504"/>
    </contour>
    <contour>
      <point x="253" y="376" type="curve"/>
      <point x="390" y="315"/>
      <point x="447" y="255"/>
      <point x="447" y="171" type="curve" smooth="yes"/>
      <point x="447" y="88"/>
      <point x="391" y="35"/>
      <point x="304" y="35" type="curve" smooth="yes"/>
      <point x="212" y="35"/>
      <point x="156" y="96"/>
      <point x="156" y="196" type="curve" smooth="yes"/>
      <point x="156" y="273"/>
      <point x="190" y="337"/>
    </contour>
  </outline>
</glyph>
<glyph name="f_b" format="1">
  <advance width="939"/>
  <outline>
    <contour>
      <point x="36" y="0" type="line"/>
      <point x="312" y="0" type="line"/>
      <point x="312" y="19" type="line"/>
      <point x="206" y="34" type="line"/>
      <point x="206" y="498" type="line"/>
      <point x="349" y="498" type="line"/>
      <point x="361" y="530" type="line"/>
      <point x="206" y="530" type="line"/>
      <point x="206" y="585" type="line" smooth="yes"/>
      <point x="206" y="681"/>
      <point x="208" y="701"/>
      <point x="224" y="731" type="curve" smooth="yes"/>
      <point x="247" y="776"/>
      <point x="278" y="796"/>
      <point x="334" y="796" type="curve" smooth="yes"/>
      <point x="386" y="796"/>
      <point x="428" y="759"/>
      <point x="428" y="709" type="curve" smooth="yes"/>
      <point x="428" y="2" type="line"/>
      <point x="444" y="2" type="line"/>
      <point x="486" y="36" type="line"/>
      <point x="491" y="36" type="line"/>
      <point x="531" y="6"/>
      <point x="579" y="-10"/>
      <point x="629" y="-10" type="curve" smooth="yes"/>
      <point x="779" y="-10"/>
      <point x="893" y="118"/>
      <point x="893" y="287" type="curve" smooth="yes"/>
      <point x="893" y="437"/>
      <point x="803" y="540"/>
      <point x="672" y="540" type="curve" smooth="yes"/>
      <point x="613" y="540"/>
      <point x="562" y="517"/>
      <point x="520" y="472" type="curve"/>
      <point x="520" y="776" type="line" smooth="yes"/>
      <point x="520" y="807"/>
      <point x="443" y="830"/>
      <point x="352" y="830" type="curve" smooth="yes"/>
      <point x="244" y="830"/>
      <point x="155" y="780"/>
      <point x="126" y="703" type="curve" smooth="yes"/>
      <point x="114" y="672"/>
      <point x="111" y="636"/>
      <point x="111" y="530" type="curve"/>
      <point x="35" y="530" type="line"/>
      <point x="23" y="498" type="line"/>
      <point x="111" y="498" type="line"/>
      <point x="111" y="34" type="line"/>
      <point x="36" y="19" type="line"/>
    </contour>
    <contour>
      <point x="629" y="24" type="curve" smooth="yes"/>
      <point x="563" y="24"/>
      <point x="520" y="74"/>
      <point x="520" y="150" type="curve" smooth="yes"/>
      <point x="520" y="434" type="line"/>
      <point x="546" y="466"/>
      <point x="585" y="486"/>
      <point x="630" y="486" type="curve" smooth="yes"/>
      <point x="727" y="486"/>
      <point x="786" y="400"/>
      <point x="786" y="259" type="curve" smooth="yes"/>
      <point x="786" y="118"/>
      <point x="724" y="24"/>
    </contour>
  </outline>
</glyph>
<glyph name="f_f_t" format="1">
  <advance width="1009"/>
  <outline>
    <contour>
      <point x="866" y="-10" type="curve" smooth="yes"/>
      <point x="920" y="-10"/>
      <point x="972" y="19"/>
      <point x="1002" y="65" type="curve"/>
      <point x="985" y="78" type="line"/>
      <point x="965" y="53"/>
      <point x="936" y="37"/>
      <point x="909" y="37" type="curve" smooth="yes"/>
      <point x="887" y="37"/>
      <point x="869" y="47"/>
      <point x="859" y="65" type="curve" smooth="yes"/>
      <point x="852" y="77"/>
      <point x="850" y="92"/>
      <point x="850" y="141" type="curve" smooth="yes"/>
      <point x="850" y="495" type="line"/>
      <point x="985" y="495" type="line"/>
      <point x="993" y="530" type="line"/>
      <point x="850" y="530" type="line"/>
      <point x="850" y="659" type="line"/>
      <point x="832" y="661" type="line"/>
      <point x="711" y="530" type="line"/>
      <point x="533" y="530" type="line"/>
      <point x="533" y="585" type="line" smooth="yes"/>
      <point x="533" y="655"/>
      <point x="534" y="697"/>
      <point x="550" y="735" type="curve" smooth="yes"/>
      <point x="569" y="780"/>
      <point x="603" y="799"/>
      <point x="633" y="799" type="curve" smooth="yes"/>
      <point x="663" y="799"/>
      <point x="671" y="780"/>
      <point x="678" y="747" type="curve" smooth="yes"/>
      <point x="683" y="723"/>
      <point x="692" y="696"/>
      <point x="727" y="696" type="curve" smooth="yes"/>
      <point x="756" y="696"/>
      <point x="776" y="714"/>
      <point x="776" y="746" type="curve" smooth="yes"/>
      <point x="776" y="796"/>
      <point x="727" y="830"/>
      <point x="653" y="830" type="curve" smooth="yes"/>
      <point x="583" y="830"/>
      <point x="516" y="799"/>
      <point x="478" y="748" type="curve"/>
      <point x="450" y="768"/>
      <point x="405" y="780"/>
      <point x="352" y="780" type="curve" smooth="yes"/>
      <point x="245" y="780"/>
      <point x="157" y="732"/>
      <point x="126" y="653" type="curve" smooth="yes"/>
      <point x="116" y="627"/>
      <point x="112" y="599"/>
      <point x="111" y="530" type="curve"/>
      <point x="35" y="530" type="line"/>
      <point x="23" y="498" type="line"/>
      <point x="111" y="498" type="line"/>
      <point x="111" y="34" type="line"/>
      <point x="36" y="19" type="line"/>
      <point x="36" y="0" type="line"/>
      <point x="312" y="0" type="line"/>
      <point x="312" y="19" type="line"/>
      <point x="206" y="34" type="line"/>
      <point x="206" y="498" type="line"/>
      <point x="438" y="498" type="line"/>
      <point x="438" y="34" type="line"/>
      <point x="363" y="19" type="line"/>
      <point x="363" y="0" type="line"/>
      <point x="639" y="0" type="line"/>
      <point x="639" y="19" type="line"/>
      <point x="533" y="34" type="line"/>
      <point x="533" y="498" type="line"/>
      <point x="755" y="498" type="line"/>
      <point x="755" y="132" type="line" smooth="yes"/>
      <point x="755" y="71"/>
      <point x="764" y="40"/>
      <point x="788" y="18" type="curve" smooth="yes"/>
      <point x="807" y="0"/>
      <point x="835" y="-10"/>
    </contour>
    <contour>
      <point x="206" y="530" type="line" smooth="yes"/>
      <point x="206" y="631"/>
      <point x="208" y="651"/>
      <point x="224" y="681" type="curve" smooth="yes"/>
      <point x="248" y="727"/>
      <point x="278" y="746"/>
      <point x="324" y="746" type="curve" smooth="yes"/>
      <point x="387" y="746"/>
      <point x="429" y="711"/>
      <point x="441" y="649" type="curve"/>
      <point x="439" y="623"/>
      <point x="438" y="586"/>
      <point x="438" y="530" type="curve"/>
    </contour>
  </outline>
</glyph>
<glyph name="f_h" format="1">
  <advance width="945"/>
  <outline>
    <contour>
      <point x="36" y="0" type="line"/>
      <point x="312" y="0" type="line"/>
      <point x="312" y="19" type="line"/>
      <point x="206" y="34" type="line"/>
      <point x="206" y="498" type="line"/>
      <point x="339" y="498" type="line"/>
      <point x="351" y="530" type="line"/>
      <point x="206" y="530" type="line"/>
      <point x="206" y="585" type="line" smooth="yes"/>
      <point x="206" y="681"/>
      <point x="208" y="701"/>
      <point x="224" y="731" type="curve" smooth="yes"/>
      <point x="247" y="776"/>
      <point x="278" y="796"/>
      <point x="334" y="796" type="curve" smooth="yes"/>
      <point x="388" y="796"/>
      <point x="428" y="757"/>
      <point x="428" y="705" type="curve" smooth="yes"/>
      <point x="428" y="35" type="line"/>
      <point x="352" y="20" type="line"/>
      <point x="352" y="0" type="line"/>
      <point x="595" y="0" type="line"/>
      <point x="595" y="20" type="line"/>
      <point x="520" y="35" type="line"/>
      <point x="520" y="420" type="line"/>
      <point x="559" y="462"/>
      <point x="609" y="485"/>
      <point x="664" y="485" type="curve" smooth="yes"/>
      <point x="704" y="485"/>
      <point x="729" y="470"/>
      <point x="742" y="439" type="curve" smooth="yes"/>
      <point x="751" y="417"/>
      <point x="754" y="385"/>
      <point x="754" y="328" type="curve" smooth="yes"/>
      <point x="754" y="34" type="line"/>
      <point x="679" y="20" type="line"/>
      <point x="679" y="0" type="line"/>
      <point x="924" y="0" type="line"/>
      <point x="924" y="20" type="line"/>
      <point x="849" y="34" type="line"/>
      <point x="849" y="338" type="line" smooth="yes"/>
      <point x="849" y="434"/>
      <point x="847" y="459"/>
      <point x="836" y="480" type="curve" smooth="yes"/>
      <point x="817" y="517"/>
      <point x="773" y="540"/>
      <point x="720" y="540" type="curve" smooth="yes"/>
      <point x="653" y="540"/>
      <point x="581" y="510"/>
      <point x="520" y="457" type="curve"/>
      <point x="520" y="776" type="line" smooth="yes"/>
      <point x="520" y="807"/>
      <point x="443" y="830"/>
      <point x="352" y="830" type="curve" smooth="yes"/>
      <point x="244" y="830"/>
      <point x="155" y="780"/>
      <point x="126" y="703" type="curve" smooth="yes"/>
      <point x="114" y="672"/>
      <point x="111" y="636"/>
      <point x="111" y="530" type="curve"/>
      <point x="35" y="530" type="line"/>
      <point x="23" y="498" type="line"/>
      <point x="111" y="498" type="line"/>
      <point x="111" y="34" type="line"/>
      <point x="36" y="19" type="line"/>
    </contour>
  </outline>
</glyph>
<glyph name="f_j" format="1">
  <advance width="609"/>
  <outline>
    <contour>
      <point x="36" y="0" type="line"/>
      <point x="312" y="0" type="line"/>
      <point x="312" y="19" type="line"/>
      <point x="206" y="34" type="line"/>
      <point x="206" y="498" type="line"/>
      <point x="354" y="498" type="line"/>
      <point x="428" y="486" type="line"/>
      <point x="428" y="-48" type="line" smooth="yes"/>
      <point x="428" y="-159"/>
      <point x="401" y="-213"/>
      <point x="345" y="-213" type="curve" smooth="yes"/>
      <point x="320" y="-213"/>
      <point x="309" y="-202"/>
      <point x="295" y="-164" type="curve" smooth="yes"/>
      <point x="284" y="-134"/>
      <point x="268" y="-118"/>
      <point x="240" y="-118" type="curve" smooth="yes"/>
      <point x="207" y="-118"/>
      <point x="186" y="-141"/>
      <point x="186" y="-178" type="curve" smooth="yes"/>
      <point x="186" y="-229"/>
      <point x="228" y="-260"/>
      <point x="296" y="-260" type="curve" smooth="yes"/>
      <point x="376" y="-260"/>
      <point x="444" y="-215"/>
      <point x="490" y="-131" type="curve" smooth="yes"/>
      <point x="519" y="-78"/>
      <point x="523" y="-41"/>
      <point x="523" y="155" type="curve" smooth="yes"/>
      <point x="523" y="578" type="line"/>
      <point x="514" y="578" type="line"/>
      <point x="354" y="530" type="line"/>
      <point x="206" y="530" type="line"/>
      <point x="206" y="585" type="line" smooth="yes"/>
      <point x="206" y="672"/>
      <point x="211" y="706"/>
      <point x="224" y="729" type="curve" smooth="yes"/>
      <point x="249" y="773"/>
      <point x="282" y="794"/>
      <point x="337" y="794" type="curve" smooth="yes"/>
      <point x="379" y="794"/>
      <point x="393" y="784"/>
      <point x="406" y="742" type="curve" smooth="yes"/>
      <point x="420" y="700"/>
      <point x="440" y="681"/>
      <point x="469" y="681" type="curve" smooth="yes"/>
      <point x="502" y="681"/>
      <point x="524" y="705"/>
      <point x="524" y="739" type="curve" smooth="yes"/>
      <point x="524" y="794"/>
      <point x="458" y="830"/>
      <point x="346" y="830" type="curve" smooth="yes"/>
      <point x="248" y="830"/>
      <point x="157" y="781"/>
      <point x="126" y="703" type="curve" smooth="yes"/>
      <point x="114" y="673"/>
      <point x="111" y="627"/>
      <point x="111" y="530" type="curve"/>
      <point x="35" y="530" type="line"/>
      <point x="23" y="498" type="line"/>
      <point x="111" y="498" type="line"/>
      <point x="111" y="34" type="line"/>
      <point x="36" y="19" type="line"/>
    </contour>
  </outline>
</glyph>
<glyph name="f_t" format="1">
  <advance width="682"/>
  <outline>
    <contour>
      <point x="539" y="-10" type="curve" smooth="yes"/>
      <point x="593" y="-10"/>
      <point x="645" y="19"/>
      <point x="675" y="65" type="curve"/>
      <point x="658" y="78" type="line"/>
      <point x="638" y="53"/>
      <point x="609" y="37"/>
      <point x="582" y="37" type="curve" smooth="yes"/>
      <point x="560" y="37"/>
      <point x="542" y="47"/>
      <point x="532" y="65" type="curve" smooth="yes"/>
      <point x="525" y="77"/>
      <point x="523" y="92"/>
      <point x="523" y="141" type="curve" smooth="yes"/>
      <point x="523" y="495" type="line"/>
      <point x="658" y="495" type="line"/>
      <point x="666" y="530" type="line"/>
      <point x="523" y="530" type="line"/>
      <point x="523" y="659" type="line"/>
      <point x="505" y="661" type="line"/>
      <point x="384" y="530" type="line"/>
      <point x="206" y="530" type="line"/>
      <point x="206" y="585" type="line" smooth="yes"/>
      <point x="206" y="655"/>
      <point x="207" y="697"/>
      <point x="223" y="735" type="curve" smooth="yes"/>
      <point x="242" y="780"/>
      <point x="276" y="799"/>
      <point x="306" y="799" type="curve" smooth="yes"/>
      <point x="336" y="799"/>
      <point x="344" y="780"/>
      <point x="351" y="747" type="curve" smooth="yes"/>
      <point x="356" y="723"/>
      <point x="365" y="696"/>
      <point x="400" y="696" type="curve" smooth="yes"/>
      <point x="429" y="696"/>
      <point x="449" y="714"/>
      <point x="449" y="746" type="curve" smooth="yes"/>
      <point x="449" y="796"/>
      <point x="400" y="830"/>
      <point x="327" y="830" type="curve" smooth="yes"/>
      <point x="230" y="830"/>
      <point x="148" y="770"/>
      <point x="125" y="703" type="curve" smooth="yes"/>
      <point x="114" y="672"/>
      <point x="111" y="626"/>
      <point x="111" y="530" type="curve"/>
      <point x="35" y="530" type="line"/>
      <point x="23" y="498" type="line"/>
      <point x="111" y="498" type="line"/>
      <point x="111" y="34" type="line"/>
      <point x="36" y="19" type="line"/>
      <point x="36" y="0" type="line"/>
      <point x="312" y="0" type="line"/>
      <point x="312" y="19" type="line"/>
      <point x="206" y="34" type="line"/>
      <point x="206" y="498" type="line"/>
      <point x="428" y="498" type="line"/>
      <point x="428" y="132" type="line" smooth="yes"/>
      <point x="428" y="71"/>
      <point x="437" y="40"/>
      <point x="461" y="18" type="curve" smooth="yes"/>
      <point x="480" y="0"/>
      <point x="508" y="-10"/>
    </contour>
  </outline>
</glyph>
<glyph name="five.denominator" format="1">
  <advance width="357"/>
  <outline>
    <contour>
      <point x="126" y="361" type="line"/>
      <point x="274" y="361" type="line"/>
      <point x="298" y="461" type="line"/>
      <point x="280" y="471" type="line"/>
      <point x="263" y="442" type="line"/>
      <point x="101" y="442" type="line"/>
      <point x="68" y="190" type="line"/>
      <point x="86" y="190" type="line"/>
      <point x="104" y="200"/>
      <point x="124" y="206"/>
      <point x="147" y="206" type="curve" smooth="yes"/>
      <point x="203" y="206"/>
      <point x="242" y="169"/>
      <point x="242" y="117" type="curve" smooth="yes"/>
      <point x="242" y="65"/>
      <point x="207" y="28"/>
      <point x="161" y="28" type="curve" smooth="yes"/>
      <point x="95" y="28"/>
      <point x="122" y="110"/>
      <point x="69" y="110" type="curve" smooth="yes"/>
      <point x="47" y="110"/>
      <point x="32" y="92"/>
      <point x="32" y="66" type="curve" smooth="yes"/>
      <point x="32" y="22"/>
      <point x="79" y="-10"/>
      <point x="144" y="-10" type="curve" smooth="yes"/>
      <point x="239" y="-10"/>
      <point x="312" y="60"/>
      <point x="312" y="154" type="curve" smooth="yes"/>
      <point x="312" y="236"/>
      <point x="252" y="292"/>
      <point x="163" y="292" type="curve" smooth="yes"/>
      <point x="146" y="292"/>
      <point x="131" y="290"/>
      <point x="114" y="284" type="curve"/>
    </contour>
  </outline>
</glyph>
<glyph name="five.oldstyle" format="1">
  <advance width="425"/>
  <outline>
    <contour>
      <point x="164" y="430" type="line"/>
      <point x="338" y="430" type="line"/>
      <point x="375" y="553" type="line"/>
      <point x="354" y="560" type="line"/>
      <point x="328" y="520" type="line"/>
      <point x="137" y="520" type="line"/>
      <point x="82" y="203" type="line"/>
      <point x="213" y="175"/>
      <point x="281" y="99"/>
      <point x="281" y="-19" type="curve" smooth="yes"/>
      <point x="281" y="-108"/>
      <point x="235" y="-166"/>
      <point x="166" y="-166" type="curve" smooth="yes"/>
      <point x="107" y="-166"/>
      <point x="89" y="-119"/>
      <point x="53" y="-119" type="curve" smooth="yes"/>
      <point x="33" y="-119"/>
      <point x="20" y="-132"/>
      <point x="20" y="-150" type="curve" smooth="yes"/>
      <point x="20" y="-185"/>
      <point x="72" y="-211"/>
      <point x="141" y="-211" type="curve" smooth="yes"/>
      <point x="281" y="-211"/>
      <point x="380" y="-107"/>
      <point x="380" y="38" type="curve" smooth="yes"/>
      <point x="380" y="169"/>
      <point x="300" y="259"/>
      <point x="143" y="305" type="curve"/>
    </contour>
  </outline>
</glyph>
<glyph name="five.tnum" format="1">
  <advance width="600"/>
  <outline>
    <contour>
      <point x="223" y="667" type="line" name="hr00"/>
      <point x="480" y="667" type="line"/>
      <point x="517" y="790" type="line"/>
      <point x="496" y="797" type="line"/>
      <point x="487" y="780"/>
      <point x="479" y="767"/>
      <point x="470" y="757" type="curve"/>
      <point x="189" y="757" type="line"/>
      <point x="137" y="380" type="line"/>
      <point x="152" y="378" type="line"/>
      <point x="184" y="405"/>
      <point x="217" y="417"/>
      <point x="260" y="417" type="curve" smooth="yes"/>
      <point x="367" y="417"/>
      <point x="441" y="338"/>
      <point x="441" y="226" type="curve" smooth="yes"/>
      <point x="441" y="119"/>
      <point x="372" y="35"/>
      <point x="284" y="35" type="curve" smooth="yes"/>
      <point x="172" y="35"/>
      <point x="215" y="174"/>
      <point x="129" y="174" type="curve" smooth="yes"/>
      <point x="96" y="174"/>
      <point x="76" y="153"/>
      <point x="76" y="116" type="curve" smooth="yes"/>
      <point x="76" y="44"/>
      <point x="154" y="-10"/>
      <point x="258" y="-10" type="curve" smooth="yes"/>
      <point x="413" y="-10"/>
      <point x="535" y="111"/>
      <point x="535" y="267" type="curve" smooth="yes"/>
      <point x="535" y="410"/>
      <point x="433" y="510"/>
      <point x="285" y="510" type="curve" smooth="yes"/>
      <point x="253" y="510"/>
      <point x="228" y="505"/>
      <point x="198" y="494" type="curve"/>
    </contour>
  </outline>
</glyph>
<glyph name="four.denominator" format="1">
  <advance width="376"/>
  <outline>
    <contour>
      <point x="196" y="36" type="line"/>
      <point x="126" y="22" type="line"/>
      <point x="126" y="0" type="line"/>
      <point x="329" y="0" type="line"/>
      <point x="329" y="22" type="line"/>
      <point x="277" y="36" type="line"/>
      <point x="277" y="114" type="line"/>
      <point x="331" y="114" type="line"/>
      <point x="331" y="171" type="line"/>
      <point x="277" y="171" type="line"/>
      <point x="277" y="454" type="line"/>
      <point x="241" y="459" type="line"/>
      <point x="16" y="148" type="line"/>
      <point x="25" y="114" type="line"/>
      <point x="196" y="114" type="line"/>
    </contour>
    <contour>
      <point x="196" y="171" type="line"/>
      <point x="78" y="171" type="line"/>
      <point x="76" y="175" type="line"/>
      <point x="192" y="335" type="line"/>
      <point x="196" y="335" type="line"/>
    </contour>
  </outline>
</glyph>
<glyph name="four.tnum" format="1">
  <advance width="600"/>
  <outline>
    <contour>
      <point x="368" y="42" type="line" name="hr00"/>
      <point x="248" y="23" type="line"/>
      <point x="248" y="0" type="line"/>
      <point x="558" y="0" type="line"/>
      <point x="558" y="23" type="line"/>
      <point x="469" y="42" type="line"/>
      <point x="469" y="213" type="line"/>
      <point x="562" y="213" type="line"/>
      <point x="562" y="289" type="line"/>
      <point x="469" y="289" type="line"/>
      <point x="469" y="770" type="line"/>
      <point x="443" y="780" type="line"/>
      <point x="40" y="230" type="line"/>
      <point x="48" y="213" type="line"/>
      <point x="368" y="213" type="line"/>
    </contour>
    <contour>
      <point x="368" y="289" type="line"/>
      <point x="138" y="289" type="line"/>
      <point x="137" y="293" type="line"/>
      <point x="364" y="606" type="line"/>
      <point x="368" y="606" type="line"/>
    </contour>
  </outline>
</glyph>
<glyph name="grave.cap" format="1">
  <advance width="251"/>
  <outline>
    <contour>
      <point x="230" y="816" type="line"/>
      <point x="78" y="860" type="line" smooth="yes"/>
      <point x="26" y="875"/>
      <point x="10" y="894"/>
      <point x="10" y="917" type="curve" smooth="yes"/>
      <point x="10" y="942"/>
      <point x="31" y="960"/>
      <point x="53" y="960" type="curve" smooth="yes"/>
      <point x="69" y="960"/>
      <point x="82" y="955"/>
      <point x="97" y="944" type="curve" smooth="yes"/>
      <point x="241" y="837" type="line"/>
    </contour>
    <contour>
      <point x="145" y="830" type="move" name="_topcap"/>
    </contour>
  </outline>
</glyph>
<glyph name="greater.tnum" format="1">
  <advance width="600"/>
  <outline>
    <contour>
      <point x="506" y="315" type="line"/>
      <point x="506" y="366" type="line"/>
      <point x="97" y="561" type="line"/>
      <point x="97" y="495" type="line"/>
      <point x="434" y="341" type="line"/>
      <point x="434" y="337" type="line"/>
      <point x="97" y="181" type="line"/>
      <point x="97" y="121" type="line"/>
    </contour>
  </outline>
</glyph>
<glyph name="hungarumlaut.cap" format="1">
  <advance width="375"/>
  <outline>
    <contour>
      <point x="10" y="837" type="line"/>
      <point x="89" y="924" type="line" smooth="yes"/>
      <point x="111" y="948"/>
      <point x="131" y="960"/>
      <point x="150" y="960" type="curve" smooth="yes"/>
      <point x="174" y="960"/>
      <point x="191" y="942"/>
      <point x="191" y="918" type="curve" smooth="yes"/>
      <point x="191" y="895"/>
      <point x="178" y="883"/>
      <point x="123" y="860" type="curve" smooth="yes"/>
      <point x="21" y="816" type="line"/>
    </contour>
    <contour>
      <point x="184" y="837" type="line"/>
      <point x="263" y="924" type="line" smooth="yes"/>
      <point x="285" y="948"/>
      <point x="305" y="960"/>
      <point x="324" y="960" type="curve" smooth="yes"/>
      <point x="348" y="960"/>
      <point x="365" y="942"/>
      <point x="365" y="918" type="curve" smooth="yes"/>
      <point x="365" y="895"/>
      <point x="352" y="883"/>
      <point x="297" y="860" type="curve" smooth="yes"/>
      <point x="195" y="816" type="line"/>
    </contour>
    <contour>
      <point x="150" y="830" type="move" name="_topcap"/>
    </contour>
  </outline>
</glyph>
<glyph name="macron.cap" format="1">
  <advance width="307"/>
  <outline>
    <contour>
      <point x="297" y="877" type="line"/>
      <point x="297" y="948" type="line"/>
      <point x="10" y="948" type="line"/>
      <point x="10" y="877" type="line"/>
    </contour>
    <contour>
      <point x="152" y="830" type="move" name="_topcap"/>
    </contour>
  </outline>
</glyph>
<glyph name="minus.tnum" format="1">
  <advance width="600"/>
  <outline>
    <contour>
      <point x="505" y="315" type="line"/>
      <point x="505" y="364" type="line"/>
      <point x="95" y="364" type="line"/>
      <point x="95" y="315" type="line"/>
    </contour>
  </outline>
</glyph>
<glyph name="nine.numerator" format="1">
  <advance width="382"/>
  <outline>
    <contour>
      <point x="186" y="778" type="curve"/>
      <point x="95" y="778"/>
      <point x="33" y="720"/>
      <point x="33" y="633" type="curve" smooth="yes"/>
      <point x="33" y="557"/>
      <point x="87" y="500"/>
      <point x="162" y="500" type="curve" smooth="yes"/>
      <point x="195" y="500"/>
      <point x="225" y="512"/>
      <point x="240" y="531" type="curve"/>
      <point x="231" y="466"/>
      <point x="163" y="375"/>
      <point x="97" y="339" type="curve"/>
      <point x="108" y="315" type="line"/>
      <point x="246" y="364"/>
      <point x="336" y="482"/>
      <point x="336" y="613" type="curve" smooth="yes"/>
      <point x="336" y="715"/>
      <point x="279" y="778"/>
    </contour>
    <contour>
      <point x="182" y="743" type="curve"/>
      <point x="222" y="743"/>
      <point x="248" y="701"/>
      <point x="248" y="633" type="curve" smooth="yes"/>
      <point x="248" y="613"/>
      <point x="245" y="592"/>
      <point x="241" y="577" type="curve"/>
      <point x="229" y="557"/>
      <point x="208" y="545"/>
      <point x="187" y="545" type="curve" smooth="yes"/>
      <point x="145" y="545"/>
      <point x="120" y="583"/>
      <point x="120" y="643" type="curve" smooth="yes"/>
      <point x="120" y="704"/>
      <point x="144" y="743"/>
    </contour>
  </outline>
</glyph>
<glyph name="nine.tnum" format="1">
  <advance width="600"/>
  <outline>
    <contour>
      <point x="295" y="777" type="curve" name="hr00"/>
      <point x="146" y="777"/>
      <point x="42" y="676"/>
      <point x="42" y="531" type="curve" smooth="yes"/>
      <point x="42" y="396"/>
      <point x="131" y="303"/>
      <point x="259" y="303" type="curve" smooth="yes"/>
      <point x="320" y="303"/>
      <point x="380" y="324"/>
      <point x="409" y="355" type="curve"/>
      <point x="393" y="237"/>
      <point x="274" y="78"/>
      <point x="155" y="15" type="curve"/>
      <point x="163" y="-10" type="line"/>
      <point x="392" y="74"/>
      <point x="540" y="274"/>
      <point x="540" y="496" type="curve" smooth="yes"/>
      <point x="540" y="671"/>
      <point x="448" y="777"/>
    </contour>
    <contour>
      <point x="289" y="732" type="curve"/>
      <point x="371" y="732"/>
      <point x="423" y="653"/>
      <point x="423" y="526" type="curve" smooth="yes"/>
      <point x="423" y="489"/>
      <point x="418" y="444"/>
      <point x="411" y="414" type="curve"/>
      <point x="387" y="381"/>
      <point x="344" y="360"/>
      <point x="298" y="360" type="curve" smooth="yes"/>
      <point x="214" y="360"/>
      <point x="161" y="432"/>
      <point x="161" y="548" type="curve" smooth="yes"/>
      <point x="161" y="660"/>
      <point x="211" y="732"/>
    </contour>
  </outline>
</glyph>
<glyph name="one.denominator" format="1">
  <advance width="291"/>
  <outline>
    <contour>
      <point x="170" y="459" type="line"/>
      <point x="128" y="420"/>
      <point x="86" y="397"/>
      <point x="38" y="387" type="curve"/>
      <point x="38" y="362" type="line"/>
      <point x="111" y="362" type="line"/>
      <point x="111" y="37" type="line"/>
      <point x="37" y="22" type="line"/>
      <point x="37" y="0" type="line"/>
      <point x="266" y="0" type="line"/>
      <point x="266" y="22" type="line"/>
      <point x="192" y="37" type="line"/>
      <point x="192" y="455" type="line"/>
    </contour>
  </outline>
</glyph>
<glyph name="one.numerator" format="1">
  <advance width="295"/>
  <outline>
    <contour>
      <point x="174" y="779" type="line"/>
      <point x="132" y="740"/>
      <point x="90" y="717"/>
      <point x="42" y="707" type="curve"/>
      <point x="42" y="682" type="line"/>
      <point x="115" y="682" type="line"/>
      <point x="115" y="357" type="line"/>
      <point x="41" y="342" type="line"/>
      <point x="41" y="320" type="line"/>
      <point x="270" y="320" type="line"/>
      <point x="270" y="342" type="line"/>
      <point x="196" y="357" type="line"/>
      <point x="196" y="775" type="line"/>
    </contour>
  </outline>
</glyph>
<glyph name="one.oldstyle" format="1">
  <advance width="433"/>
  <outline>
    <contour>
      <point x="281" y="540" type="line"/>
      <point x="205" y="472"/>
      <point x="132" y="434"/>
      <point x="49" y="420" type="curve"/>
      <point x="49" y="399" type="line"/>
      <point x="197" y="399" type="line"/>
      <point x="197" y="42" type="line"/>
      <point x="45" y="22" type="line"/>
      <point x="45" y="0" type="line"/>
      <point x="421" y="0" type="line"/>
      <point x="421" y="22" type="line"/>
      <point x="302" y="42" type="line"/>
      <point x="302" y="532" type="line"/>
    </contour>
  </outline>
</glyph>
<glyph name="paragraph.tnum" format="1">
  <advance width="600"/>
  <outline>
    <contour>
      <point x="359" y="-108" type="line"/>
      <point x="359" y="730" type="line"/>
      <point x="419" y="730" type="line"/>
      <point x="419" y="-108" type="line"/>
      <point x="465" y="-108" type="line"/>
      <point x="465" y="728" type="line"/>
      <point x="543" y="745" type="line"/>
      <point x="543" y="770" type="line"/>
      <point x="282" y="770" type="line" smooth="yes"/>
      <point x="138" y="770"/>
      <point x="50" y="685"/>
      <point x="50" y="554" type="curve" smooth="yes"/>
      <point x="50" y="438"/>
      <point x="130" y="340"/>
      <point x="257" y="340" type="curve" smooth="yes"/>
      <point x="313" y="340" type="line"/>
      <point x="313" y="-108" type="line"/>
    </contour>
  </outline>
</glyph>
<glyph name="percent.tnum" format="1">
  <advance width="1050"/>
  <outline>
    <contour>
      <point x="299" y="779" type="curve" smooth="yes"/>
      <point x="211" y="779"/>
      <point x="142" y="685"/>
      <point x="142" y="564" type="curve" smooth="yes"/>
      <point x="142" y="446"/>
      <point x="210" y="354"/>
      <point x="299" y="354" type="curve" smooth="yes"/>
      <point x="388" y="354"/>
      <point x="457" y="447"/>
      <point x="457" y="564" type="curve" smooth="yes"/>
      <point x="457" y="684"/>
      <point x="387" y="779"/>
    </contour>
    <contour>
      <point x="299" y="744" type="curve" smooth="yes"/>
      <point x="344" y="744"/>
      <point x="362" y="707"/>
      <point x="362" y="565" type="curve" smooth="yes"/>
      <point x="362" y="423"/>
      <point x="345" y="390"/>
      <point x="299" y="390" type="curve" smooth="yes"/>
      <point x="254" y="390"/>
      <point x="237" y="422"/>
      <point x="237" y="565" type="curve" smooth="yes"/>
      <point x="237" y="707"/>
      <point x="254" y="744"/>
    </contour>
    <contour>
      <point x="720" y="415" type="curve" smooth="yes"/>
      <point x="632" y="415"/>
      <point x="563" y="321"/>
      <point x="563" y="200" type="curve" smooth="yes"/>
      <point x="563" y="82"/>
      <point x="631" y="-10"/>
      <point x="720" y="-10" type="curve" smooth="yes"/>
      <point x="809" y="-10"/>
      <point x="878" y="83"/>
      <point x="878" y="200" type="curve" smooth="yes"/>
      <point x="878" y="320"/>
      <point x="808" y="415"/>
    </contour>
    <contour>
      <point x="720" y="380" type="curve" smooth="yes"/>
      <point x="765" y="380"/>
      <point x="783" y="343"/>
      <point x="783" y="201" type="curve" smooth="yes"/>
      <point x="783" y="59"/>
      <point x="766" y="26"/>
      <point x="720" y="26" type="curve" smooth="yes"/>
      <point x="675" y="26"/>
      <point x="658" y="58"/>
      <point x="658" y="201" type="curve" smooth="yes"/>
      <point x="658" y="343"/>
      <point x="675" y="380"/>
    </contour>
    <contour>
      <point x="311" y="0" type="line"/>
      <point x="781" y="770" type="line"/>
      <point x="711" y="770" type="line"/>
      <point x="242" y="0" type="line"/>
    </contour>
  </outline>
</glyph>
<glyph name="periodcentered.tnum" format="1">
  <advance width="300"/>
  <outline>
    <contour>
      <point x="81" y="287" type="curve" smooth="yes"/>
      <point x="81" y="250"/>
      <point x="108" y="219"/>
      <point x="149" y="219" type="curve" smooth="yes"/>
      <point x="192" y="219"/>
      <point x="219" y="250"/>
      <point x="219" y="287" type="curve" smooth="yes"/>
      <point x="219" y="327"/>
      <point x="192" y="357"/>
      <point x="149" y="357" type="curve" smooth="yes"/>
      <point x="108" y="357"/>
      <point x="81" y="327"/>
    </contour>
  </outline>
</glyph>
<glyph name="plus.tnum" format="1">
  <advance width="600"/>
  <outline>
    <contour>
      <point x="505" y="315" type="line"/>
      <point x="505" y="364" type="line"/>
      <point x="95" y="364" type="line"/>
      <point x="95" y="315" type="line"/>
    </contour>
    <contour>
      <point x="275" y="134" type="line"/>
      <point x="326" y="134" type="line"/>
      <point x="326" y="544" type="line"/>
      <point x="275" y="544" type="line"/>
    </contour>
  </outline>
</glyph>
<glyph name="ring.cap" format="1">
  <advance width="160"/>
  <outline>
    <contour>
      <point x="80" y="830" type="curve" smooth="yes"/>
      <point x="38" y="830"/>
      <point x="10" y="860"/>
      <point x="10" y="900" type="curve" smooth="yes"/>
      <point x="10" y="940"/>
      <point x="40" y="970"/>
      <point x="80" y="970" type="curve" smooth="yes"/>
      <point x="120" y="970"/>
      <point x="150" y="940"/>
      <point x="150" y="900" type="curve" smooth="yes"/>
      <point x="150" y="860"/>
      <point x="120" y="830"/>
    </contour>
    <contour>
      <point x="45" y="900" type="curve" smooth="yes"/>
      <point x="45" y="879"/>
      <point x="59" y="865"/>
      <point x="80" y="865" type="curve" smooth="yes"/>
      <point x="101" y="865"/>
      <point x="115" y="879"/>
      <point x="115" y="900" type="curve" smooth="yes"/>
      <point x="115" y="921"/>
      <point x="101" y="935"/>
      <point x="80" y="935" type="curve" smooth="yes"/>
      <point x="59" y="935"/>
      <point x="45" y="921"/>
    </contour>
    <contour>
      <point x="79" y="830" type="move" name="_topcap"/>
    </contour>
  </outline>
</glyph>
<glyph name="seven.denominator" format="1">
  <advance width="337"/>
  <outline>
    <contour>
      <point x="96" y="441" type="line"/>
      <point x="93" y="464" type="line"/>
      <point x="74" y="468" type="line"/>
      <point x="25" y="323" type="line"/>
      <point x="44" y="313" type="line"/>
      <point x="57" y="337"/>
      <point x="66" y="349"/>
      <point x="79" y="360" type="curve"/>
      <point x="246" y="360" type="line"/>
      <point x="102" y="92" type="line" smooth="yes"/>
      <point x="87" y="64"/>
      <point x="79" y="42"/>
      <point x="79" y="26" type="curve" smooth="yes"/>
      <point x="79" y="4"/>
      <point x="93" y="-10"/>
      <point x="117" y="-10" type="curve" smooth="yes"/>
      <point x="137" y="-10"/>
      <point x="151" y="4"/>
      <point x="160" y="30" type="curve" smooth="yes"/>
      <point x="228" y="233"/>
      <point x="239" y="259"/>
      <point x="314" y="425" type="curve"/>
      <point x="306" y="441" type="line"/>
    </contour>
  </outline>
</glyph>
<glyph name="seven.numerator" format="1">
  <advance width="332"/>
  <outline>
    <contour>
      <point x="96" y="766" type="line"/>
      <point x="93" y="789" type="line"/>
      <point x="74" y="793" type="line"/>
      <point x="25" y="648" type="line"/>
      <point x="44" y="638" type="line"/>
      <point x="57" y="662"/>
      <point x="66" y="674"/>
      <point x="79" y="685" type="curve"/>
      <point x="246" y="685" type="line"/>
      <point x="102" y="417" type="line" smooth="yes"/>
      <point x="87" y="389"/>
      <point x="79" y="367"/>
      <point x="79" y="351" type="curve" smooth="yes"/>
      <point x="79" y="329"/>
      <point x="93" y="315"/>
      <point x="117" y="315" type="curve" smooth="yes"/>
      <point x="137" y="315"/>
      <point x="151" y="329"/>
      <point x="160" y="355" type="curve" smooth="yes"/>
      <point x="228" y="558"/>
      <point x="239" y="584"/>
      <point x="314" y="750" type="curve"/>
      <point x="306" y="766" type="line"/>
    </contour>
  </outline>
</glyph>
<glyph name="seven.oldstyle" format="1">
  <advance width="491"/>
  <outline>
    <contour>
      <point x="119" y="520" type="line"/>
      <point x="115" y="548" type="line"/>
      <point x="92" y="555" type="line"/>
      <point x="17" y="365" type="line"/>
      <point x="38" y="354" type="line"/>
      <point x="102" y="430" type="line"/>
      <point x="398" y="430" type="line"/>
      <point x="134" y="-33" type="line" smooth="yes"/>
      <point x="110" y="-75"/>
      <point x="94" y="-115"/>
      <point x="94" y="-145" type="curve" smooth="yes"/>
      <point x="94" y="-178"/>
      <point x="112" y="-197"/>
      <point x="142" y="-197" type="curve" smooth="yes"/>
      <point x="171" y="-197"/>
      <point x="192" y="-179"/>
      <point x="206" y="-139" type="curve" smooth="yes"/>
      <point x="326" y="207"/>
      <point x="336" y="228"/>
      <point x="488" y="508" type="curve"/>
      <point x="480" y="520" type="line"/>
    </contour>
  </outline>
</glyph>
<glyph name="seven.tnum" format="1">
  <advance width="600"/>
  <outline>
    <contour>
      <point x="186" y="757" type="line" name="hr00"/>
      <point x="183" y="765"/>
      <point x="182" y="774"/>
      <point x="182" y="785" type="curve"/>
      <point x="159" y="792" type="line"/>
      <point x="84" y="602" type="line"/>
      <point x="105" y="591" type="line"/>
      <point x="129" y="628"/>
      <point x="145" y="647"/>
      <point x="169" y="667" type="curve"/>
      <point x="463" y="667" type="line"/>
      <point x="216" y="154" type="line" smooth="yes"/>
      <point x="192" y="104"/>
      <point x="176" y="68"/>
      <point x="176" y="41" type="curve" smooth="yes"/>
      <point x="176" y="9"/>
      <point x="194" y="-10"/>
      <point x="224" y="-10" type="curve" smooth="yes"/>
      <point x="254" y="-10"/>
      <point x="276" y="10"/>
      <point x="288" y="48" type="curve" smooth="yes"/>
      <point x="405" y="411"/>
      <point x="422" y="460"/>
      <point x="545" y="745" type="curve"/>
      <point x="537" y="757" type="line"/>
    </contour>
  </outline>
</glyph>
<glyph name="six.numerator" format="1">
  <advance width="384"/>
  <outline>
    <contour>
      <point x="196" y="314" type="curve" smooth="yes"/>
      <point x="287" y="314"/>
      <point x="350" y="373"/>
      <point x="350" y="459" type="curve" smooth="yes"/>
      <point x="350" y="539"/>
      <point x="296" y="598"/>
      <point x="220" y="598" type="curve" smooth="yes"/>
      <point x="187" y="598"/>
      <point x="157" y="586"/>
      <point x="143" y="568" type="curve"/>
      <point x="151" y="631"/>
      <point x="219" y="719"/>
      <point x="285" y="754" type="curve"/>
      <point x="274" y="777" type="line"/>
      <point x="136" y="728"/>
      <point x="46" y="610"/>
      <point x="46" y="480" type="curve" smooth="yes"/>
      <point x="46" y="377"/>
      <point x="103" y="314"/>
    </contour>
    <contour>
      <point x="201" y="350" type="curve" smooth="yes"/>
      <point x="160" y="350"/>
      <point x="135" y="392"/>
      <point x="135" y="460" type="curve" smooth="yes"/>
      <point x="135" y="482"/>
      <point x="137" y="505"/>
      <point x="141" y="522" type="curve"/>
      <point x="153" y="542"/>
      <point x="174" y="554"/>
      <point x="196" y="554" type="curve" smooth="yes"/>
      <point x="237" y="554"/>
      <point x="263" y="514"/>
      <point x="263" y="449" type="curve" smooth="yes"/>
      <point x="263" y="388"/>
      <point x="238" y="350"/>
    </contour>
  </outline>
</glyph>
<glyph name="six.oldstyle" format="1">
  <advance width="531"/>
  <outline>
    <contour>
      <point x="270" y="-10" type="curve" smooth="yes"/>
      <point x="399" y="-10"/>
      <point x="490" y="84"/>
      <point x="490" y="219" type="curve" smooth="yes"/>
      <point x="490" y="344"/>
      <point x="412" y="434"/>
      <point x="305" y="434" type="curve" smooth="yes"/>
      <point x="254" y="434"/>
      <point x="206" y="414"/>
      <point x="183" y="382" type="curve"/>
      <point x="179" y="384" type="line"/>
      <point x="201" y="530"/>
      <point x="286" y="646"/>
      <point x="452" y="735" type="curve"/>
      <point x="439" y="757" type="line"/>
      <point x="201" y="674"/>
      <point x="52" y="486"/>
      <point x="52" y="265" type="curve" smooth="yes"/>
      <point x="52" y="94"/>
      <point x="134" y="-10"/>
    </contour>
    <contour>
      <point x="273" y="35" type="curve" smooth="yes"/>
      <point x="209" y="35"/>
      <point x="169" y="107"/>
      <point x="169" y="216" type="curve" smooth="yes"/>
      <point x="169" y="255"/>
      <point x="174" y="294"/>
      <point x="181" y="323" type="curve"/>
      <point x="200" y="357"/>
      <point x="230" y="377"/>
      <point x="265" y="377" type="curve" smooth="yes"/>
      <point x="329" y="377"/>
      <point x="371" y="308"/>
      <point x="371" y="201" type="curve" smooth="yes"/>
      <point x="371" y="99"/>
      <point x="333" y="35"/>
    </contour>
  </outline>
</glyph>
<glyph name="slash.tnum" format="1">
  <advance width="300"/>
  <outline>
    <contour>
      <point x="83" y="-169" type="line"/>
      <point x="284" y="819" type="line"/>
      <point x="215" y="819" type="line"/>
      <point x="15" y="-169" type="line"/>
    </contour>
  </outline>
</glyph>
